<svg width="364" height="90" viewBox="0 0 364 90" fill="none" xmlns="http://www.w3.org/2000/svg">
<path d="M189.406 12.3916L191.144 12.4244L195.867 7.70119L196.096 5.70138C192.343 2.36338 187.406 0.330078 182 0.330078C172.212 0.330078 163.954 6.98791 161.506 16.0115C162.023 15.6541 163.123 15.9203 163.123 15.9203L172.562 14.3697C172.562 14.3697 173.05 13.567 173.291 13.6165C175.45 11.2533 178.555 9.76833 182 9.76833C184.803 9.76833 187.38 10.7527 189.406 12.3916Z" fill="#EA4335"/>
<path d="M202.498 16.0235C201.402 11.9769 199.139 8.40692 196.092 5.69775L189.401 12.388C192.08 14.5524 193.798 17.8619 193.798 21.5662V22.7458C197.051 22.7458 199.697 25.3919 199.697 28.6448C199.697 31.8976 197.051 34.5437 193.797 34.5437H182L180.819 35.7294V42.8084L182 43.982H193.798C202.255 43.982 209.135 37.1018 209.135 28.6448C209.135 23.4167 206.504 18.7936 202.498 16.0235Z" fill="#4285F4"/>
<path d="M170.202 43.9821H181.991V34.5438H170.203C169.337 34.5438 168.515 34.3511 167.773 34.0137L166.073 34.5335L161.347 39.2589L160.933 40.8536C163.51 42.8145 166.722 43.9817 170.202 43.9821Z" fill="#34A853"/>
<path d="M170.202 13.3076C161.745 13.3076 154.865 20.1878 154.865 28.6448C154.865 33.6242 157.252 38.0553 160.94 40.8589L167.781 34.0179C165.734 33.0916 164.303 31.0341 164.303 28.6448C164.303 25.392 166.949 22.7459 170.202 22.7459C172.591 22.7459 174.649 24.1763 175.575 26.2235L182.416 19.3826C179.613 15.6943 175.182 13.3076 170.202 13.3076Z" fill="#FBBC05"/>
<path d="M143.571 70.7409C142.783 70.2874 142.158 69.6621 141.695 68.8651C141.232 68.0684 141 67.1884 141 66.225C141 65.2617 141.232 64.3816 141.695 63.585C142.158 62.7887 142.783 62.1631 143.571 61.7092C144.358 61.2556 145.219 61.0283 146.155 61.0283C146.887 61.0283 147.574 61.158 148.219 61.4174C148.862 61.6771 149.393 62.0427 149.809 62.5151L148.962 63.3627C148.647 62.9736 148.244 62.6747 147.753 62.4663C147.262 62.2579 146.734 62.1538 146.169 62.1538C145.465 62.1538 144.809 62.323 144.203 62.6608C143.596 62.9993 143.11 63.476 142.744 64.0923C142.378 64.7084 142.195 65.4195 142.195 66.225C142.195 67.0306 142.377 67.7421 142.744 68.3577C143.11 68.9738 143.598 69.4508 144.21 69.7889C144.821 70.1274 145.474 70.2963 146.169 70.2963C146.836 70.2963 147.394 70.1922 147.843 69.9838C148.292 69.7754 148.679 69.5 149.004 69.1569C149.244 68.8975 149.439 68.5854 149.587 68.2192C149.735 67.8533 149.828 67.4478 149.865 67.0032H146.183V65.9055H150.963C151.009 66.1652 151.032 66.4057 151.032 66.628C151.032 67.2394 150.935 67.8347 150.74 68.4137C150.546 68.9926 150.236 69.5 149.809 69.9354C148.892 70.9265 147.674 71.4221 146.155 71.4221C145.219 71.4218 144.358 71.1948 143.571 70.7409Z" fill="#5F6368"/>
<path d="M153.544 70.9216C152.989 70.5881 152.555 70.1346 152.245 69.5603C151.935 68.9859 151.78 68.351 151.78 67.6563C151.78 66.9619 151.935 66.3274 152.245 65.7527C152.556 65.1787 152.989 64.7245 153.544 64.391C154.1 64.0575 154.726 63.8911 155.42 63.8911C156.115 63.8911 156.74 64.0579 157.296 64.391C157.852 64.7248 158.285 65.1787 158.595 65.7527C158.905 66.327 159.06 66.9619 159.06 67.6563C159.06 68.351 158.905 68.9856 158.595 69.5603C158.284 70.1346 157.852 70.5885 157.296 70.9216C156.74 71.2555 156.115 71.4218 155.42 71.4218C154.726 71.4218 154.1 71.2551 153.544 70.9216ZM156.636 70.0252C157.011 69.8079 157.312 69.4954 157.539 69.0875C157.766 68.6795 157.88 68.2032 157.88 67.6559C157.88 67.1098 157.766 66.6327 157.539 66.2248C157.312 65.8172 157.011 65.5047 156.636 65.2867C156.261 65.0693 155.855 64.9603 155.42 64.9603C154.984 64.9603 154.577 65.0693 154.197 65.2867C153.817 65.5044 153.514 65.8172 153.287 66.2248C153.06 66.6327 152.947 67.1094 152.947 67.6559C152.947 68.2028 153.06 68.6795 153.287 69.0875C153.514 69.4954 153.817 69.8075 154.197 70.0252C154.577 70.2429 154.984 70.3519 155.42 70.3519C155.856 70.3519 156.261 70.2429 156.636 70.0252Z" fill="#5F6368"/>
<path d="M161.409 70.9216C160.853 70.5881 160.42 70.1346 160.11 69.5603C159.799 68.9859 159.644 68.351 159.644 67.6563C159.644 66.9619 159.799 66.3274 160.11 65.7527C160.42 65.1787 160.853 64.7245 161.409 64.391C161.965 64.0575 162.59 63.8911 163.285 63.8911C163.98 63.8911 164.605 64.0579 165.161 64.391C165.717 64.7248 166.149 65.1787 166.46 65.7527C166.77 66.327 166.925 66.9619 166.925 67.6563C166.925 68.351 166.77 68.9856 166.46 69.5603C166.149 70.135 165.716 70.5885 165.161 70.9216C164.605 71.2555 163.98 71.4218 163.285 71.4218C162.59 71.4218 161.965 71.2551 161.409 70.9216ZM164.5 70.0252C164.876 69.8079 165.176 69.4954 165.404 69.0875C165.631 68.6795 165.744 68.2032 165.744 67.6559C165.744 67.1098 165.631 66.6327 165.404 66.2248C165.176 65.8172 164.876 65.5047 164.5 65.2867C164.125 65.0693 163.72 64.9603 163.285 64.9603C162.849 64.9603 162.442 65.0693 162.062 65.2867C161.682 65.5044 161.379 65.8172 161.152 66.2248C160.924 66.6327 160.811 67.1094 160.811 67.6559C160.811 68.2028 160.924 68.6795 161.152 69.0875C161.379 69.4954 161.682 69.8075 162.062 70.0252C162.441 70.2429 162.849 70.3519 163.285 70.3519C163.72 70.3519 164.125 70.2429 164.5 70.0252Z" fill="#5F6368"/>
<path d="M168.933 73.8396C168.391 73.4505 168.028 72.9827 167.842 72.4362L168.912 71.9776C169.07 72.3856 169.332 72.7162 169.697 72.9713C170.063 73.2261 170.496 73.3532 170.996 73.3532C171.728 73.3532 172.295 73.1398 172.698 72.7141C173.101 72.288 173.303 71.6858 173.303 70.9077V70.1157H173.247C173.015 70.477 172.689 70.7713 172.268 70.9982C171.846 71.2252 171.367 71.3385 170.829 71.3385C170.218 71.3385 169.66 71.1813 169.155 70.8664C168.65 70.5514 168.249 70.1114 167.953 69.5464C167.657 68.9813 167.509 68.3372 167.509 67.615C167.509 66.9017 167.657 66.26 167.953 65.6903C168.249 65.1206 168.65 64.6785 169.155 64.3632C169.66 64.0486 170.218 63.8911 170.829 63.8911C171.367 63.8911 171.846 64.0044 172.268 64.2314C172.689 64.4587 173.015 64.7572 173.247 65.1278H173.303V64.1134H174.428V70.9216C174.428 72.061 174.113 72.9296 173.483 73.5268C172.853 74.1246 172.024 74.4232 170.996 74.4232C170.163 74.4232 169.475 74.2286 168.933 73.8396ZM172.156 69.949C172.504 69.7359 172.782 69.4302 172.99 69.0319C173.199 68.6339 173.303 68.1615 173.303 67.6146C173.303 67.0585 173.199 66.5818 172.99 66.1831C172.782 65.7851 172.504 65.4812 172.156 65.2728C171.809 65.0644 171.422 64.9603 170.996 64.9603C170.57 64.9603 170.181 65.0668 169.829 65.2795C169.477 65.493 169.197 65.7986 168.989 66.1966C168.78 66.5949 168.676 67.0674 168.676 67.6143C168.676 68.1611 168.78 68.6354 168.989 69.0383C169.197 69.4413 169.477 69.747 169.829 69.9554C170.181 70.1638 170.57 70.2678 170.996 70.2678C171.423 70.2686 171.809 70.1624 172.156 69.949Z" fill="#5F6368"/>
<path d="M175.755 61.2505H176.936V71.1993H175.755V61.2505Z" fill="#5F6368"/>
<path d="M179.621 70.9355C179.083 70.6117 178.664 70.1645 178.363 69.5945C178.062 69.0248 177.912 68.3838 177.912 67.6702C177.912 66.9847 178.053 66.3552 178.335 65.7805C178.618 65.2061 179.018 64.748 179.537 64.4049C180.056 64.0625 180.658 63.8911 181.343 63.8911C182.038 63.8911 182.64 64.0465 183.15 64.3568C183.659 64.6671 184.05 65.0953 184.324 65.6419C184.597 66.1884 184.733 66.8137 184.733 67.5177C184.733 67.6567 184.719 67.7774 184.692 67.879H179.092C179.12 68.4166 179.249 68.8701 179.481 69.2407C179.713 69.6112 180.007 69.8891 180.364 70.0744C180.72 70.26 181.093 70.3523 181.482 70.3523C182.39 70.3523 183.089 69.9265 183.581 69.0739L184.581 69.5603C184.276 70.1346 183.861 70.5885 183.338 70.9216C182.814 71.2555 182.182 71.4218 181.441 71.4218C180.765 71.4218 180.158 71.2597 179.621 70.9355ZM183.483 66.906C183.464 66.6095 183.381 66.3131 183.233 66.0167C183.085 65.7203 182.851 65.4702 182.531 65.2664C182.212 65.0629 181.811 64.961 181.329 64.961C180.774 64.961 180.303 65.1395 179.919 65.4958C179.534 65.8528 179.282 66.3224 179.162 66.9063H183.483V66.906Z" fill="#5F6368"/>
<path d="M191.199 70.7409C190.411 70.2874 189.793 69.6642 189.344 68.8722C188.894 68.0798 188.67 67.1977 188.67 66.225C188.67 65.2524 188.894 64.3699 189.344 63.5779C189.793 62.7859 190.411 62.1627 191.199 61.7092C191.986 61.2556 192.862 61.0283 193.825 61.0283C194.566 61.0283 195.244 61.1694 195.861 61.4519C196.477 61.7345 197.012 62.1353 197.466 62.6537L196.618 63.4738C196.238 63.0199 195.824 62.6865 195.374 62.473C194.925 62.26 194.409 62.1538 193.825 62.1538C193.103 62.1538 192.44 62.323 191.838 62.6608C191.236 62.9993 190.757 63.476 190.4 64.0923C190.043 64.7087 189.865 65.4195 189.865 66.225C189.865 67.0306 190.043 67.7421 190.4 68.3577C190.757 68.9738 191.236 69.4508 191.838 69.7889C192.44 70.1274 193.103 70.2963 193.825 70.2963C195.029 70.2963 196.053 69.8007 196.896 68.8095L197.757 69.6432C197.294 70.1897 196.724 70.623 196.048 70.9422C195.372 71.2618 194.631 71.4218 193.825 71.4218C192.862 71.4218 191.986 71.1948 191.199 70.7409Z" fill="#5F6368"/>
<path d="M198.621 61.2505H199.802V71.1993H198.621V61.2505Z" fill="#5F6368"/>
<path d="M202.543 70.9216C201.987 70.5881 201.554 70.1346 201.244 69.5603C200.933 68.9859 200.778 68.351 200.778 67.6563C200.778 66.9619 200.933 66.3274 201.244 65.7527C201.554 65.1787 201.987 64.7245 202.543 64.391C203.099 64.0575 203.723 63.8911 204.419 63.8911C205.114 63.8911 205.739 64.0579 206.294 64.391C206.851 64.7248 207.283 65.1787 207.593 65.7527C207.904 66.327 208.059 66.9619 208.059 67.6563C208.059 68.351 207.904 68.9856 207.593 69.5603C207.283 70.135 206.85 70.5885 206.294 70.9216C205.739 71.2555 205.114 71.4218 204.419 71.4218C203.723 71.4218 203.099 71.2551 202.543 70.9216ZM205.634 70.0252C206.01 69.8079 206.31 69.4954 206.537 69.0875C206.764 68.6795 206.878 68.2032 206.878 67.6559C206.878 67.1098 206.764 66.6327 206.537 66.2248C206.31 65.8172 206.01 65.5047 205.634 65.2867C205.259 65.0693 204.854 64.9603 204.419 64.9603C203.983 64.9603 203.576 65.0693 203.196 65.2867C202.816 65.5044 202.512 65.8172 202.285 66.2248C202.058 66.6327 201.945 67.1094 201.945 67.6559C201.945 68.2028 202.058 68.6795 202.285 69.0875C202.512 69.4954 202.816 69.8075 203.196 70.0252C203.575 70.2429 203.983 70.3519 204.419 70.3519C204.854 70.3519 205.259 70.2429 205.634 70.0252Z" fill="#5F6368"/>
<path d="M209.617 70.6709C209.167 70.171 208.943 69.4716 208.943 68.5727V64.1128H210.124V68.3924C210.124 69.0687 210.277 69.5643 210.582 69.8792C210.888 70.1945 211.3 70.3516 211.819 70.3516C212.217 70.3516 212.571 70.2451 212.882 70.0321C213.192 69.819 213.433 69.5415 213.604 69.1984C213.775 68.856 213.861 68.4943 213.861 68.1145V64.1128H215.042V71.1992H213.917V70.171H213.861C213.667 70.523 213.356 70.8194 212.93 71.0603C212.504 71.3011 212.05 71.4216 211.569 71.4216C210.717 71.4216 210.066 71.1714 209.617 70.6709Z" fill="#5F6368"/>
<path d="M217.672 70.9353C217.157 70.6114 216.752 70.1643 216.456 69.5942C216.159 69.0246 216.011 68.3786 216.011 67.6561C216.011 66.9428 216.159 66.299 216.456 65.7247C216.752 65.1507 217.157 64.7014 217.672 64.3769C218.186 64.053 218.757 63.8909 219.387 63.8909C219.934 63.8909 220.42 64.0138 220.846 64.2589C221.272 64.5044 221.597 64.8076 221.819 65.1692H221.875L221.819 64.1823V61.2505H223V71.1993H221.875V70.1572H221.819C221.597 70.5092 221.272 70.8081 220.846 71.0536C220.421 71.2987 219.934 71.4216 219.387 71.4216C218.757 71.4216 218.186 71.2595 217.672 70.9353ZM220.687 70.0179C221.043 69.7955 221.331 69.481 221.548 69.0734C221.766 68.6658 221.875 68.1933 221.875 67.6557C221.875 67.1188 221.766 66.6464 221.548 66.2384C221.331 65.8308 221.043 65.5159 220.687 65.2936C220.33 65.0712 219.944 64.9601 219.527 64.9601C219.119 64.9601 218.734 65.0712 218.373 65.2936C218.012 65.5159 217.722 65.8333 217.505 66.2456C217.287 66.6578 217.178 67.1281 217.178 67.6557C217.178 68.1837 217.287 68.654 217.505 69.0662C217.722 69.4785 218.012 69.7955 218.373 70.0179C218.735 70.2402 219.119 70.3517 219.527 70.3517C219.944 70.3517 220.33 70.2402 220.687 70.0179Z" fill="#5F6368"/>
<path d="M156.628 78.5049H160.428C161.071 78.5049 161.666 78.6481 162.213 78.9338C162.759 79.2199 163.193 79.6183 163.515 80.1288C163.837 80.6401 163.997 81.2169 163.997 81.86C163.997 82.5031 163.836 83.0806 163.515 83.5912C163.194 84.1017 162.759 84.5004 162.213 84.7861C161.666 85.0722 161.071 85.2151 160.428 85.2151H158.344V89.4741H156.628V78.5049ZM160.458 83.5912C160.836 83.5912 161.163 83.5071 161.439 83.3382C161.715 83.1697 161.924 82.9531 162.067 82.6873C162.21 82.4218 162.282 82.1457 162.282 81.86C162.282 81.5742 162.21 81.2985 162.067 81.0327C161.924 80.7673 161.715 80.5528 161.439 80.3893C161.163 80.2261 160.836 80.1441 160.458 80.1441H158.344V83.5912H160.458Z" fill="#5F6368"/>
<path d="M166.015 89.3902C165.575 89.1707 165.233 88.8593 164.988 88.4557C164.743 88.0523 164.621 87.5952 164.621 87.0843C164.621 86.2774 164.925 85.6392 165.532 85.1693C166.14 84.6997 166.909 84.4646 167.838 84.4646C168.298 84.4646 168.711 84.5081 169.079 84.5946C169.447 84.6816 169.738 84.776 169.952 84.8779V84.4799C169.952 83.9996 169.774 83.6092 169.416 83.3077C169.059 83.0067 168.599 82.8556 168.037 82.8556C167.639 82.8556 167.264 82.9426 166.911 83.1161C166.559 83.2896 166.275 83.5297 166.061 83.8361L164.881 82.9322C165.228 82.4523 165.678 82.0796 166.229 81.8139C166.781 81.5484 167.394 81.4155 168.068 81.4155C169.201 81.4155 170.075 81.6938 170.687 82.2507C171.3 82.8072 171.607 83.5913 171.607 84.6025V89.4743H169.952V88.5397H169.875C169.651 88.8768 169.334 89.1575 168.926 89.3823C168.517 89.6068 168.047 89.7194 167.516 89.7194C166.955 89.7194 166.454 89.6096 166.015 89.3902ZM168.91 88.0342C169.237 87.8404 169.492 87.5799 169.676 87.2528C169.86 86.9261 169.952 86.5741 169.952 86.1958C169.717 86.0632 169.444 85.956 169.132 85.874C168.82 85.7924 168.496 85.7515 168.16 85.7515C167.526 85.7515 167.061 85.8769 166.765 86.127C166.469 86.3775 166.321 86.7013 166.321 87.0996C166.321 87.4574 166.459 87.7506 166.735 87.9807C167.011 88.2105 167.368 88.3256 167.807 88.3256C168.216 88.3253 168.584 88.2283 168.91 88.0342Z" fill="#5F6368"/>
<path d="M173.254 81.6607H174.862V82.8097H174.939C175.143 82.3911 175.463 82.0594 175.897 81.8139C176.331 81.5688 176.803 81.4462 177.314 81.4462C177.6 81.4462 177.809 81.4669 177.942 81.5075V83.208C177.687 83.1368 177.416 83.1008 177.13 83.1008C176.467 83.1008 175.935 83.3103 175.537 83.7289C175.139 84.1479 174.94 84.6994 174.94 85.3835V89.4739H173.254V81.6607H173.254ZM181.757 89.428C181.45 89.3158 181.2 89.1675 181.006 88.9837C180.567 88.5448 180.347 87.9473 180.347 87.1912V83.1467H178.984V81.6607H180.347V79.4546H182.032V81.6607H183.932V83.1467H182.032V86.8232C182.032 87.2422 182.114 87.5386 182.277 87.7118C182.43 87.9163 182.696 88.0182 183.074 88.0182C183.247 88.0182 183.401 87.9954 183.534 87.9494C183.666 87.9034 183.809 87.8293 183.962 87.7271V89.3667C183.626 89.5199 183.216 89.5965 182.737 89.5965C182.39 89.5965 182.063 89.5402 181.757 89.428Z" fill="#5F6368"/>
<path d="M185.339 81.661H186.948V82.6875H187.025C187.249 82.3198 187.584 82.0159 188.028 81.7757C188.472 81.536 188.945 81.4155 189.445 81.4155C190.395 81.4155 191.118 81.6938 191.613 82.2507C192.109 82.8075 192.356 83.5657 192.356 84.5259V89.4743H190.671V84.7557C190.671 84.1429 190.52 83.6936 190.219 83.4075C189.918 83.1218 189.501 82.9785 188.971 82.9785C188.592 82.9785 188.256 83.0836 187.959 83.2928C187.663 83.5023 187.433 83.7805 187.27 84.1279C187.106 84.4753 187.025 84.8479 187.025 85.2463V89.4746H185.339V81.661Z" fill="#5F6368"/>
<path d="M195.449 89.183C194.841 88.8256 194.366 88.3329 194.024 87.7047C193.682 87.0766 193.511 86.3697 193.511 85.5831C193.511 84.8374 193.677 84.1455 194.009 83.5074C194.341 82.8689 194.803 82.3609 195.395 81.9829C195.988 81.6052 196.662 81.416 197.418 81.416C198.204 81.416 198.886 81.5899 199.463 81.9369C200.04 82.2846 200.479 82.7596 200.78 83.3617C201.082 83.9645 201.232 84.6436 201.232 85.3992C201.232 85.5425 201.217 85.721 201.186 85.9358H195.197C195.258 86.6608 195.516 87.2198 195.97 87.6132C196.424 88.0065 196.953 88.2028 197.556 88.2028C198.036 88.2028 198.452 88.0931 198.804 87.8736C199.157 87.6542 199.44 87.3552 199.655 86.9772L201.079 87.6513C200.712 88.2951 200.232 88.8007 199.639 89.168C199.047 89.5357 198.337 89.7199 197.51 89.7199C196.744 89.7192 196.056 89.5403 195.449 89.183ZM199.516 84.6482C199.496 84.3724 199.409 84.0992 199.256 83.8284C199.103 83.558 198.871 83.3307 198.559 83.1468C198.247 82.9626 197.867 82.8711 197.418 82.8711C196.876 82.8711 196.419 83.0321 196.046 83.3535C195.674 83.6752 195.416 84.1067 195.273 84.6482H199.516Z" fill="#5F6368"/>
<path d="M202.47 81.661H204.078V82.81H204.155C204.328 82.4116 204.63 82.0824 205.059 81.822C205.488 81.5616 205.942 81.4312 206.422 81.4312C206.8 81.4312 207.117 81.4825 207.372 81.5847V83.3308C206.923 83.1677 206.519 83.0857 206.162 83.0857C205.774 83.0857 205.429 83.1876 205.128 83.3918C204.827 83.5963 204.589 83.8695 204.416 84.2116C204.242 84.554 204.156 84.9295 204.156 85.3374V89.4739H202.47V81.661H202.47Z" fill="#5F6368"/>
</svg>
