<svg width="272" height="35" viewBox="0 0 272 35" fill="none" xmlns="http://www.w3.org/2000/svg">
<path d="M141.881 2.60742H145.068L138.726 26.5149H135.603L130.488 10.7556H130.355L125.24 26.5149H122.117L115.511 2.60742H118.699L123.713 21.4082H123.846L128.994 5.8159H131.849L136.997 21.4082H137.13L141.881 2.60742Z" fill="#5F6368"/>
<path d="M144.78 18.3321C144.78 15.8169 145.566 13.7372 147.137 12.0894C148.732 10.4416 150.736 9.61768 153.147 9.61768C155.558 9.61768 157.555 10.4416 159.125 12.0894C160.72 13.7372 161.514 15.8169 161.514 18.3321C161.514 20.8691 160.717 22.9524 159.125 24.5748C157.551 26.2226 155.558 27.0465 153.147 27.0465C150.732 27.0465 148.729 26.2226 147.137 24.5748C145.566 22.9307 144.78 20.8473 144.78 18.3321ZM147.833 18.3321C147.833 20.0924 148.342 21.5152 149.36 22.6076C150.378 23.7001 151.642 24.2445 153.147 24.2445C154.652 24.2445 155.916 23.7001 156.934 22.6076C157.952 21.5188 158.461 20.0924 158.461 18.3321C158.461 16.5972 157.952 15.1817 156.934 14.0928C155.894 12.9786 154.631 12.4233 153.147 12.4233C151.663 12.4233 150.4 12.9786 149.36 14.0928C148.342 15.1817 147.833 16.5972 147.833 18.3321Z" fill="#5F6368"/>
<path d="M166.741 26.516H163.687V10.1542H166.611V12.8256H166.744C167.055 11.9581 167.69 11.2177 168.654 10.6043C169.618 9.99091 170.563 9.68604 171.495 9.68604C172.379 9.68604 173.134 9.82033 173.754 10.0853L172.823 13.0578C172.448 12.9018 171.848 12.8256 171.029 12.8256C169.878 12.8256 168.874 13.2938 168.022 14.2265C167.17 15.163 166.744 16.2518 166.744 17.5003V26.516H166.741Z" fill="#5F6368"/>
<path d="M189.476 26.5149H185.79L180.708 18.8022L178.217 21.2739V26.5149H175.163V2.60742H178.217V17.3323L185.256 10.1531H189.176V10.2874L182.834 16.6318L189.476 26.3806V26.5149Z" fill="#5F6368"/>
<path d="M202.698 21.9717C202.698 23.3981 202.077 24.5995 200.839 25.5794C199.597 26.5594 198.037 27.0494 196.157 27.0494C194.518 27.0494 193.078 26.6211 191.839 25.7645C190.598 24.908 189.713 23.7792 189.183 22.3746L191.904 21.2059C192.301 22.1859 192.883 22.9481 193.648 23.4925C194.413 24.0369 195.247 24.3091 196.157 24.3091C197.131 24.3091 197.944 24.0986 198.597 23.674C199.25 23.2529 199.575 22.7521 199.575 22.1713C199.575 21.126 198.777 20.3566 197.185 19.8666L194.395 19.1661C191.229 18.364 189.645 16.8287 189.645 14.5567C189.645 13.0649 190.247 11.8672 191.453 10.9671C192.659 10.067 194.204 9.61328 196.085 9.61328C197.525 9.61328 198.824 9.95808 199.987 10.6477C201.149 11.3373 201.961 12.2628 202.427 13.4206L199.705 14.5567C199.395 13.8671 198.893 13.3263 198.193 12.9379C197.496 12.5495 196.716 12.3536 195.85 12.3536C195.052 12.3536 194.337 12.5532 193.709 12.956C193.081 13.3589 192.764 13.8453 192.764 14.426C192.764 15.3624 193.637 16.0302 195.388 16.4295L197.846 17.0646C201.08 17.8631 202.698 19.5 202.698 21.9717Z" fill="#5F6368"/>
<path d="M213.307 27.0465C212.112 27.0465 211.022 26.7888 210.037 26.2771C209.051 25.7653 208.293 25.0866 207.763 24.2409H207.629L207.763 26.513V33.7248H204.709V10.1512H207.633V12.4233H207.766C208.297 11.5776 209.055 10.8989 210.04 10.3871C211.026 9.87537 212.116 9.61768 213.311 9.61768C215.459 9.61768 217.274 10.4633 218.758 12.1547C220.285 13.8678 221.05 15.9294 221.05 18.3321C221.05 20.7602 220.285 22.8182 218.758 24.5095C217.271 26.2009 215.455 27.0465 213.307 27.0465ZM212.809 24.2446C214.271 24.2446 215.498 23.6892 216.495 22.575C217.491 21.4861 217.989 20.0706 217.989 18.3357C217.989 16.6226 217.491 15.2071 216.495 14.0965C215.498 12.9822 214.271 12.4269 212.809 12.4269C211.325 12.4269 210.087 12.9822 209.091 14.0965C208.116 15.2107 207.629 16.6226 207.629 18.3357C207.629 20.0706 208.116 21.497 209.091 22.6113C210.084 23.6965 211.325 24.2446 212.809 24.2446Z" fill="#5F6368"/>
<path d="M229.414 9.61768C231.674 9.61768 233.454 10.2238 234.76 11.4361C236.067 12.6483 236.72 14.3143 236.72 16.4266V26.5094H233.797V24.2373H233.663C232.4 26.1065 230.717 27.0429 228.617 27.0429C226.822 27.0429 225.324 26.5094 224.115 25.4387C222.909 24.3716 222.307 23.0359 222.307 21.4317C222.307 19.7404 222.942 18.3938 224.216 17.3921C225.49 16.3903 227.187 15.8895 229.313 15.8895C231.129 15.8895 232.623 16.2234 233.797 16.8912V16.1907C233.797 15.1236 233.374 14.2163 232.533 13.4686C231.692 12.7245 230.707 12.3507 229.577 12.3507C227.873 12.3507 226.523 13.073 225.527 14.5211L222.837 12.8189C224.321 10.6847 226.512 9.61768 229.414 9.61768ZM225.462 21.5043C225.462 22.3064 225.797 22.9742 226.476 23.5078C227.151 24.0413 227.941 24.3099 228.851 24.3099C230.136 24.3099 231.281 23.8308 232.288 22.8726C233.295 21.9144 233.8 20.7929 233.8 19.5008C232.847 18.7459 231.519 18.3648 229.815 18.3648C228.573 18.3648 227.541 18.666 226.711 19.2649C225.877 19.8674 225.462 20.6151 225.462 21.5043Z" fill="#5F6368"/>
<path d="M247.077 27.0465C244.662 27.0465 242.658 26.2226 241.066 24.5748C239.493 22.8835 238.709 20.8002 238.709 18.3321C238.709 15.8169 239.496 13.7372 241.066 12.0894C242.662 10.4416 244.665 9.61768 247.077 9.61768C248.737 9.61768 250.188 10.0351 251.426 10.8699C252.665 11.7046 253.596 12.8552 254.217 14.3251L251.426 15.4938C250.564 13.4468 249.048 12.4233 246.878 12.4233C245.485 12.4233 244.275 12.9895 243.258 14.1255C242.261 15.2615 241.763 16.6625 241.763 18.3321C241.763 20.0017 242.261 21.4027 243.258 22.5387C244.275 23.6747 245.481 24.2409 246.878 24.2409C249.113 24.2409 250.686 23.2174 251.593 21.1704L254.314 22.3391C253.715 23.809 252.78 24.9596 251.509 25.7943C250.239 26.6291 248.759 27.0465 247.077 27.0465Z" fill="#5F6368"/>
<path d="M263.519 27.0465C261.13 27.0465 259.159 26.2226 257.606 24.5748C256.058 22.927 255.282 20.8473 255.282 18.3321C255.282 15.8386 256.033 13.7626 257.541 12.1039C259.047 10.4452 260.974 9.61768 263.321 9.61768C265.732 9.61768 267.656 10.4016 269.082 11.9732C270.511 13.5412 271.223 15.7406 271.223 18.568L271.19 18.9019H258.404C258.448 20.5062 258.978 21.7946 260 22.7746C261.018 23.7546 262.234 24.2445 263.653 24.2445C265.602 24.2445 267.129 23.2646 268.237 21.3047L270.959 22.6403C270.23 24.0195 269.215 25.1011 267.92 25.8778C266.624 26.6545 265.158 27.0465 263.519 27.0465ZM258.639 16.3613H267.97C267.88 15.2252 267.421 14.2852 266.591 13.5412C265.761 12.7971 264.649 12.4233 263.252 12.4233C262.101 12.4233 261.112 12.779 260.281 13.4903C259.451 14.2054 258.902 15.1599 258.639 16.3613Z" fill="#5F6368"/>
<path d="M14.4081 27.0325C7.00084 27.0325 0.777588 20.964 0.777588 13.5163C0.777588 6.06852 7.00084 0 14.4081 0C18.5052 0 21.4183 1.61513 23.613 3.72387L21.0248 6.32622C19.4509 4.84175 17.3212 3.68757 14.4081 3.68757C9.00426 3.68757 4.77722 8.07201 4.77722 13.5126C4.77722 18.9532 9.00426 23.334 14.4081 23.334C17.9132 23.334 19.913 21.9185 21.1909 20.6301C22.2377 19.5739 22.9272 18.0604 23.1907 15.9807H14.3106V12.2967H26.7571C26.8871 12.9573 26.9521 13.7485 26.9521 14.6051C26.9521 17.3744 26.1976 20.8043 23.7755 23.2433C21.4183 25.7114 18.4041 27.0325 14.4081 27.0325Z" fill="#4285F4"/>
<path d="M45.5984 18.33C45.5984 23.3423 41.7034 27.0335 36.9277 27.0335C32.152 27.0335 28.2534 23.3387 28.2534 18.33C28.2534 13.285 32.1484 9.62646 36.9241 9.62646C41.6998 9.62646 45.5984 13.285 45.5984 18.33ZM41.8009 18.33C41.8009 15.1977 39.5412 13.0563 36.9241 13.0563C34.307 13.0563 32.0473 15.1977 32.0473 18.33C32.0473 21.4296 34.307 23.6037 36.9241 23.6037C39.5448 23.6037 41.8009 21.426 41.8009 18.33Z" fill="#EA4335"/>
<path d="M64.4706 18.33C64.4706 23.3423 60.5756 27.0335 55.7999 27.0335C51.0242 27.0335 47.1256 23.3387 47.1256 18.33C47.1256 13.285 51.0206 9.62646 55.7963 9.62646C60.572 9.62646 64.4706 13.285 64.4706 18.33ZM60.6731 18.33C60.6731 15.1977 58.4134 13.0563 55.7963 13.0563C53.1792 13.0563 50.9195 15.1977 50.9195 18.33C50.9195 21.4296 53.1792 23.6037 55.7963 23.6037C58.4134 23.6037 60.6731 21.426 60.6731 18.33Z" fill="#FBBC04"/>
<path d="M82.5287 10.1527V25.7777C82.5287 32.2056 78.7601 34.8442 74.3057 34.8442C70.1111 34.8442 67.5879 32.0096 66.6385 29.7012L69.9487 28.3184C70.537 29.7375 71.981 31.418 74.3057 31.418C77.1574 31.418 78.9262 29.6395 78.9262 26.3077V25.0555H78.7962C77.9443 26.1117 76.3055 27.0336 74.2407 27.0336C69.9162 27.0336 65.9526 23.2444 65.9526 18.3627C65.9526 13.452 69.9162 9.62646 74.2407 9.62646C76.3055 9.62646 77.9443 10.5484 78.7962 11.5719H78.9262V10.1527H82.5287ZM79.1861 18.3627C79.1861 15.2957 77.1538 13.0563 74.5656 13.0563C71.9449 13.0563 69.7501 15.2994 69.7501 18.3627C69.7501 21.3969 71.9449 23.6037 74.5656 23.6037C77.1538 23.6037 79.1861 21.3933 79.1861 18.3627Z" fill="#4285F4"/>
<path d="M89.0611 0.92041V26.5011H85.26V0.92041H89.0611Z" fill="#34A853"/>
<path d="M103.793 21.1973L106.742 23.1754C105.793 24.5945 103.497 27.0335 99.5336 27.0335C94.6207 27.0335 90.9496 23.208 90.9496 18.33C90.9496 13.1543 94.6532 9.62646 99.1077 9.62646C103.595 9.62646 105.789 13.2197 106.511 15.1651L106.905 16.1523L95.3391 20.965C96.2235 22.7108 97.5988 23.6037 99.5336 23.6037C101.465 23.6037 102.811 22.6491 103.793 21.1973ZM94.7182 18.065L102.45 14.8348C102.024 13.7459 100.747 12.9874 99.2412 12.9874C97.3064 12.9874 94.6207 14.7041 94.7182 18.065Z" fill="#EA4335"/>
</svg>
