<svg width="24" height="23" viewBox="0 0 24 23" fill="none" xmlns="http://www.w3.org/2000/svg">
<path d="M23.3829 13.824V22.3301H18.4848V14.3875C18.4848 12.3918 17.779 11.0334 16.0054 11.0334C15.4515 11.0373 14.9123 11.2128 14.462 11.5356C14.0118 11.8584 13.6726 12.3127 13.4908 12.8362C13.3639 13.225 13.3069 13.6333 13.323 14.042V22.3301H8.42977C8.42977 22.3301 8.49683 8.88506 8.42977 7.49142H13.3247V9.59614C13.3247 9.61291 13.3048 9.62801 13.2981 9.64645H13.3247V9.59614C13.7654 8.82231 14.4101 8.18442 15.1885 7.75206C15.9668 7.31969 16.849 7.10945 17.7387 7.14427C20.9707 7.14259 23.3829 9.26408 23.3829 13.824ZM3.31183 0.337065C2.96204 0.311211 2.61057 0.357284 2.27924 0.47241C1.94791 0.587535 1.64386 0.769295 1.38539 1.0065C1.12692 1.2437 0.91956 1.53132 0.776395 1.85166C0.63323 2.17199 0.557288 2.51825 0.552933 2.86911C0.548578 3.21998 0.615851 3.568 0.751021 3.89179C0.88619 4.21558 1.08623 4.50827 1.33873 4.75181C1.59124 4.99536 1.89111 5.18464 2.21949 5.30796C2.54786 5.43128 2.89766 5.48605 3.24799 5.4689H3.27827C3.63046 5.4966 3.98468 5.4514 4.31864 5.33614C4.6526 5.22087 4.95926 5.03801 5.21945 4.79895C5.47964 4.55989 5.68775 4.26976 5.8309 3.94665C5.97405 3.62355 6.04919 3.27442 6.0515 2.92101C6.05381 2.5676 5.98333 2.2175 5.84441 1.89255C5.70549 1.5676 5.50105 1.27479 5.244 1.03234C4.98696 0.789901 4.68258 0.603033 4.35015 0.483413C4.01773 0.363794 3.66435 0.313967 3.31183 0.337065ZM0.829191 22.3301H5.72408V7.48807H0.829191V22.3301Z" fill="white"/>
</svg>
