<svg width="101" height="23" viewBox="0 0 101 23" fill="none" xmlns="http://www.w3.org/2000/svg">
<path d="M69.3887 20.1441C69.325 20.146 69.262 20.1467 69.1984 20.1467C65.7952 20.1467 62.9945 17.3467 62.9945 13.9428C62.9945 10.5395 65.7952 7.7389 69.1984 7.7389C72.6017 7.7389 75.4023 10.5395 75.4023 13.9428C75.4296 17.2843 72.7296 20.0688 69.3887 20.1441ZM75.2588 0.663574V7.25254L74.7185 6.84214C73.0809 5.67851 71.1062 5.08176 69.0978 5.14345C64.288 5.19994 60.3426 9.1298 60.2666 13.9395C60.2666 18.2629 63.501 22.7376 68.9153 22.7376C70.9419 22.7908 72.9341 22.1973 74.6004 21.0428L75.2575 20.4986V22.2681H78.0711V3.82656L75.9627 0.668766L75.2588 0.663574Z" fill="#232323"/>
<path d="M81.2549 5.15137V22.2663H84.0679V8.3137L81.9581 5.15137H81.2549Z" fill="#232323"/>
<path d="M33.8724 5.15384C31.5497 5.15384 29.5867 6.09085 28.5608 7.67072C27.5114 6.06813 25.5919 5.15384 23.2478 5.15384C22.138 5.14995 21.0491 5.46099 20.1088 6.0506V5.62657H17.2971V14.8292L19.4043 17.9824H20.1127V11.7383C20.125 9.26229 21.8302 7.96748 23.5088 7.96748C24.6049 7.96748 27.1562 8.38631 27.1562 12.2727V22.2584H29.9724V12.2727C29.9724 8.38631 32.5257 7.96748 33.6224 7.96748C35.3108 7.96748 37.0192 9.27202 37.0192 11.7642V22.2668H39.8302V11.7266C39.8302 7.21098 36.7452 5.15384 33.8763 5.15384" fill="#232323"/>
<path d="M10.8667 14.4662C10.9413 15.8831 10.5232 17.2831 9.68419 18.4272C8.91017 19.3629 7.73614 19.8779 6.52381 19.8142C5.7303 19.8623 4.94718 19.6071 4.33484 19.0999C3.80173 18.5785 3.52315 17.8487 3.57315 17.1045C3.51601 16.2662 3.90367 15.4565 4.59199 14.974C5.58874 14.4078 6.7303 14.148 7.8738 14.2266H10.8667V14.4662ZM13.153 7.63827C12.5277 6.79996 11.6848 6.14866 10.716 5.75515C9.58614 5.31944 8.38095 5.10969 7.16991 5.13891C6.26926 5.14281 5.37186 5.23957 4.49134 5.42658C3.96277 5.53632 3.41341 5.68632 2.85173 5.86035L2.23095 6.09152L3.979 8.68373L4.58289 8.44606C5.4251 8.20969 6.29523 8.08762 7.16991 8.08372C8.1777 7.99281 9.18549 8.26943 10.0056 8.86294C10.6348 9.54865 10.9472 10.4681 10.8667 11.3954V11.4603H7.6725C5.27705 11.4603 3.42445 11.9538 2.16536 12.9272C0.932246 14.0318 0.227051 15.611 0.227051 17.2668C0.227051 18.7461 0.790037 20.1714 1.80173 21.2506C2.94069 22.2714 4.43614 22.8039 5.96407 22.7337C7.10238 22.7649 8.2316 22.5168 9.25238 22.011C9.87056 21.6792 10.4186 21.2305 10.8667 20.6902V22.2603H14.2277V12.7876C14.255 11.7019 14.1751 10.6168 13.9907 9.54671C13.8537 8.8571 13.5673 8.20581 13.153 7.63827Z" fill="#232323"/>
<path d="M97.4595 14.5894C97.5498 15.9654 97.1024 17.3245 96.2114 18.3771C95.3309 19.4901 93.9907 20.1433 92.5718 20.1518C91.4952 20.1518 90.6075 20.0394 90.0446 19.4375C89.4991 18.9518 89.1978 18.2479 89.2225 17.518C89.1511 16.6628 89.5621 15.8349 90.2868 15.3752C91.0998 14.8128 92.3718 14.5907 93.9777 14.5907H97.4595V14.4966V14.5894ZM99.9868 9.44789C99.8556 8.78035 99.5796 8.15049 99.1783 7.60114C98.5679 6.78036 97.7426 6.14465 96.7939 5.76283C95.6621 5.32647 94.455 5.11738 93.242 5.14854C92.3296 5.15244 91.4199 5.25049 90.5277 5.44075C89.7796 5.59919 89.042 5.80503 88.3199 6.05633L89.8446 8.33944C90.0692 8.26087 90.2939 8.18945 90.5218 8.12517C91.4459 7.86088 92.4017 7.72517 93.3627 7.72192C94.8283 7.72192 95.8952 8.02387 96.5627 8.62711C97.2303 9.22906 97.4465 9.96023 97.4575 11.2959V11.7284H93.766C91.342 11.7284 89.505 12.2122 88.255 13.1797C87.0601 14.2602 86.3777 15.7985 86.3777 17.4096C86.3777 18.8498 86.9231 20.2381 87.9043 21.2933C89.0218 22.292 90.4894 22.8109 91.9861 22.7362C93.1705 22.8044 94.355 22.6011 95.4491 22.1427C96.2712 21.7375 96.9673 21.1148 97.4621 20.3433V22.2615H100.23V12.7459C100.259 11.6414 100.178 10.5368 99.9894 9.44789" fill="#232323"/>
<path d="M44.7296 12.1329C45.2646 9.50755 47.6412 7.63417 50.3192 7.72703C52.9607 7.62508 55.3341 9.40235 55.9795 11.966L56.049 12.3114H44.6854C44.7003 12.2465 44.7159 12.1816 44.7283 12.1329H44.7296ZM50.5296 20.1751C47.6347 20.2036 45.1166 18.1205 44.601 15.2718C44.601 15.2686 44.5542 14.9887 44.5276 14.7712L58.825 14.7679L58.8075 14.2192C58.6393 8.26729 54.6653 5.1543 50.8276 5.1543C44.8315 5.1543 41.5964 9.68352 41.5964 13.9465C41.5964 18.2095 44.8289 22.7361 50.8231 22.7407H50.8289C52.7776 22.6666 54.6614 22.0166 56.2419 20.8738C56.8594 20.4062 57.4036 19.8491 57.8568 19.2205L57.9679 19.0653C58.2477 18.6647 58.499 18.2452 58.7211 17.8101H55.8581C54.5386 19.3712 52.5724 20.2439 50.5296 20.1751Z" fill="#232323"/>
</svg>
