<svg width="127" height="27" viewBox="0 0 127 27" fill="none" xmlns="http://www.w3.org/2000/svg">
<path d="M5.90771 11.3482C5.90771 9.6214 5.8604 9.35773 5.11325 9.27581L4.42263 9.24984C2.98487 9.21119 1.92731 8.93944 1.28401 8.43403C0.303767 7.66553 -0.0112489 6.68183 0.420312 5.66235C0.569273 5.31939 0.795083 5.01527 1.0803 4.77347C1.36551 4.53168 1.70249 4.35868 2.0652 4.26786C3.92588 3.73706 5.70924 4.26786 7.43144 4.80731C8.23514 5.07155 9.05441 5.28618 9.88349 5.45061L10.0179 5.47657C11.4857 5.74024 14.9266 6.34027 16.0621 4.66076C16.3298 4.2592 16.1313 4.01342 15.8982 3.72841C15.7664 3.58635 15.6649 3.41889 15.5999 3.23627C15.4661 2.74816 15.8076 2.35122 16.1353 1.96235C16.4636 1.57407 16.7613 1.22847 16.6794 0.796911L16.8219 0.749023C17.9314 2.85202 17.3141 3.93957 17.081 4.34575L17.0117 4.4796C17.0117 4.6048 16.9558 5.06636 16.2305 5.66235C14.9353 6.74125 13.3204 6.63798 11.7707 6.52605L11.2826 6.49547C10.1529 6.403 9.03584 6.19321 7.94954 5.86948L6.85737 5.55446C5.36826 5.1229 3.96107 4.69076 2.43215 5.07098C2.1453 5.11975 1.87848 5.24984 1.6634 5.4458C1.44832 5.64176 1.29401 5.89534 1.21881 6.17642C1.10919 6.59413 1.20728 7.03896 1.48248 7.37186C2.12117 8.11036 2.88101 8.26152 4.33205 8.3221H6.24465C7.0218 8.30018 7.80704 8.3221 8.71805 8.3221H9.65098C11.0839 8.27762 12.5138 8.48061 13.8777 8.92214C14.9712 9.30918 15.9165 10.0282 16.5813 10.9788C17.2461 11.9293 17.5973 13.0638 17.5858 14.2238C17.6158 15.3453 17.3229 16.4519 16.7419 17.4118C16.1609 18.3717 15.3163 19.1443 14.3087 19.6379C13.1433 20.2206 11.6801 20.501 9.71098 20.501C9.25807 20.501 8.79593 20.471 8.3511 20.4404C8.0063 20.4136 7.66072 20.3978 7.3149 20.3931C6.45178 20.3931 5.54077 20.3931 4.50456 20.4491H4.49591C4.44188 20.3922 4.40138 20.3238 4.3774 20.2491C4.35343 20.1744 4.34661 20.0952 4.35744 20.0175C4.35446 19.9537 4.3657 19.89 4.39035 19.831C4.41499 19.772 4.45242 19.7193 4.49994 19.6765L5.05728 19.586C5.81713 19.4521 5.9204 19.3702 5.9204 17.7293L5.90771 11.3482ZM8.64939 17.2678C8.64939 18.2688 8.68804 18.5624 8.98979 18.9207C9.18136 19.1009 9.40901 19.2382 9.65767 19.3238C9.90633 19.4093 10.1703 19.4411 10.4322 19.4169C13.4543 19.4169 14.5378 16.827 14.5378 14.3703C14.5378 11.219 12.9361 9.68602 9.63771 9.68602C9.10229 9.68602 8.82997 9.79853 8.77459 9.88911C8.6661 10.2111 8.62774 10.5526 8.66208 10.8907L8.64939 17.2672V17.2678Z" fill="#232323"/>
<path d="M4.32332 8.4818H4.20677C4.14619 8.71027 4.09023 8.87874 4.021 9.09048H4.51718C4.58237 8.88855 4.62622 8.67969 4.64699 8.46853L4.32332 8.4818ZM6.05418 16.6151V17.1419C6.42112 17.6427 6.37381 18.3592 6.69344 18.8993L6.5769 18.9293C6.42782 18.7505 6.24413 18.6037 6.03687 18.4977C6.02966 18.654 6.01232 18.8098 5.98494 18.9639C6.11995 19.1468 6.32881 19.2593 6.55497 19.2708C6.85314 19.5383 7.08402 19.8724 7.22885 20.2459H7.74234C7.46194 19.8143 7.3754 19.3095 6.96519 18.9246C6.90518 18.0015 6.90518 17.1984 6.05418 16.6151ZM4.57776 19.8143H4.53968C4.49007 19.8733 4.46525 19.9492 4.47044 20.026V20.052C4.46515 20.1394 4.48955 20.226 4.53968 20.2978L5.62319 20.2678C5.42852 20.0893 5.19263 19.9618 4.93662 19.8968C4.81305 19.8936 4.69139 19.8656 4.57891 19.8143H4.57776ZM9.4957 19.426C9.25796 19.3445 9.04423 19.2051 8.87375 19.0204C8.61818 18.7104 8.48735 18.3163 8.5068 17.915C8.12427 17.205 7.83402 16.449 7.64311 15.6654C7.37136 15.1041 7.4354 14.3961 7.05173 13.8867C7.13366 13.1055 6.91788 12.4403 6.86595 11.7283C6.77133 11.655 6.83595 11.5298 6.79268 11.396C6.7194 10.6056 6.56363 9.44877 7.095 8.67161C7.125 8.59373 7.13827 8.53776 7.16423 8.46391H6.56824C6.47661 8.63238 6.40423 8.81063 6.35246 8.99528C6.14476 10.1088 5.99821 10.9598 6.53766 11.9827C6.76671 12.8464 6.67152 13.8434 6.90057 14.7071C7.27616 15.0394 7.06904 15.7779 7.37944 16.2268C7.61714 16.3001 7.52656 16.6584 7.59983 16.8528C7.73369 17.319 8.12255 17.7679 7.97543 18.256C8.50623 18.7781 8.8824 19.4647 9.4132 19.9828C9.43166 20.112 9.47089 20.2378 9.52974 20.3543H10.1344C10.102 20.2399 10.063 20.1274 10.0178 20.0174C9.84937 19.8097 9.67686 19.6378 9.49512 19.426H9.4957ZM9.33531 8.65834C9.15167 8.96446 9.00671 9.29217 8.90375 9.63397C9.08895 9.57974 9.2805 9.55031 9.47378 9.54743C9.55166 9.33222 9.59032 9.29357 9.65956 9.09048C9.79341 8.96528 9.87534 8.9047 9.81533 8.74893C9.89264 8.77489 10.0092 8.55507 10.0438 8.46045H9.45647C9.46512 8.52045 9.32261 8.53776 9.33531 8.65834ZM11.8352 19.3481C11.9045 19.6504 11.9604 19.8882 12.0297 20.2118C12.2166 20.1801 12.3978 20.1455 12.5737 20.108C12.5041 19.7827 12.4508 19.4542 12.4139 19.1237C12.2276 19.2147 12.0341 19.29 11.8352 19.3487V19.3481ZM16.8392 15.2945L16.6188 14.2236C16.4376 14.1677 16.4549 14.0252 16.4376 13.8434C16.5472 13.6473 16.6326 13.439 16.692 13.222C16.692 13.1788 16.9124 12.8811 16.9517 12.8205C17.0232 12.6647 17.0751 12.5008 17.1069 12.3324C16.9808 11.9738 16.8172 11.6296 16.6188 11.3054C16.6297 11.5287 16.6165 11.7531 16.5801 11.9747C16.3943 12.2851 16.4549 12.4576 16.4895 12.8118C16.4984 12.8816 16.4819 12.9523 16.443 13.011C16.4041 13.0696 16.3455 13.1124 16.2778 13.1315L16.1739 13.1009C16.0574 12.6134 16.1739 12.1512 15.8116 11.6464L15.7337 10.2173C15.5619 10.0616 15.3802 9.91723 15.1896 9.78513C15.1596 10.9552 15.5439 12.2026 15.44 13.4338C15.7943 14.474 15.9708 15.4416 16.5541 16.4299C16.6424 16.6572 16.7134 16.8909 16.7659 17.1292C16.9194 16.8332 17.0469 16.5234 17.1455 16.2055C16.9784 15.9275 16.8738 15.6164 16.8392 15.2939V15.2945ZM15.6951 17.3923C15.3714 16.9607 15.4227 16.4559 15.2162 16.071C15.3108 15.8426 15.0085 15.7387 15.1423 15.5535C14.9127 14.9368 14.7676 14.2919 14.7108 13.6363C14.6815 13.5981 14.6554 13.5576 14.6329 13.5151C14.731 14.3719 14.6848 15.2391 14.4944 16.0803C14.7281 16.8488 14.9266 17.5913 15.1383 18.3638C15.1383 18.3938 15.1383 18.4458 15.095 18.4677C15.1804 18.6056 15.2168 18.7677 15.1989 18.9293C15.4256 18.7602 15.6391 18.574 15.8376 18.3725C15.7996 18.0807 15.7404 17.792 15.6604 17.5088L15.6951 17.3923ZM14.3652 12.2551C14.3652 12.1039 14.3652 11.9481 14.3265 11.7929C14.1506 10.9411 14.1112 10.0666 14.21 9.20241C14.0802 9.14645 13.9504 9.09048 13.8171 9.04259L13.6959 9.00394C13.5837 9.61794 13.5244 10.2405 13.5188 10.8646C13.8975 11.2619 14.1862 11.7362 14.3652 12.2551ZM12.4999 10.1394C12.5824 9.90168 12.4612 9.74648 12.6684 9.5607C12.6663 9.29176 12.7042 9.02401 12.7809 8.76623L12.2887 8.67161C12.1936 9.09939 12.12 9.53169 12.0683 9.96687C12.2155 10.0171 12.3591 10.0742 12.4999 10.1394ZM13.8644 17.7032C13.6976 17.984 13.4975 18.2436 13.2684 18.4763C13.3549 18.9552 13.4415 19.3395 13.5188 19.8276C13.7334 19.7526 13.944 19.666 14.1494 19.5679C14.1196 19.1108 14.056 18.6564 13.959 18.2086C13.963 18.0356 13.9302 17.8636 13.8644 17.7032ZM10.6565 8.87412C10.6371 9.1204 10.5714 9.36078 10.4627 9.58262C10.6525 9.59993 10.8354 9.62301 11.0108 9.65186C11.0647 9.28661 11.1558 8.92781 11.2825 8.58103L11.3044 8.52045L10.8723 8.48583C10.8143 8.53251 10.7675 8.59165 10.7354 8.65886C10.7034 8.72608 10.6869 8.79965 10.6871 8.87412H10.6565ZM11.2652 19.4952C11.0797 19.528 10.8925 19.5496 10.7044 19.5599C10.7448 19.7935 10.7679 20.0307 10.7737 20.2678C10.7946 20.2857 10.8134 20.3061 10.8296 20.3284L11.3258 20.2897C11.2525 19.9955 11.3604 19.7283 11.2652 19.4952Z" fill="white"/>
<path d="M7.39732 11.1624C7.63733 11.722 7.7608 12.3243 7.75965 12.9324C7.74292 13.6334 7.97889 14.3171 8.42487 14.8583L8.49411 14.9316V13.956C8.40295 13.5244 8.42487 13.045 8.09197 12.7167H8.13524C8.13524 12.1772 8.17851 11.2922 7.94946 10.7608C7.94946 10.7089 7.89754 10.6875 7.87619 10.6448C7.84918 9.87147 8.0537 9.10765 8.46353 8.45125H7.92408C7.58474 9.00426 7.39028 9.63388 7.35866 10.2819C7.40309 10.5733 7.41636 10.8687 7.39732 11.1624ZM6.84864 16.2655C6.97384 16.2655 7.05173 16.063 7.05173 15.9551C6.82268 15.523 6.40842 15.2039 6.2613 14.8197C6.34858 14.1536 6.27924 13.4764 6.05879 12.8419V15.2685C6.28726 15.7047 6.71479 15.7001 6.84922 16.2655H6.84864ZM5.25163 8.48183C5.21374 8.51085 5.18282 8.54799 5.16116 8.59052C5.13949 8.63305 5.12763 8.6799 5.12643 8.72761C5.14034 8.86111 5.14034 8.99568 5.12643 9.12917C5.30356 9.13956 5.47722 9.18687 5.63588 9.26764C5.66704 8.9982 5.72243 8.73223 5.79974 8.47318L5.25163 8.48183ZM3.455 8.4126C3.39038 8.62838 3.36442 8.80089 3.28711 8.99936L3.74463 9.05128C3.79252 8.85166 3.8231 8.64742 3.83521 8.4426L3.45558 8.4126H3.455Z" fill="white"/>
<path d="M51.8008 12.1602C50.415 12.1602 49.0338 11.6986 49.0338 10.7051C49.0338 9.71277 50.2425 9.07812 51.6243 9.07812C53.0055 9.07812 54.1063 9.50911 54.2148 10.6751C54.2921 11.4782 53.182 12.1602 51.8008 12.1602ZM48.2866 15.2902C47.855 13.9089 49.3788 10.6619 47.885 10.0145C47.6444 9.9238 47.3866 9.88796 47.1304 9.90962C46.8741 9.93128 46.626 10.0099 46.404 10.1397C44.6339 11.0034 42.3503 13.4295 42.3503 15.1909C42.3503 16.8491 45.4763 19.3917 46.0417 19.6681C47.2677 20.3547 48.3599 20.0091 48.7787 19.2925C49.1976 18.5759 48.6668 16.4516 48.2866 15.2902ZM51.9047 16.5122C53.3765 16.5122 54.5725 15.8256 54.5725 14.9792C54.5725 14.1334 53.3424 13.628 51.8701 13.628C50.3977 13.628 49.4953 14.2194 49.4953 15.0657C49.4953 15.9121 50.4323 16.5122 51.9047 16.5122ZM51.9001 20.7083C53.3851 20.7083 54.5598 20.1129 54.5598 19.154C54.5598 18.1963 53.5017 17.6822 52.0166 17.6822C50.5315 17.6822 49.3395 18.2949 49.3395 19.2538C49.3395 20.2116 50.4196 20.7083 51.9001 20.7083Z" fill="#232323"/>
<path d="M124.729 5.53299L124.5 4.71257L124.557 3.98734L125.122 3.31807L125.317 3.08902L126.141 2.61881L125.907 1.29297L125.696 1.39682V1.87569L125.933 2.55823C125.933 2.55823 125.459 2.8992 125.281 2.79535C125.104 2.6915 125 1.62125 125 1.62125L124.789 1.72511L125.048 3.02037L124.707 3.45193L124.181 4.18581L124.284 5.48107L122.898 7.86388L122.863 8.98259L124.012 11.0631C124.089 11.4 124.063 16.4732 124.063 16.4732C121.854 14.1804 120.554 11.8189 118.529 9.33627C117.913 9.41819 117.294 9.4632 116.673 9.47012C115.964 9.47012 115.136 9.40088 114.328 9.33627V9.57397L115.559 10.0961C115.824 10.1884 115.998 10.4417 115.99 10.7221C116.055 11.3839 116.084 12.0479 116.077 12.7126V16.7968C116.077 17.9623 116.042 19.5126 115.99 19.8189L114.048 20.7905L113.309 21.6063L113.482 22.7285L115.209 23.7647L116.526 23.3331L117.221 22.2277L117.07 21.6104H116.176L115.801 21.8308L116.616 22.1071L115.982 22.9275L114.859 22.8883L114.406 22.0511L115.127 21.0749L116.621 20.6434H117.389L118.089 20.8551C118.506 20.9526 118.931 21.019 119.358 21.0536V20.8205L118.533 20.5482L117.424 19.6851C117.367 19.3095 117.329 17.7511 117.329 16.7882V12.0993C119.841 14.8975 121.646 17.4788 124.094 20.3024H125.359C125.307 17.7119 125.29 11.4214 125.307 11.2096L126.196 9.39685L126.231 7.54021L124.729 5.53242L124.729 5.53299Z" fill="#232323"/>
<path d="M125.049 9.67356L125.299 9.69491L125.662 8.60735L124.997 8.47754L125.049 9.67356ZM124.565 9.69087L124.315 9.73414L123.862 8.68063L124.518 8.49485L124.565 9.69087ZM123.102 17.924L123.192 15.8989L121.5 15.9641L121.72 14.254L120.196 14.0036L120.17 12.35L120.183 12.0437L118.707 12.1516L118.983 10.3515L116.768 10.554L116.608 10.7098L118.577 10.7011L118.288 12.5099L119.821 12.5318L119.877 14.2107L120.028 14.2326L121.306 14.5436L121.163 16.1879L122.817 16.2399L122.921 18.0792L123.102 17.924Z" fill="white"/>
<path d="M64.9087 21.0626L63.9758 20.3414C63.4536 20.0523 62.9919 19.6654 62.6159 19.2019V14.0815C62.8361 14.3917 63.1274 14.6446 63.4655 14.8192C63.8035 14.9937 64.1784 15.0848 64.5588 15.0848C64.9392 15.0848 65.3141 14.9937 65.6521 14.8192C65.9901 14.6446 66.2814 14.3917 66.5017 14.0815C66.2726 14.6515 66.9332 15.1084 65.8365 15.6877C66.3624 15.6374 66.8654 15.4482 67.2941 15.1393C67.7228 14.8305 68.0616 14.4132 68.2758 13.9303C68.4875 13.4987 69.4632 9.38854 64.4852 9.43585C63.4687 9.47727 62.4514 9.37549 61.4631 9.13352C59.8188 8.52945 56.4333 7.19496 58.5149 0.995605C54.3222 6.3705 58.2466 9.63028 59.8096 10.127C57.1112 10.0491 55.8852 9.15545 55.8159 5.65392C54.3009 9.59162 57.0852 11.5862 59.6411 11.3831C58.5316 12.0223 56.8827 11.8406 55.6694 10.2909C55.7085 10.7831 55.8708 11.2575 56.1413 11.6705C56.4118 12.0836 56.7819 12.422 57.2174 12.6545C57.6529 12.8871 58.1399 13.0064 58.6336 13.0015C59.1273 12.9966 59.6119 12.8676 60.0427 12.6264V19.2792C59.5833 19.7154 59.0458 20.061 58.4584 20.2981L57.4008 20.8076L57.4481 20.9287L58.5443 20.4972C59.091 20.5222 59.638 20.538 60.1852 20.5445C60.5048 20.8462 60.7945 21.1791 61.0489 21.5374C61.1983 22.0146 61.3876 22.4779 61.6143 22.9233L61.7701 22.8627C61.5767 22.079 61.6859 21.2512 62.0759 20.5445C62.6851 20.5705 63.1427 20.5745 63.7473 20.6137L64.7916 21.1405L64.9087 21.0626Z" fill="#232323"/>
<path d="M65.6811 13.0112C66.2416 13.0112 66.696 12.5568 66.696 11.9963C66.696 11.4358 66.2416 10.9814 65.6811 10.9814C65.1206 10.9814 64.6663 11.4358 64.6663 11.9963C64.6663 12.5568 65.1206 13.0112 65.6811 13.0112Z" fill="white"/>
<path d="M65.7024 12.5904C66.0211 12.5904 66.2794 12.3321 66.2794 12.0135C66.2794 11.6948 66.0211 11.4365 65.7024 11.4365C65.3838 11.4365 65.1255 11.6948 65.1255 12.0135C65.1255 12.3321 65.3838 12.5904 65.7024 12.5904Z" fill="#232323"/>
<path d="M95.4537 4.30625C95.8778 4.1972 96.3116 4.12739 96.749 4.09912C98.2294 4.19836 96.5026 5.13129 97.3098 5.10071C98.1175 5.07071 98.0656 4.50068 98.6396 4.60453C99.2137 4.70838 99.0372 5.25649 99.572 5.31649C100.816 5.45034 100.436 4.9282 102.625 5.55016C100.336 5.23053 100.211 5.80921 99.3435 5.93441C98.7562 6.01633 99.0152 5.48092 98.6137 5.41169C98.2121 5.34245 97.8325 6.03364 97.0467 6.08961C96.2609 6.14557 96.8955 5.5415 96.5759 5.42496C96.2568 5.30841 95.4404 5.72267 95.4404 5.72267L95.4537 4.30625Z" fill="#232323"/>
<path d="M95.2119 4.30664H95.7889V8.36089H95.2119V4.30664Z" fill="#232323"/>
<path d="M91.9136 8.32227V20.3154H96.1484V16.0113L99.3782 20.3373H100.889L96.9342 14.8886L100.402 9.72484H98.912L95.9805 13.9735V8.32227H95.2074V9.71676H94.4216V8.32227H93.4892V9.71676H92.708V8.32227H91.9136Z" fill="#232323"/>
<path d="M90.4585 10.2687C89.694 10.6229 89.1286 11.0418 88.3468 11.0505C86.0113 11.0764 85.8474 9.19382 85.2041 10.0402C83.5466 12.1986 82.9679 12.5401 82.9679 15.6961C82.5704 13.7269 82.5363 12.8765 82.9073 11.9615C83.1006 11.527 83.2679 11.0816 83.4081 10.6275C83.4081 10.541 83.4081 10.3939 83.3088 10.3939C83.2884 10.3939 83.2681 10.3979 83.2492 10.4057C83.2303 10.4136 83.2132 10.425 83.1987 10.4395C83.1842 10.454 83.1728 10.4711 83.1649 10.49C83.1571 10.5089 83.1531 10.5292 83.1531 10.5497C82.3459 13.2221 82.0696 11.7843 82.7734 16.2442C82.7734 16.2742 82.5877 15.7434 82.5923 15.7734L81.7592 13.5717L81.5434 13.2567C81.5434 13.2567 81.4655 13.0017 81.2884 13.1961C80.9561 13.6074 80.6667 14.0514 80.4247 14.5214C80.2089 14.9143 79.3804 15.433 79.9112 15.3032C80.3072 15.0295 80.6797 14.7233 81.0247 14.3875C81.2082 14.6708 81.3536 14.9772 81.4568 15.2991C81.4955 15.5703 82.2726 18.3685 82.2726 19.504C82.2726 19.7497 82.2726 19.8882 82.0569 20.0434C81.5538 20.1519 81.0426 20.2211 80.5285 20.2511L80.5804 20.6434C83.9441 19.9396 84.7293 20.6048 86.8923 20.7081L86.7625 20.2378C85.5884 20.2378 85.5497 20.2811 85.0662 20.108C84.8664 20.0377 84.6907 19.9118 84.5599 19.7451C84.4291 19.5784 84.3486 19.3779 84.3277 19.167C84.2718 18.8087 84.2458 18.256 84.2239 18.0443C83.857 14.4695 84.9411 12.3976 85.3986 12.2032C85.5797 12.1253 86.8963 12.8592 87.3544 12.8292C88.3341 12.7819 91.2223 9.91501 90.4585 10.2687Z" fill="#232323"/>
<path d="M83.2961 8.10176C83.1561 8.27601 83.0317 8.46233 82.9246 8.65852C82.7208 9.08474 82.5757 9.53654 82.493 10.0017C82.493 10.3467 82.7388 10.9121 82.8853 10.9554C83.0371 11.0148 83.205 11.0148 83.3561 10.9554C83.5788 10.8446 83.7728 10.6836 83.9227 10.485C84.0726 10.2865 84.1743 10.0558 84.2198 9.81127C84.2781 9.38202 84.2914 8.94815 84.2585 8.51601C84.2325 8.36946 84.2066 7.92463 84.2025 7.88598C84.1985 7.84732 84.1592 7.75212 84.1246 7.78674C84.09 7.82136 83.8529 8.29619 83.7536 8.42543C83.6544 8.55524 83.2355 8.77102 83.1363 8.94353C83.0371 9.11662 83.2961 8.77045 83.3221 8.64582C83.3475 8.52063 83.3821 8.15368 83.3954 8.04118C83.4081 7.92925 83.3221 7.94194 83.3221 7.94194L83.2961 8.10176ZM28.241 9.99705C28.241 9.40567 27.5544 9.4576 27.585 9.99705C27.3906 9.35836 26.8165 9.56549 26.8811 9.94512L27.1015 10.7182L27.0582 16.827C26.8828 17.127 26.6146 17.3618 26.2943 17.4963C25.4047 18.1009 23.2423 17.8978 22.7969 17.4963C22.2701 16.9482 23.5394 10.6536 23.5394 10.6536L23.8417 9.8805C23.7898 9.36701 23.259 9.44894 23.1378 9.94108C22.9699 9.31047 22.5638 9.50895 22.434 9.90185C22.2401 9.41836 21.8472 9.44029 21.7306 9.8805L21.8472 10.4113C21.8472 10.4113 21.122 14.7633 20.9189 17.3192L20.2842 17.2586C20.2842 17.2586 20.5133 16.6285 19.9219 16.4647C19.8033 16.4261 19.6754 16.4263 19.5569 16.4652C19.4383 16.5041 19.3353 16.5798 19.2627 16.6813C19.19 16.7827 19.1516 16.9046 19.1529 17.0294C19.1542 17.1541 19.1952 17.2752 19.2699 17.3751C19.1194 17.6382 19.0392 17.9359 19.0369 18.2388C18.9828 18.5501 19.0111 18.8701 19.1188 19.1671C18.8124 19.53 18.7386 20.0695 19.1834 20.2939C19.6969 20.553 20.0471 19.8624 20.0471 19.7285L21.0441 19.927L21.9078 20.2812C24.2214 21.0151 27.9739 18.8821 27.9739 18.8821C28.3275 20.6868 28.3275 22.7373 27.896 23.7176C27.0669 26.0358 22.3745 26.4119 21.2945 25.1121C21.1625 24.9339 21.0819 24.7231 21.0614 24.5023C21.0408 24.2816 21.0811 24.0595 21.1779 23.8601C21.4722 23.2814 22.9307 22.4869 24.5156 22.6987C24.6117 22.7136 24.7037 22.7486 24.7854 22.8014C24.8672 22.8541 24.937 22.9234 24.9903 23.0048C25.0436 23.0862 25.0792 23.1779 25.0948 23.274C25.1105 23.37 25.1058 23.4683 25.081 23.5624C24.9172 24.5293 23.7858 24.8876 23.4575 24.6759C22.9873 24.3868 24.0229 23.8128 24.0229 23.8128L23.2809 23.4585C22.6717 24.0153 22.1709 24.9309 23.2809 25.0821C25.9141 25.449 26.2597 22.4183 25.0424 22.06C24.5116 21.9088 21.9984 21.753 20.725 23.2773C20.5126 23.5197 20.3711 23.816 20.3162 24.1336C20.2612 24.4512 20.2949 24.7778 20.4135 25.0774C20.6858 25.8979 21.9897 26.42 23.3928 26.5325C25.5045 26.701 28.4054 25.9365 28.8929 22.9877C29.152 21.4221 29.0831 19.8197 28.6904 18.2821C28.7331 17.9965 28.7516 17.7074 28.7464 17.4184C28.7677 16.771 28.5693 10.653 28.5693 10.653L28.9016 9.98378C28.9928 9.73396 28.5912 9.30643 28.241 9.99705Z" fill="#232323"/>
<path d="M20.8284 19.2058C21.0192 19.2308 21.2125 19.1848 21.3717 19.0766C21.5309 18.9685 21.6449 18.8057 21.6921 18.6191C21.6997 18.513 21.6862 18.4064 21.6526 18.3056C21.6189 18.2047 21.5657 18.1114 21.4959 18.0312C21.4261 17.9509 21.3411 17.8853 21.2459 17.8379C21.1506 17.7906 21.047 17.7625 20.9409 17.7554H20.9149L20.8284 19.2058ZM20.6299 19.1799C20.4378 19.1471 20.2648 19.0443 20.1443 18.8912C20.0239 18.7381 19.9646 18.5457 19.9779 18.3514C20.0175 18.1816 20.1141 18.0307 20.2517 17.9237C20.3893 17.8168 20.5595 17.7604 20.7337 17.764L20.6299 19.1799Z" fill="white"/>
<path d="M19.7793 18.5006C20.098 18.5006 20.3563 18.2423 20.3563 17.9236C20.3563 17.605 20.098 17.3467 19.7793 17.3467C19.4607 17.3467 19.2024 17.605 19.2024 17.9236C19.2024 18.2423 19.4607 18.5006 19.7793 18.5006Z" fill="white"/>
<path d="M19.7188 19.3941C20.0374 19.3941 20.2958 19.1358 20.2958 18.8172C20.2958 18.4985 20.0374 18.2402 19.7188 18.2402C19.4002 18.2402 19.1418 18.4985 19.1418 18.8172C19.1418 19.1358 19.4002 19.3941 19.7188 19.3941Z" fill="white"/>
<path d="M112.813 19.0244C112.44 18.9818 112.063 19.0462 111.725 19.2102C111.816 18.9563 111.871 18.6927 111.889 18.4244C111.768 17.0645 110.858 16.7622 110.595 16.8268C110.43 17.4316 110.353 18.0568 110.365 18.6834C110.365 18.8519 110.495 19.5465 110.495 19.5465C109.857 19.7779 109.184 19.8991 108.504 19.9054C106.502 19.7237 105.819 18.0707 105.694 17.0339C105.539 15.7046 106.018 14.7723 106.618 14.3488C106.618 14.3488 108.039 14.9702 109.148 14.4094C109.161 14.6667 109.333 14.8888 109.58 14.9661C109.856 14.973 110.128 14.9009 110.365 14.7584C110.271 14.7055 110.19 14.6325 110.127 14.5447C110.064 14.4569 110.021 14.3563 110.002 14.2502C109.982 14.144 109.985 14.0348 110.012 13.9302C110.039 13.8256 110.089 13.7282 110.158 13.6449C110.158 13.6449 110.421 14.5346 111.156 14.6638C111.396 14.7071 111.644 14.6828 111.872 14.5946C111.872 14.5946 112.822 14.0638 111.872 13.7614C111.985 13.3269 111.985 12.8707 111.872 12.4362C111.471 10.4676 109.364 9.68181 109.239 9.65123C108.241 9.37284 107.191 9.3388 106.177 9.552C104.641 8.57695 101.934 9.69046 101.325 10.8473C101.973 11.3088 102.931 11.7323 102.849 11.8362C102.091 12.751 101.686 13.9079 101.709 15.0959C101.709 18.6361 103.868 20.9757 107.637 21.0062C108.77 21.0287 109.89 20.753 110.884 20.2072C111.297 20.2879 111.715 20.3381 112.136 20.3583C112.721 20.3475 113.303 20.2544 113.862 20.082C113.808 19.8232 113.681 19.5857 113.494 19.398C113.308 19.2103 113.072 19.0806 112.813 19.0244Z" fill="#232323"/>
<path d="M106.58 10.7828C106.374 11.1047 106.25 11.4722 106.22 11.8529C106.189 12.2337 106.252 12.6162 106.403 12.9671C106.496 13.2185 106.647 13.4446 106.843 13.6274C107.04 13.8103 107.276 13.9449 107.533 14.0206C107.559 14.0222 107.585 14.0144 107.606 13.9985C107.627 13.9825 107.641 13.9597 107.646 13.9341C107.651 13.9095 107.646 13.8839 107.632 13.8629C107.618 13.8419 107.597 13.8273 107.572 13.8222C107.35 13.7516 107.148 13.6301 106.982 13.4674C106.816 13.3047 106.69 13.1053 106.614 12.8852C106.475 12.5635 106.417 12.2125 106.445 11.8631C106.474 11.5137 106.588 11.1767 106.778 10.882C106.786 10.8571 106.786 10.8302 106.776 10.8057C106.767 10.7813 106.749 10.7609 106.726 10.7481C106.699 10.7367 106.669 10.7342 106.64 10.7412C106.611 10.7481 106.585 10.7641 106.566 10.7868L106.579 10.7828H106.58Z" fill="white"/>
<path d="M109.71 12.4C110.028 12.4 110.286 12.1417 110.286 11.823C110.286 11.5044 110.028 11.2461 109.71 11.2461C109.391 11.2461 109.133 11.5044 109.133 11.823C109.133 12.1417 109.391 12.4 109.71 12.4Z" fill="white"/>
<path d="M78.5599 20.2633C77.8947 18.2434 78.0677 16.6458 77.5064 14.7159C77.4804 13.7789 77.2387 13.0197 77.1308 12.0821V12.0435C77.4931 12.0435 77.8606 11.9142 78.2189 11.8663C78.2749 11.8663 78.3181 11.7152 78.3181 11.6592C78.3181 11.6032 78.2489 11.4515 78.197 11.4515L77.5364 11.56C77.3939 11.5859 77.23 11.5986 77.1048 11.6119C77.0315 11.0246 76.8931 10.282 76.8458 9.69468C76.7984 9.10792 76.6773 8.83156 76.6127 8.17499C76.8254 8.16284 77.0358 8.12368 77.2387 8.05844C77.5104 8.05844 77.7781 7.98055 78.0504 7.95055C78.0633 7.94751 78.0754 7.94195 78.086 7.93419C78.0967 7.92643 78.1057 7.91662 78.1125 7.90534C78.1193 7.89406 78.1238 7.88154 78.1257 7.8685C78.1277 7.85546 78.127 7.84216 78.1237 7.82939C78.1176 7.80728 78.1038 7.7881 78.0847 7.77538C78.0656 7.76266 78.0426 7.75726 78.0199 7.76016C77.5381 7.58291 77.0448 7.43891 76.5434 7.32917C75.9694 7.14743 74.8945 6.71183 74.5449 6.62933L74.152 6.52548C74.1568 6.5085 74.1568 6.49053 74.152 6.47355V6.37028C74.1494 6.35133 74.1418 6.33341 74.13 6.31835L74.0914 6.27566C74.0519 6.21885 74.0005 6.17127 73.9409 6.13621C73.8812 6.10115 73.8146 6.07944 73.7458 6.07257C73.6417 6.04259 73.5304 6.05049 73.4317 6.09486C73.3329 6.13923 73.253 6.2172 73.2063 6.31489C73.1898 6.34682 73.1812 6.38223 73.1812 6.41817C73.1812 6.4541 73.1898 6.48951 73.2063 6.52144C73.1198 6.57106 73.0269 6.60914 72.9294 6.63395C72.8977 6.65068 72.8648 6.6651 72.8307 6.67722C72.3513 6.79838 71.8788 6.9455 71.4143 7.11743C70.8525 7.34679 70.2755 7.53725 69.6875 7.68746C69.6102 7.68746 69.545 7.73939 69.4717 7.7567C69.4506 7.76341 69.4323 7.77702 69.4198 7.79535C69.4025 7.80801 69.3902 7.82641 69.3852 7.84728C69.3748 7.8992 69.4071 7.95113 69.459 7.96382C69.8433 7.98055 70.227 8.01921 70.6072 8.08037C70.6776 8.08902 70.7485 8.08902 70.8189 8.08037C70.7987 8.58001 70.7439 9.07734 70.6545 9.56948C70.5945 10.1695 70.5333 10.9513 70.482 11.538C70.3222 11.538 70.0896 11.4861 69.9292 11.4607C69.7694 11.4348 69.545 11.3702 69.3679 11.3528C69.3159 11.3528 69.2427 11.4913 69.2427 11.5427C69.2427 11.5946 69.2819 11.7544 69.3379 11.7544C69.519 11.7544 69.7694 11.8836 69.9292 11.8796C70.1018 11.9252 70.2783 11.9546 70.456 11.9661C70.426 12.2892 70.3481 12.9066 70.3095 13.2354C70.167 14.4049 70.0891 15.1175 69.9425 16.2875C69.8317 16.8125 69.7625 17.3451 69.7348 17.8805C69.6979 18.0899 69.6402 18.2959 69.5623 18.4938C69.5597 18.6597 69.5481 18.8253 69.5277 18.99C69.1913 19.9875 69.2473 20.4191 69.3985 20.475C69.6852 20.4404 69.9754 20.4404 70.2616 20.475C71.1253 20.6349 72.0617 20.4404 72.8867 20.475H72.9906C73.0084 20.4754 73.026 20.4707 73.0413 20.4615C73.0566 20.4523 73.069 20.439 73.0771 20.4231L73.1158 20.3193C73.2496 19.3223 73.2237 18.8521 73.3529 17.8418C73.3577 17.8249 73.3577 17.8069 73.3529 17.7899H74.4024C74.3885 17.8874 74.3885 17.9861 74.4024 18.0836C74.5471 18.8156 74.6379 19.5572 74.6741 20.3025C74.6633 20.3114 74.6546 20.3226 74.6486 20.3353C74.6426 20.348 74.6395 20.3618 74.6395 20.3758C74.6395 20.4277 74.7387 20.471 74.7907 20.471C76.0299 20.3631 78.0504 20.471 78.2962 20.4191C78.5426 20.3672 78.5812 20.3112 78.5599 20.2633Z" fill="#232323"/>
<path d="M71.0221 9.64267C71.078 9.23707 71.1253 8.96071 71.1553 8.55512V8.23145C71.2482 8.23606 71.3405 8.2476 71.4323 8.26606C71.5413 8.27183 71.6509 8.27183 71.76 8.26606C72.4766 8.31799 73.0939 8.3353 73.867 8.3353C73.9963 8.3353 74.1261 8.3353 74.2553 8.31337C74.9332 8.28741 75.5506 8.31337 76.2325 8.27414H76.2804C76.2804 8.35664 76.3018 8.37338 76.3064 8.45992C76.341 8.98668 76.4616 9.37958 76.4962 9.91038C76.5308 10.4412 76.6693 11.1024 76.7293 11.6378C76.2833 11.6345 75.8376 11.6619 75.3954 11.7197C74.804 11.7774 74.2092 11.7872 73.6166 11.7497C73.0812 11.7497 72.6837 11.7497 72.1489 11.711C71.9112 11.711 71.7167 11.6764 71.4623 11.6551C71.2892 11.6551 71.1986 11.6072 71.0301 11.6032H70.8623C70.9009 11.0031 70.9355 10.2687 71.0215 9.64267H71.0221ZM74.9892 20.1599C74.9465 19.3557 74.8499 18.5552 74.7001 17.7639C74.6901 17.7023 74.6901 17.6396 74.7001 17.5781C74.7057 17.5628 74.7057 17.5461 74.7001 17.5308C74.7001 17.4788 74.7001 17.4529 74.6309 17.4529H73.1112C73.0593 17.4529 73.0339 17.5221 73.0339 17.5221C73.0368 17.5422 73.0368 17.5626 73.0339 17.5827C72.8694 18.4385 72.7582 19.3036 72.701 20.1732V20.2251H72.6277C71.8927 20.2713 71.1553 20.2609 70.4215 20.1946C70.1854 20.1646 69.9471 20.1559 69.7095 20.1686C69.688 19.6821 69.7749 19.1969 69.9639 18.7481C69.9746 18.4152 70.0313 18.0853 70.1324 17.7679C70.2403 17.4229 70.1324 17.1079 70.2189 16.7409C70.2189 16.6671 70.2709 16.6071 70.2836 16.5332C70.478 15.212 70.474 14.6079 70.6459 13.2907C70.6851 12.989 70.7757 12.3717 70.7971 12.0734C71.0105 12.074 71.2234 12.097 71.4317 12.1426C72.1789 12.1899 72.8175 12.1426 73.5647 12.1859C74.3297 12.2309 75.0972 12.2035 75.8569 12.104H76.7899C76.7899 12.1253 76.7899 12.104 76.7899 12.104C76.8158 12.479 76.967 13.1915 77.027 13.5717C77.1008 14.0552 77.0749 14.1631 77.1522 14.6425C77.2301 15.1214 77.3599 15.5576 77.4245 16.0284C77.5364 16.8915 77.6576 17.3923 77.7568 18.2347C77.8088 18.6662 77.8993 19.0458 77.9772 19.5039C78.0072 19.6632 78.1711 19.9355 78.1497 20.1299C78.1278 20.3238 76.086 20.0694 74.9892 20.1599Z" fill="white"/>
<path d="M75.8741 9.12914C75.8897 9.11268 75.8989 9.0912 75.9001 9.06856C75.8997 9.05094 75.8943 9.0338 75.8843 9.01925C75.8744 9.0047 75.8604 8.99336 75.8441 8.98663H75.8095C75.3433 8.98663 74.8771 8.98663 74.415 8.94336C74.3526 8.97316 74.3023 9.02346 74.2725 9.08587C74.2252 9.58205 74.389 10.0788 74.2725 10.5669C74.2713 10.593 74.2799 10.6186 74.2967 10.6386C74.3135 10.6585 74.3372 10.6715 74.3631 10.6748C74.3853 10.6835 74.4101 10.6835 74.4323 10.6748C74.8809 10.7315 75.3349 10.7315 75.7835 10.6748C75.8099 10.6748 75.8351 10.6643 75.8537 10.6457C75.8723 10.6271 75.8828 10.6019 75.8828 10.5756C75.8908 10.561 75.8949 10.5446 75.8949 10.528C75.8949 10.5113 75.8908 10.495 75.8828 10.4804C75.7922 10.1307 75.8828 9.78975 75.8182 9.42281C75.7922 9.27568 75.948 9.1851 75.8741 9.12914Z" fill="#232323"/>
<path d="M74.5357 10.3901C74.5922 9.99781 74.493 9.59567 74.5357 9.19873C74.8899 9.22469 75.2395 9.23739 75.5938 9.23335C75.5765 9.61991 75.5938 10.0065 75.6457 10.3901C75.277 10.4312 74.9049 10.4312 74.5362 10.3901H74.5357Z" fill="white"/>
<path d="M72.649 14.9664C72.649 14.9404 72.6796 14.7719 72.5284 14.7806C72.0968 14.7806 71.7033 14.7806 71.2891 14.7373C71.2331 14.7373 71.1945 14.8452 71.1945 14.8498C71.1466 14.9883 71.1333 15.1366 71.1552 15.2814C71.1847 15.5998 71.1743 15.9201 71.1252 16.2357V16.2916C71.1254 16.3121 71.1317 16.332 71.1432 16.349C71.1547 16.3659 71.1709 16.3791 71.1899 16.3868L71.2937 16.4168C71.652 16.4428 72.1568 16.3695 72.5111 16.4168C72.5457 16.4168 72.6969 16.313 72.6842 16.257C72.6435 15.8281 72.6319 15.3969 72.6496 14.9664H72.649Z" fill="#232323"/>
<path d="M71.4143 16.1449H71.3716C71.4125 15.8589 71.4225 15.5693 71.4016 15.2812C71.3848 15.1985 71.3848 15.1134 71.4016 15.0308C71.7212 15.0308 72.0403 15.074 72.3599 15.0654C72.3484 15.4312 72.357 15.7975 72.3859 16.1616C72.1268 16.1056 71.7166 16.1835 71.4143 16.1443V16.1449Z" fill="white"/>
<path d="M42.6481 20.5009C42.1233 20.4229 41.5941 20.3782 41.0637 20.3671C40.4862 20.378 39.9098 20.4225 39.3369 20.5009L36.4008 15.5922H34.9163V17.1246C34.8932 17.8839 34.9163 18.6437 34.9856 19.4001C35.0202 19.6032 35.3052 19.737 35.5942 19.8317L36.6731 20.2638V20.5009C35.6635 20.4317 35.2446 20.3671 34.2297 20.3671C33.2155 20.3671 31.7131 20.4363 30.6988 20.5009V20.2638L32.0627 19.6892C32.417 19.538 32.3171 19.4388 32.3171 17.1246V13.0455C32.3171 10.8006 32.3823 10.5502 31.9767 10.3991L30.6809 9.91096V9.67383C31.6912 9.74306 33.1982 9.80768 34.2124 9.80768C35.2919 9.80768 36.0645 9.67383 36.6391 9.67383C38.6296 9.67383 40.9305 10.1354 40.9305 12.6613C40.9305 14.0771 40.421 15.0706 39.0785 15.6834L40.2831 17.7685C41.4959 19.7417 41.5778 19.8236 42.01 20.0094L42.6486 20.2817V20.5015L42.6481 20.5009Z" fill="#232323"/>
<path d="M39.0778 11.2924C39.6086 10.5712 38.9267 10.4028 38.7149 10.5412C38.5037 10.6797 38.5464 11.1799 38.5464 11.1799L37.9078 11.5128L37.9337 11.2186L37.5927 10.731L36.8196 10.2995L36.0252 10.2349L35.1188 10.6145L34.8464 11.2578L34.8078 11.5342L34.1299 11.1713C34.1299 11.1713 34.1731 10.6705 33.9614 10.5326C33.7502 10.3941 33.0983 10.4506 33.5991 11.2838C32.8346 11.7846 33.1975 12.1475 33.4998 12.1728C33.8022 12.1988 33.9574 11.8405 33.9574 11.8405L34.9243 12.324V12.9806L35.1493 13.5933L35.3392 13.6672L34.2856 14.198C34.2856 14.198 34.2204 13.542 33.7849 13.7964C33.1629 14.1633 33.9101 14.6168 33.9101 14.6168C33.4219 14.9838 33.5471 15.3767 33.9101 15.4799C34.4149 15.6051 34.3416 15.1522 34.4495 14.8413C34.7553 14.6387 35.0795 14.4639 35.4165 14.3191L35.4384 14.5303L35.5596 14.9105C35.8353 15.0778 36.1423 15.1874 36.4613 15.2336C36.7764 15.2336 36.8929 15.2042 36.8929 15.2042L37.2471 15.0184L37.4502 14.6987V14.427C37.6868 14.5112 37.9187 14.6076 38.1449 14.7161C38.0583 15.027 38.1708 15.4153 38.6503 15.2861C38.9999 15.1955 39.1165 14.8539 38.7282 14.6122C38.7282 14.6122 39.5267 14.146 38.7841 13.835C38.4432 13.6925 38.3526 14.198 38.3526 14.198L37.5148 13.8656V13.6152L37.6054 13.5333C37.6054 13.7058 37.7047 13.7404 37.7958 13.7404C37.8858 13.7404 38.0197 13.5933 38.0197 13.4081C38.0197 13.2223 38.0456 13.0365 37.9505 13.0365C37.9109 13.0376 37.8718 13.0448 37.8345 13.0579V12.916L37.8645 12.3286L38.6457 11.8711C38.6457 11.8711 38.7968 12.2334 39.1038 12.2034C39.4101 12.1728 39.8463 11.7072 39.0778 11.2924Z" fill="white"/>
<path d="M35.8142 12.1773L35.5765 12.2333L35.4426 12.4318L35.5465 12.782L35.8182 12.8339L36.0819 12.7427L36.1724 12.4491L36.0686 12.2246L35.8142 12.1773ZM36.3663 12.9591L36.1332 13.4853L36.2584 13.5372L36.6427 13.5245L36.7292 13.442L36.5002 12.9499L36.3663 12.9591ZM36.7552 14.0599L36.7465 14.3057L36.5694 14.2797L36.548 14.0767L36.3923 14.0899L35.9394 14.0467L35.9261 14.5042L36.2157 14.634L36.6819 14.6467L36.9929 14.5174L37.0142 14.034L36.7552 14.0599ZM36.0126 10.2261L35.5811 10.4113C35.5845 10.5209 35.577 10.6311 35.5591 10.7401C35.5239 10.8696 35.4834 10.9976 35.438 11.1238V11.819L35.719 11.6506L36.0732 11.5554L35.9607 10.9773L36.0126 10.5711L36.1338 10.2347L36.0126 10.2261ZM36.8977 10.334C36.8977 10.334 37.0142 10.9034 37.0402 11.0205C37.0263 11.1988 36.9883 11.3742 36.9277 11.5427L37.2992 11.7285L37.6275 11.9656C37.6275 11.9656 37.5969 11.2663 37.5883 11.1371C37.5667 10.9828 37.5365 10.8299 37.4977 10.679L36.8977 10.334Z" fill="#232323"/>
<path d="M37.5754 12.449L37.5967 12.389L37.5408 12.1686L37.1652 11.9355L36.6644 11.9655L36.5824 12.0994L36.0989 11.9055L35.6628 11.6719L35.533 11.7498L36.0857 12.0607L36.5432 12.2419L36.5565 12.6088L36.9488 12.9671L37.2904 12.9758L37.5061 12.6048L37.9117 12.7733L37.9204 12.6175L37.5754 12.449ZM123.15 22.3576C123.15 22.2432 123.195 22.1334 123.276 22.0525C123.357 21.9715 123.467 21.9261 123.581 21.9261C123.696 21.9261 123.805 21.9715 123.886 22.0525C123.967 22.1334 124.013 22.2432 124.013 22.3576C124.013 22.4722 123.967 22.582 123.886 22.663C123.805 22.744 123.695 22.7895 123.581 22.7895C123.466 22.7895 123.356 22.744 123.275 22.663C123.194 22.582 123.149 22.4722 123.149 22.3576H123.088C123.088 22.4582 123.118 22.5565 123.174 22.6402C123.23 22.7239 123.309 22.7892 123.402 22.8279C123.495 22.8666 123.597 22.8769 123.696 22.8576C123.794 22.8382 123.885 22.7901 123.957 22.7193C124.028 22.6484 124.077 22.558 124.097 22.4595C124.117 22.3609 124.108 22.2586 124.07 22.1654C124.032 22.0723 123.967 21.9924 123.884 21.936C123.801 21.8795 123.702 21.849 123.602 21.8482C123.466 21.8482 123.336 21.9017 123.24 21.9971C123.144 22.0926 123.089 22.2221 123.088 22.3576H123.149H123.15ZM123.857 22.4522C123.849 22.5091 123.821 22.561 123.777 22.5979C123.733 22.6347 123.677 22.6538 123.62 22.6513C123.581 22.652 123.543 22.6447 123.508 22.6301C123.472 22.6154 123.44 22.5936 123.413 22.566C123.387 22.5384 123.366 22.5056 123.352 22.4697C123.339 22.4337 123.333 22.3954 123.335 22.357C123.332 22.3189 123.337 22.2805 123.35 22.2444C123.363 22.2083 123.383 22.1753 123.409 22.1477C123.436 22.12 123.468 22.0982 123.503 22.0838C123.539 22.0694 123.577 22.0626 123.615 22.0639C123.673 22.06 123.729 22.0778 123.774 22.1138C123.819 22.1498 123.849 22.2014 123.857 22.2584H123.784C123.776 22.2195 123.755 22.1845 123.724 22.1599C123.693 22.1353 123.655 22.1228 123.615 22.1245C123.586 22.1244 123.556 22.1305 123.53 22.1426C123.503 22.1546 123.479 22.1722 123.459 22.1943C123.439 22.2163 123.425 22.2423 123.416 22.2705C123.407 22.2986 123.404 22.3283 123.408 22.3576C123.405 22.387 123.408 22.4167 123.417 22.4449C123.426 22.473 123.441 22.499 123.46 22.5213C123.48 22.5435 123.504 22.5615 123.53 22.5741C123.557 22.5868 123.586 22.5938 123.616 22.5947C123.655 22.5961 123.694 22.5828 123.724 22.5573C123.754 22.5318 123.774 22.496 123.78 22.4569L123.857 22.4522ZM124.518 22.3576C124.518 22.2431 124.563 22.1332 124.644 22.0523C124.725 21.9713 124.835 21.9258 124.949 21.9258C125.064 21.9258 125.174 21.9713 125.255 22.0523C125.336 22.1332 125.381 22.2431 125.381 22.3576C125.381 22.4722 125.336 22.582 125.255 22.663C125.174 22.744 125.064 22.7895 124.949 22.7895C124.835 22.7895 124.725 22.744 124.644 22.663C124.563 22.582 124.518 22.4722 124.518 22.3576H124.453C124.453 22.4582 124.483 22.5565 124.538 22.6402C124.594 22.7239 124.674 22.7892 124.766 22.8279C124.859 22.8666 124.962 22.8769 125.06 22.8576C125.159 22.8382 125.25 22.7901 125.321 22.7193C125.393 22.6484 125.441 22.558 125.462 22.4595C125.482 22.3609 125.472 22.2586 125.434 22.1654C125.396 22.0723 125.332 21.9924 125.248 21.936C125.165 21.8795 125.067 21.849 124.966 21.8482C124.831 21.8482 124.701 21.9017 124.605 21.9971C124.509 22.0926 124.454 22.2221 124.453 22.3576H124.518ZM124.846 22.2411V22.3276H124.95C125.032 22.3276 125.152 22.3276 125.152 22.2238C125.152 22.1199 125.075 22.1245 125.001 22.1245H124.837V22.2284H124.768V22.0639H125.018C125.066 22.0599 125.114 22.0688 125.157 22.0899C125.178 22.1031 125.195 22.1217 125.206 22.1437C125.218 22.1657 125.223 22.1904 125.221 22.2151C125.221 22.327 125.144 22.3709 125.04 22.3709L125.213 22.634H125.131L124.966 22.3703H124.837V22.6599H124.768V22.2278L124.846 22.2411Z" fill="#232323"/>
</svg>
