<svg width="114" height="43" viewBox="0 0 114 43" fill="none" xmlns="http://www.w3.org/2000/svg">
<path d="M8.86097 17.9619C9.87854 18.0289 10.8967 17.8399 11.8224 17.4122C12.7482 16.9845 13.5521 16.3317 14.1607 15.5135L14.2691 17.59H16.6556V8.60219H9.40334V11.1591H13.8353V11.4845C13.8353 14.5837 11.2474 15.4825 9.18639 15.4825C6.13363 15.5135 4.07263 13.1426 4.07263 8.92761C4.07263 4.71264 6.2731 2.49668 9.21738 2.49668C10.2391 2.43262 11.2506 2.7319 12.073 3.34159C12.8953 3.95129 13.4756 4.83212 13.7113 5.82837H16.6091C16.3381 4.12026 15.4365 2.57582 14.0824 1.49999C12.7283 0.424148 11.02 -0.104905 9.29486 0.0172805C4.15011 0.0172805 0.973389 3.55042 0.973389 8.92761C0.973389 14.3048 3.93317 17.9619 8.86097 17.9619Z" fill="#232323"/>
<path d="M22.3737 10.8646C22.3737 8.29219 23.4119 7.56386 25.194 7.56386C25.6279 7.56386 26.0773 7.56386 26.5576 7.56386V4.82103C26.3099 4.80564 26.0615 4.80564 25.8138 4.82103C25.0718 4.82818 24.3477 5.05001 23.729 5.45974C23.1102 5.86947 22.6234 6.44956 22.3272 7.12997V4.79004H19.5688V17.6519H22.4047L22.3737 10.8646Z" fill="#232323"/>
<path d="M31.2839 0.327148H28.4326V3.19395H31.2839V0.327148Z" fill="#232323"/>
<path d="M31.2839 4.79004H28.4326V17.6519H31.2839V4.79004Z" fill="#232323"/>
<path d="M39.1095 17.9619C39.8672 17.9965 40.6206 17.8298 41.293 17.4787C41.9653 17.1275 42.5326 16.6045 42.9371 15.9628V17.6519H45.7729V0.327148H42.9371V6.52564C42.5345 5.8811 41.9681 5.35498 41.2956 5.00104C40.6231 4.64711 39.8687 4.47805 39.1095 4.51113C36.0103 4.51113 33.5154 7.1145 33.5154 11.221C33.5154 15.3275 36.0723 17.9619 39.1095 17.9619ZM39.7139 6.82007C41.5734 6.82007 43.0301 8.26122 43.0301 11.221C43.0301 14.1808 41.5734 15.6529 39.7139 15.6529C37.8543 15.6529 36.4597 13.9483 36.4597 11.221C36.4597 8.49366 37.8388 6.82007 39.7139 6.82007Z" fill="#232323"/>
<path d="M1.76367 20.9526V38.2774H4.61498V36.5883C5.01214 37.2333 5.57578 37.7594 6.2466 38.1111C6.91742 38.4629 7.67065 38.6274 8.42705 38.5873C11.5263 38.5873 14.0212 35.984 14.0212 31.8465C14.0212 27.709 11.4643 25.1366 8.42705 25.1366C7.66939 25.0998 6.91578 25.2674 6.24511 25.6218C5.57445 25.9762 5.01142 26.5044 4.61498 27.1511V20.9526H1.76367ZM7.8072 27.461C9.69774 27.461 11.0614 29.1501 11.0614 31.8465C11.0614 34.5428 9.69774 36.2784 7.8072 36.2784C5.91666 36.2784 4.49101 34.8218 4.49101 31.8465C4.49101 28.8712 5.94765 27.461 7.8072 27.461Z" fill="#232323"/>
<path d="M16.2681 25.4312V38.2775H19.1039V31.5367C19.1039 28.9643 20.1421 28.2515 21.9242 28.2515C22.3581 28.2515 22.8075 28.2515 23.2879 28.2515V25.4466H22.544C21.8007 25.457 21.0762 25.682 20.4577 26.0943C19.8391 26.5067 19.3529 27.0889 19.0574 27.7711V25.4312H16.2681Z" fill="#232323"/>
<path d="M32.9112 36.5417C32.9423 37.1254 33.0201 37.7058 33.1436 38.2772H35.747C35.4839 36.8306 35.3594 35.3621 35.3751 33.8918C35.3751 32.7141 35.3751 31.211 35.3751 30.5601C35.3751 26.4536 33.0351 25.0435 29.9514 25.0435C26.8676 25.0435 24.7136 26.841 24.5277 29.4599H27.317C27.3171 29.1324 27.3863 28.8087 27.5202 28.5099C27.6541 28.2111 27.8496 27.944 28.094 27.726C28.3383 27.508 28.6259 27.3441 28.938 27.245C29.2501 27.1459 29.5796 27.1138 29.9049 27.1509C31.315 27.1509 32.5702 27.8173 32.5702 30.0177V30.2502C27.9214 30.7306 23.9233 31.5364 23.9233 34.7441C23.9233 37.084 25.8759 38.5872 28.6807 38.5872C29.504 38.6527 30.3298 38.4978 31.0734 38.1383C31.8169 37.7788 32.4513 37.2277 32.9112 36.5417V36.5417ZM29.3005 36.4642C27.8594 36.4642 26.9296 35.7978 26.9296 34.6666C26.9296 33.1945 28.5877 32.6211 32.6477 32.2337V33.21C32.6967 33.6574 32.643 34.1102 32.4907 34.5338C32.3384 34.9573 32.0915 35.3406 31.7687 35.6544C31.446 35.9682 31.0559 36.2042 30.6282 36.3445C30.2005 36.4848 29.7464 36.5258 29.3005 36.4642V36.4642Z" fill="#232323"/>
<path d="M41.1241 27.213V25.431H38.2883V38.2774H41.1241V31.4435C41.1241 29.1346 41.9454 27.461 44.1149 27.461C46.2844 27.461 46.5633 29.1501 46.5633 30.9011V38.2774H49.3991V30.2038C49.3991 27.1046 48.1284 25.1365 45.0292 25.1365C44.2495 25.0851 43.471 25.2522 42.7812 25.6191C42.0913 25.9859 41.5174 26.5379 41.1241 27.213V27.213Z" fill="#232323"/>
<path d="M57.2711 38.5873C58.0294 38.6253 58.7839 38.46 59.4569 38.1085C60.1298 37.7571 60.6966 37.2323 61.0987 36.5883V38.2774H63.9345V20.9526H61.0987V27.1511C60.6973 26.5055 60.1311 25.9784 59.4583 25.6244C58.7856 25.2703 58.0306 25.1019 57.2711 25.1366C54.1719 25.1366 51.677 27.74 51.677 31.8465C51.677 35.953 54.2339 38.5873 57.2711 38.5873ZM57.891 27.4611C59.7505 27.4611 61.2072 28.8867 61.2072 31.8465C61.2072 34.8063 59.7505 36.2784 57.891 36.2784C56.0314 36.2784 54.6368 34.5738 54.6368 31.8465C54.6368 29.1191 56.0004 27.4611 57.891 27.4611Z" fill="#232323"/>
<path d="M69.9936 20.9526H67.1423V23.8194H69.9936V20.9526Z" fill="#232323"/>
<path d="M69.9936 25.4312H67.1423V38.293H69.9936V25.4312Z" fill="#232323"/>
<path d="M76.0371 31.4437C76.0371 29.1348 76.8429 27.4612 79.0124 27.4612C81.1818 27.4612 81.4608 29.1503 81.4608 30.9014V38.2776H84.2966V30.204C84.2966 27.1048 83.0414 25.1368 79.9267 25.1368C79.149 25.0847 78.3724 25.2516 77.6849 25.6187C76.9973 25.9857 76.4265 26.5381 76.0371 27.2133V25.4312H73.1858V38.2776H76.0371V31.4437Z" fill="#232323"/>
<path d="M92.0912 38.0762C92.8489 38.113 93.6025 37.9454 94.2731 37.591C94.9438 37.2366 95.5068 36.7084 95.9033 36.0617V37.6113C95.9604 38.3874 95.7347 39.158 95.2679 39.7808C94.942 40.1228 94.5422 40.3858 94.099 40.5496C93.6559 40.7134 93.1811 40.7738 92.7111 40.726C91.0065 40.726 90.2162 40.2147 89.9527 39.0214H87.1324C87.5663 41.8418 89.8133 42.973 92.6336 42.973C94.3052 43.1265 95.9714 42.6267 97.2824 41.5783C97.8441 40.9721 98.2723 40.2547 98.5392 39.4726C98.8062 38.6905 98.9059 37.861 98.8321 37.0379V25.4313H95.9033V27.1513C95.5068 26.5046 94.9438 25.9764 94.2731 25.622C93.6025 25.2676 92.8489 25.1 92.0912 25.1368C88.992 25.1368 86.4971 27.5697 86.4971 31.5988C86.4971 35.6278 89.0539 38.0762 92.0912 38.0762ZM92.7111 27.4148C94.5706 27.4148 96.0273 28.7165 96.0273 31.5988C96.0273 34.481 94.5706 35.8292 92.7111 35.8292C90.8515 35.8292 89.4568 34.2796 89.4568 31.5988C89.4568 28.9179 90.8515 27.4148 92.7111 27.4148V27.4148Z" fill="#232323"/>
<path d="M104.24 30.9012H105.015V25.9269H106.921V25.2451H102.334V25.9269H104.24V30.9012Z" fill="#232323"/>
<path d="M108.347 27.5696C108.347 27.4301 108.347 27.2286 108.347 26.9342C108.347 26.6398 108.347 26.4538 108.347 26.3144V26.1284L109.989 30.9012H110.749L112.298 26.1284C112.298 26.4383 112.298 26.7328 112.298 26.9962V30.9012H113.027V25.2451H111.942L110.315 30.0335L108.765 25.2451H107.68V30.9012H108.409L108.347 27.5696Z" fill="#232323"/>
</svg>
