<svg width="127" height="38" viewBox="0 0 127 38" fill="none" xmlns="http://www.w3.org/2000/svg">
<path d="M31.562 31.8858H0.231201V0.554199H31.562V31.8858ZM1.65704 30.4583H30.1362V1.98004H1.65284L1.65704 30.4583Z" fill="#232323"/>
<path d="M18.6044 22.5944V17.242H13.1882V22.5944H9.75708V9.10596H13.1882V14.35H18.6044V9.10596H22.0363V22.5944H18.6044Z" fill="#232323"/>
<path d="M24.6865 34.8726H7.10693V37.4967H24.6865V34.8726Z" fill="#232323"/>
<path d="M52.707 22.8958V17.5443H47.2908V22.8958H43.8589V9.4082H47.2908V14.6523H52.707V9.4082H56.1381V22.8958H52.707Z" fill="#232323"/>
<path d="M58.4036 22.8958V9.4082H68.2434V12.17H61.7482V14.7388H66.9704V17.5014H61.7482V20.134H68.2434V22.8966L58.4036 22.8958Z" fill="#232323"/>
<path d="M79.3789 9.4082H82.5942V23.0251H78.9481L73.2683 14.156V22.8958H70.053V9.4082H73.7721L79.3831 18.1699L79.3789 9.4082Z" fill="#232323"/>
<path d="M89.3489 20.3926C89.8612 20.4138 90.3702 20.3025 90.8268 20.0694C91.0026 19.9819 91.1498 19.8461 91.2511 19.6778C91.3524 19.5096 91.4036 19.3159 91.3987 19.1196C91.4049 18.9102 91.3401 18.7048 91.2148 18.5369C91.0703 18.3609 90.8899 18.2178 90.6858 18.117C90.4092 17.9756 90.1202 17.8598 89.8225 17.7711C89.4777 17.6636 89.0819 17.5449 88.6352 17.415C88.1259 17.2793 87.6251 17.1136 87.1354 16.9188C86.637 16.7243 86.1654 16.467 85.7323 16.1529C85.3077 15.8433 84.9546 15.4461 84.6969 14.9882C84.4164 14.461 84.2788 13.8696 84.298 13.2727C84.2773 12.7004 84.387 12.1309 84.6187 11.6072C84.8505 11.0835 85.1982 10.6193 85.6357 10.2497C86.7374 9.42022 88.1005 9.01432 89.4766 9.10598C90.4323 9.09332 91.3857 9.20222 92.314 9.43011C93.0846 9.62384 93.8277 9.91388 94.5258 10.2933L93.854 13.1199C93.1599 12.7535 92.4278 12.464 91.6707 12.2566C90.961 12.0504 90.2265 11.9413 89.4875 11.9325C88.3068 11.9325 87.7168 12.3137 87.7174 13.0762C87.7156 13.287 87.7925 13.4909 87.9332 13.648C88.1027 13.8323 88.3086 13.9795 88.5378 14.0805C88.8315 14.2162 89.1343 14.3315 89.4438 14.4256C89.7887 14.5337 90.1626 14.6456 90.5657 14.7615C91.0856 14.906 91.5972 15.0789 92.0982 15.2796C92.5843 15.4713 93.0418 15.729 93.4577 16.0455C93.859 16.3535 94.1902 16.7433 94.4292 17.1892C94.6869 17.7004 94.813 18.2678 94.7962 18.84C94.8037 19.4494 94.6785 20.0532 94.4292 20.6093C94.1819 21.1444 93.8167 21.6166 93.3611 21.9906C92.8499 22.402 92.2635 22.7098 91.6346 22.8967C90.8683 23.1244 90.0718 23.2337 89.2725 23.2209C88.3013 23.225 87.3333 23.1088 86.3906 22.8749C85.5813 22.6852 84.8012 22.3875 84.0713 21.9898L84.7187 19.1415C85.4178 19.5105 86.1513 19.8103 86.9087 20.0366C87.7 20.2757 88.5224 20.3956 89.3489 20.3926Z" fill="#232323"/>
<path d="M96.5134 22.8958V9.4082H99.9429V22.8958H96.5134Z" fill="#232323"/>
<path d="M105.707 15.3644L110.195 9.4082H114.121L108.791 15.9908L114.249 22.8966H110.149L105.703 16.9615H105.682V22.8966H102.25V9.4082H105.682V15.3644H105.707Z" fill="#232323"/>
<path d="M121.937 12.2813V22.8953H118.507V12.2813H114.211V9.41113H126.231V12.2813H121.937Z" fill="#232323"/>
</svg>
