<svg width="114" height="18" viewBox="0 0 114 18" fill="none" xmlns="http://www.w3.org/2000/svg">
<path d="M13.9794 17.7434H11.4521V10.1054H2.49938V17.7434H0V0.203613H2.49938V7.94361H11.449V0.203613H13.9762V17.7434H13.9794Z" fill="#232323"/>
<path d="M47.6668 8.40262C49.736 8.81002 51.0012 10.9226 51.0012 12.6788C51.0247 13.3566 50.8998 14.0316 50.6343 14.6614C50.3688 15.2912 49.9685 15.8621 49.4586 16.3381C48.9486 16.8142 48.3401 17.1851 47.6714 17.4275C47.0026 17.6698 46.2881 17.7784 45.5729 17.7464H37.9937V0.203613H44.9837C48.0748 0.203613 50.0103 1.95981 50.0103 4.73361C50.0071 6.20961 49.4147 7.76481 47.6668 8.40262ZM44.9805 7.48462C46.6195 7.48462 47.4545 6.23601 47.4545 4.81101C47.4545 3.28221 46.3775 2.39361 44.7125 2.39361H40.5152V7.48462H44.9805ZM40.5152 9.56962V15.5252H45.4607C45.8566 15.5266 46.2488 15.4525 46.6137 15.3072C46.9787 15.162 47.3091 14.9486 47.5851 14.6798C47.8611 14.411 48.0771 14.0924 48.2202 13.7428C48.3634 13.3932 48.4307 13.02 48.4182 12.6452C48.4182 11.246 47.2619 9.56422 45.3771 9.56422H40.5152V9.56962Z" fill="#232323"/>
<path d="M60.7269 15.7836C63.0919 15.7836 64.2482 14.535 64.4649 13.2132C64.627 11.3304 62.988 10.4388 61.3205 10.0818L58.927 9.5208C55.0033 8.5794 54.4116 6.4662 54.4116 4.9374C54.4116 1.986 57.2626 0 60.4076 0C63.7952 0 66.375 1.986 66.375 5.1414H63.8756C63.8756 3.3852 62.3988 2.2614 60.3822 2.2614C58.581 2.2614 56.9135 3.306 56.9135 4.9086C56.9135 5.673 57.2094 6.8178 59.5466 7.3524L61.9648 7.9134C65.4336 8.7534 67.2867 10.6134 66.9104 13.4118C66.5892 15.9318 64.3584 17.9952 60.7275 17.9952C56.9382 17.9952 54.2488 15.4248 54.2488 12.6738H56.7482C56.7754 14.2044 58.3897 15.7836 60.7269 15.7836Z" fill="#232323"/>
<path d="M82.7905 0.203613V2.44341H77.1721V17.7434H74.6449V2.44341H69.0259V0.203613H82.7905Z" fill="#232323"/>
<path d="M96.9972 0.203613V2.41701H88.5304V8.01861H95.9221V10.2296H88.5304V15.524H97.2671V17.7374H86.0278V0.203613H96.9972Z" fill="#232323"/>
<path d="M114.001 17.7434H110.96L106.176 11.177H103.811V17.7434H101.286V0.203613H108.41C112.308 0.203613 113.894 2.95401 113.894 5.70201C113.894 8.29941 112.523 10.8194 109.055 11.102L114.001 17.7434ZM103.813 2.41701V8.96001H108.223C110.482 8.96001 111.314 7.33101 111.314 5.70201C111.314 4.09941 110.482 2.41701 108.328 2.41701H103.813Z" fill="#232323"/>
<path d="M19.2087 0H21.736V7.4844H19.2087V0Z" fill="#232323"/>
<path d="M32.7587 0H30.2314L30.2188 7.4844H32.746L32.7587 0Z" fill="#232323"/>
<path d="M30.2313 11.7107C30.2313 12.7775 29.7838 13.8006 28.9873 14.555C28.1908 15.3093 27.1104 15.7331 25.984 15.7331C24.8575 15.7331 23.7772 15.3093 22.9806 14.555C22.1841 13.8006 21.7366 12.7775 21.7366 11.7107V10.9463H19.2087V11.7107C19.2087 15.5297 22.3252 17.9999 25.9833 17.9999C29.6415 17.9999 32.7579 15.5297 32.7579 11.7107V10.9463H30.2313V11.7107Z" fill="#232323"/>
</svg>
