<svg width="126" height="32" viewBox="0 0 126 32" fill="none" xmlns="http://www.w3.org/2000/svg">
<path d="M37.6435 3.80005C37.5128 3.65824 37.2511 3.74566 37.1743 3.77819C36.9238 3.86561 34.9822 5.01071 32.7688 6.33014V0.91011C32.7689 0.897166 32.7664 0.884338 32.7614 0.872373C32.7565 0.860408 32.7492 0.849545 32.74 0.840416C32.7309 0.831287 32.72 0.824074 32.708 0.819199C32.696 0.814323 32.6831 0.811882 32.6702 0.812017H2.39753C2.38463 0.81195 2.37184 0.814441 2.35991 0.819347C2.34798 0.824252 2.33714 0.831475 2.32802 0.840598C2.3189 0.84972 2.31167 0.86056 2.30677 0.872492C2.30186 0.884424 2.29937 0.89721 2.29944 0.91011V15.6434C1.34758 16.4708 0.679945 17.5766 0.390942 18.8042C0.227284 19.4802 0.565273 19.4258 0.750786 18.9349C1.16023 18.3068 1.68586 17.7627 2.29944 17.3318V21.3979C2.24602 21.4344 2.19508 21.4745 2.14696 21.5178C1.20872 22.2954 0.0854811 23.593 9.43094e-05 24.9033C-0.000916653 24.9315 0.0062179 24.9595 0.0206474 24.9838C0.0350769 25.0081 0.0561927 25.0277 0.0814773 25.0404C0.106762 25.053 0.135149 25.0581 0.163254 25.0551C0.191359 25.0521 0.217996 25.041 0.23999 25.0232C0.813767 24.4984 1.5306 24.1559 2.29944 24.0393V31.2158H2.31011C2.31425 31.2355 2.32539 31.253 2.34148 31.265C2.35756 31.2771 2.37749 31.2829 2.39753 31.2814H32.6595C32.6724 31.2814 32.6852 31.2789 32.6971 31.274C32.7091 31.2691 32.7199 31.2619 32.729 31.2528C32.7382 31.2437 32.7454 31.2328 32.7503 31.2209C32.7552 31.209 32.7577 31.1962 32.7576 31.1833V8.52224C35.2115 6.38503 37.556 4.31287 37.5998 4.27984C37.6605 4.21674 37.6979 4.13483 37.7059 4.04762C37.7138 3.9604 37.6918 3.87308 37.6435 3.80005ZM2.69384 1.30299C2.69357 1.2772 2.70352 1.25234 2.72153 1.23387C2.73953 1.21539 2.76411 1.20479 2.7899 1.20439H32.2778C32.2908 1.20432 32.3036 1.20683 32.3156 1.21177C32.3275 1.2167 32.3384 1.22397 32.3475 1.23315C32.3566 1.24233 32.3639 1.25323 32.3687 1.26522C32.3736 1.27721 32.376 1.29005 32.3759 1.30299V6.55885C30.7729 7.51844 29.0824 8.53291 27.7955 9.30698C27.9827 8.88858 28.1938 8.4813 28.4278 8.08717C28.7658 7.60738 29.0601 7.18197 28.7439 6.91819C28.6133 6.80891 28.2865 6.84195 27.8499 6.99443C27.8097 6.2009 27.5492 5.43426 27.0977 4.78047C26.2013 3.52483 24.8994 2.61674 23.4114 2.20936C21.9234 1.80197 20.3405 1.92021 18.9295 2.54415C18.4386 2.79472 18.6353 3.0458 19.2894 2.90399C20.0518 2.74033 22.0375 3.48188 21.7432 4.77945C21.4489 6.07703 18.406 6.31692 17.4027 5.43358C16.5184 4.65086 13.0084 2.31696 9.45363 4.0618C8.71446 4.47497 8.14909 5.14086 7.86127 5.93726C7.66508 6.28643 7.92683 6.44958 8.28668 6.08973C9.0018 5.497 9.86512 5.11067 10.7836 4.97238C11.7021 4.83409 12.6409 4.94909 13.4988 5.30499C16.0726 6.26457 14.8401 8.8709 13.2371 8.8709C11.634 8.8709 9.78044 7.72428 7.30473 8.18171C4.82902 8.63914 3.50959 10.0465 3.19346 11.9987C3.05165 12.8383 3.37897 12.5003 3.58583 12.1293C4.08548 11.4525 4.74075 10.9059 5.49625 10.5357C6.25175 10.1656 7.08526 9.98278 7.92632 10.0028C10.6089 10.0028 9.66049 13.2089 7.63205 13.4706C5.85772 13.6557 4.15866 14.285 2.69181 15.3003L2.69384 1.30299ZM25.5145 12.2188C25.9287 12.9603 26.6159 13.4945 27.2049 13.2221C27.2268 13.2114 27.2705 13.1784 27.3356 13.1346C27.3681 13.2439 27.3899 13.3527 27.4118 13.462C27.5754 14.326 28.0441 21.3684 28.1742 23.9854C28.1523 24.5526 27.9124 24.7478 27.7706 24.7478C27.6832 24.7478 27.6288 24.6715 27.6288 24.5622C27.6257 24.4243 27.5869 24.2895 27.5162 24.171C27.4455 24.0525 27.3452 23.9544 27.2253 23.8863C27.122 23.82 27.0032 23.7822 26.8807 23.7765C26.7582 23.7708 26.6364 23.7974 26.5274 23.8537C26.2428 24.0039 26.0097 24.2358 25.858 24.5196C25.7064 24.8034 25.6432 25.1261 25.6766 25.4461C25.7203 25.7297 25.6873 25.7734 25.6222 25.8497C25.5692 25.8751 25.5111 25.8884 25.4523 25.8886C25.3934 25.8888 25.3353 25.8759 25.282 25.8508C25.2288 25.8258 25.1818 25.7892 25.1445 25.7437C25.1072 25.6982 25.0804 25.645 25.0662 25.5879C24.9244 25.1188 24.7719 24.6283 24.5645 24.5084C24.3097 24.341 24.0016 24.2748 23.7005 24.3229C23.4713 24.3884 23.4281 24.7803 23.3625 25.2718C23.3188 25.6753 23.3732 26.2532 23.0352 26.2644C22.7079 26.2862 22.6972 25.4791 22.6642 24.6176C22.6423 23.9854 22.7297 22.8388 22.6749 22.4149L22.4893 21.3572C22.3694 20.7249 22.1844 19.776 22.3038 19.6667C22.3582 19.623 22.5544 19.776 22.6749 19.8629C22.9148 20.0373 23.1984 20.2446 23.4057 20.0154C23.5801 19.8192 23.4057 19.4594 23.1658 18.9481C22.9013 18.4708 22.7241 17.9501 22.6423 17.4106C22.6135 17.2511 22.6335 17.0867 22.6997 16.9388C22.7659 16.7908 22.8752 16.6664 23.0134 16.5816C23.1064 16.5321 23.2108 16.508 23.3162 16.5118C23.4215 16.5157 23.5239 16.5473 23.6131 16.6035C23.7093 16.7117 23.7901 16.8329 23.853 16.9633C24.071 17.3557 24.3765 17.8782 24.9107 17.7049C25.2156 17.6068 25.3361 17.0726 25.3905 16.6579C25.5323 15.5565 25.3249 13.7679 24.5727 13.2881C24.3662 13.1686 24.1325 13.1039 23.894 13.1C23.6554 13.0962 23.4198 13.1534 23.2095 13.2663C22.8361 13.44 22.5078 13.6974 22.25 14.0185C22.1151 14.176 21.998 14.3478 21.9008 14.5308C21.8245 14.6833 21.7702 14.8688 21.5735 14.9019C21.4535 14.9237 21.301 14.8363 21.1699 14.8144C21.0388 14.7926 20.7989 14.7382 20.7445 14.8907C20.712 14.9781 20.7989 14.9999 20.8538 15.0431C20.9031 15.0848 20.9469 15.1324 20.9844 15.1849C21.0695 15.3168 21.1356 15.46 21.1806 15.6104C21.2901 15.9453 21.2786 16.3081 21.1481 16.6355C20.9082 17.1697 20.2647 17.2678 19.3377 16.9079C18.9705 16.7787 18.6364 16.5699 18.3593 16.2966C18.0822 16.0233 17.8689 15.6921 17.7346 15.3268C17.1893 13.7674 17.9527 12.3494 18.2256 11.8152C18.3781 11.5428 18.2037 11.5103 18.0731 11.5972C16.8843 12.2732 16.2739 13.8762 15.9791 15.9173C15.6843 17.9585 16.4365 22.0027 18.4111 25.0558C19.071 26.0482 19.7828 27.0051 20.5437 27.9223C21.3039 28.8369 21.9791 29.8188 22.561 30.856H8.13217C7.71794 24.9455 8.0666 16.5262 13.4322 11.6627C15.3052 9.85738 17.7904 8.82531 20.3913 8.77281C22.7252 6.33014 24.9935 5.54488 25.1241 5.55556C25.2659 5.56623 25.2548 5.66483 25.0916 5.7736C24.5137 6.16597 23.4449 6.6788 22.7796 7.52911C22.4347 7.95351 22.1789 8.44304 22.0273 8.96849C21.9258 9.32708 21.8708 9.69725 21.8637 10.0699C21.8524 10.2065 21.8829 10.3433 21.9511 10.4622C21.9816 10.5137 22.0245 10.5566 22.0759 10.5871C22.1274 10.6176 22.1856 10.6346 22.2454 10.6366C22.7252 10.6691 23.5104 10.0267 23.6959 9.72172C23.7397 9.64548 23.7615 9.61244 23.7834 9.57992C24.4286 9.88418 25.0392 10.2572 25.6044 10.6925C25.4355 10.9073 25.3363 11.1687 25.3202 11.4415C25.3042 11.7144 25.3719 11.9856 25.5145 12.2188ZM23.5735 14.3026C23.9368 14.4136 24.2471 14.6533 24.4462 14.9768C24.6454 15.3003 24.7196 15.6853 24.655 16.0597C24.3004 15.9315 23.9951 15.695 23.7823 15.3837C23.6028 15.0532 23.5306 14.675 23.5755 14.3016L23.5735 14.3026ZM27.8591 7.20332C28.0362 7.13011 28.2239 7.086 28.4151 7.0727C28.5457 7.08337 28.535 7.17079 28.3826 7.28007C28.2519 7.37816 28.0664 7.50929 27.8591 7.63991C27.8611 7.49709 27.8611 7.35529 27.8611 7.2023L27.8591 7.20332ZM2.69384 17.0609C3.30719 16.6566 4.02058 16.4302 4.75482 16.4068C6.88135 16.4068 7.83026 18.8276 6.22875 19.8421C5.08366 20.573 3.83996 20.4855 2.69537 21.1397V17.0609H2.69384ZM2.69384 23.9966C3.89332 23.931 4.93016 24.4982 4.71111 26.0575C4.53678 27.3007 3.60972 28.3803 2.98812 29.4491C2.86818 29.6565 2.78076 29.8415 2.69384 30.0051V23.9966ZM32.3652 30.7904C32.3653 30.8033 32.3628 30.8161 32.3579 30.828C32.353 30.8399 32.3458 30.8508 32.3367 30.8599C32.3275 30.869 32.3167 30.8763 32.3048 30.8812C32.2928 30.8861 32.28 30.8886 32.2671 30.8885H23.5323C23.3522 30.4273 23.1334 29.9821 22.8782 29.5579C22.4654 28.8816 22.0139 28.2297 21.5257 27.6057C20.4025 26.1317 19.3554 24.7376 19.3554 22.4149C19.3552 21.9407 19.388 21.467 19.4535 20.9973C19.5079 20.6263 19.5735 20.2665 19.6609 19.9066C19.6716 19.8411 19.6828 19.7648 19.7702 19.7542C19.8027 19.7542 19.8464 19.7435 19.8683 19.7648C19.912 19.7974 19.9227 19.8741 19.9445 19.9285C19.9664 19.9722 19.977 20.0159 19.9989 20.0591C20.0426 20.1572 20.0751 20.2665 20.1188 20.3641C20.2169 20.604 20.3044 20.8439 20.4025 21.0949C20.5117 21.3674 20.6098 21.6403 20.7186 21.9239C20.8274 22.2075 20.9366 22.5018 21.0459 22.7879C21.1552 23.0741 21.2639 23.344 21.3732 23.6276L21.6675 24.3798C21.7437 24.5872 21.82 24.7833 21.9074 24.9897C21.9618 25.1203 22.0055 25.2621 22.0599 25.3932C22.0845 25.4378 22.1028 25.4855 22.1143 25.535C22.0841 25.7555 22.0695 25.9778 22.0705 26.2003C22.0283 26.8786 22.2424 27.5479 22.6703 28.0758C22.9251 28.3374 23.2334 28.541 23.5741 28.6725C23.9148 28.8041 24.2798 28.8606 24.6443 28.8382C25.4184 28.8382 25.975 28.3259 26.5198 27.8217L26.749 27.6143C27.7848 26.6873 28.5594 25.6077 28.5594 24.8555C28.5594 23.7648 28.0578 14.1029 27.8723 13.0889C27.852 12.986 27.8265 12.8843 27.796 12.784C28.7012 12.0424 30.5442 10.45 32.3983 8.84701V30.7884L32.3652 30.7904ZM37.338 4.13804C37.0518 4.37793 28.9737 10.8246 27.3813 11.9901L26.9559 12.2406C26.5305 12.4368 26.1488 12.5786 25.822 12.0114C25.7192 11.8587 25.6799 11.6719 25.7125 11.4907C25.745 11.3095 25.8468 11.1481 25.9963 11.0406L27.087 10.3535C30.5462 8.2056 36.3566 4.31237 37.2618 3.97438C37.4361 3.90932 37.6435 3.87628 37.338 4.13804Z" fill="#232323"/>
<path d="M43.7055 25.1855H42.964L42.8877 25.1417L41.058 21.5428L41.1017 25.098C41.1017 25.1636 41.0799 25.1855 41.0143 25.1855H40.1853C40.1198 25.1855 40.0979 25.1636 40.0979 25.098V19.6343C40.0979 19.5687 40.1304 19.5469 40.1853 19.5469H40.9375L41.0138 19.5906L42.8349 23.2221L42.8023 19.6343C42.8023 19.5687 42.8242 19.5469 42.8897 19.5469H43.7055C43.7599 19.5469 43.7929 19.5687 43.7929 19.6343V25.098C43.7929 25.1636 43.7711 25.1855 43.7055 25.1855Z" fill="#232323"/>
<path d="M125.932 25.1198C125.932 25.1636 125.91 25.1961 125.845 25.1961H124.93C124.897 25.1961 124.876 25.1742 124.854 25.1305L124.068 22.8622L123.992 22.8078H123.196C123.13 22.8078 123.109 22.8296 123.109 22.8952V25.1092C123.109 25.1747 123.087 25.1966 123.022 25.1966H122.171C122.105 25.1966 122.083 25.1747 122.083 25.1092V19.6454C122.083 19.5799 122.105 19.558 122.171 19.558H124.188C124.411 19.5414 124.636 19.5731 124.846 19.6511C125.056 19.7291 125.246 19.8514 125.405 20.0098C125.563 20.1682 125.685 20.3589 125.763 20.5689C125.841 20.7789 125.873 21.0032 125.857 21.2266V21.314C125.844 21.6703 125.705 22.0105 125.464 22.2736C125.3 22.4261 125.093 22.5354 125.093 22.6116V22.6223L125.944 25.0868C125.933 25.0868 125.933 25.1087 125.933 25.1193L125.932 25.1198ZM124.821 21.1387C124.819 20.9687 124.751 20.8062 124.63 20.686C124.51 20.5658 124.348 20.4973 124.178 20.4952H123.196C123.131 20.4952 123.109 20.5171 123.109 20.5827V21.7715C123.109 21.837 123.131 21.8589 123.196 21.8589H124.178C124.348 21.8586 124.512 21.7907 124.632 21.6701C124.753 21.5495 124.821 21.386 124.821 21.2154V21.1387Z" fill="#232323"/>
<path d="M42.6049 27.6064H40.9475C40.9386 27.6052 40.9295 27.606 40.921 27.6088C40.9124 27.6117 40.9047 27.6165 40.8983 27.6228C40.892 27.6292 40.8872 27.6369 40.8843 27.6455C40.8815 27.654 40.8807 27.6631 40.8819 27.672V28.5991C40.8819 28.6428 40.9038 28.6753 40.9475 28.6753H42.3106C42.365 28.6753 42.3762 28.6971 42.3762 28.7409V29.3299C42.3775 29.3388 42.3767 29.3479 42.3738 29.3564C42.371 29.365 42.3662 29.3727 42.3598 29.3791C42.3535 29.3855 42.3457 29.3903 42.3372 29.3931C42.3286 29.3959 42.3196 29.3968 42.3106 29.3955H40.9607C40.9518 29.3942 40.9427 29.395 40.9342 29.3979C40.9257 29.4007 40.9179 29.4055 40.9116 29.4119C40.9052 29.4182 40.9004 29.426 40.8975 29.4345C40.8947 29.4431 40.8939 29.4521 40.8952 29.4611V31.184C40.8964 31.1929 40.8956 31.202 40.8928 31.2106C40.8899 31.2191 40.8851 31.2269 40.8788 31.2332C40.8724 31.2396 40.8647 31.2444 40.8561 31.2472C40.8476 31.2501 40.8385 31.2509 40.8296 31.2496H40.1643C40.1554 31.2509 40.1463 31.2501 40.1378 31.2472C40.1292 31.2444 40.1215 31.2396 40.1151 31.2332C40.1087 31.2269 40.104 31.2191 40.1011 31.2106C40.0983 31.202 40.0975 31.1929 40.0987 31.184V26.9416C40.0975 26.9327 40.0983 26.9237 40.1011 26.9151C40.104 26.9066 40.1087 26.8988 40.1151 26.8925C40.1215 26.8861 40.1292 26.8813 40.1378 26.8785C40.1463 26.8756 40.1554 26.8748 40.1643 26.8761H42.6181C42.6271 26.8748 42.6361 26.8756 42.6447 26.8785C42.6532 26.8813 42.661 26.8861 42.6673 26.8925C42.6737 26.8988 42.6785 26.9066 42.6813 26.9151C42.6842 26.9237 42.685 26.9327 42.6837 26.9416V27.5307C42.6837 27.5851 42.6619 27.6069 42.6075 27.6069" fill="#232323"/>
<path d="M45.9642 31.1961C45.9642 31.2399 45.9317 31.2617 45.888 31.2617H45.1901C45.1464 31.2617 45.1246 31.251 45.1246 31.218L44.9172 30.4871C44.9065 30.4546 44.8954 30.4434 44.8516 30.4434H43.8351C43.7914 30.4434 43.7696 30.4541 43.7696 30.4871L43.5622 31.218C43.5584 31.232 43.5497 31.2441 43.5376 31.2521C43.5256 31.2602 43.511 31.2636 43.4966 31.2617H42.8013C42.7576 31.2617 42.7251 31.2399 42.7251 31.1961C42.7251 31.1855 42.7363 31.1855 42.7363 31.1636L44.0339 26.9212C44.0373 26.9073 44.0456 26.8952 44.0573 26.8869C44.0689 26.8786 44.0831 26.8747 44.0974 26.876H44.599C44.6134 26.8741 44.628 26.8775 44.64 26.8856C44.6521 26.8936 44.6608 26.9057 44.6646 26.9197L45.9622 31.1621C45.9515 31.1839 45.9622 31.1946 45.9622 31.1946L45.9642 31.1961ZM44.4247 28.6971C44.414 28.6533 44.3922 28.5334 44.3485 28.3154H44.3266C44.2829 28.5334 44.2504 28.6533 44.2392 28.6971L43.9993 29.6119C43.9993 29.6226 43.9886 29.6338 43.9886 29.6445C43.9886 29.6882 44.0212 29.71 44.0649 29.71H44.5665C44.6209 29.71 44.6427 29.6882 44.6427 29.6445C44.6427 29.6338 44.6321 29.6226 44.6321 29.6119L44.4247 28.6971Z" fill="#232323"/>
<path d="M125.986 31.2065C125.986 31.239 125.964 31.2609 125.921 31.2609H125.201C125.187 31.26 125.174 31.2555 125.162 31.2478C125.151 31.2401 125.142 31.2296 125.135 31.2172L124.526 29.4505L124.471 29.4068H123.852C123.843 29.4055 123.834 29.4063 123.825 29.4092C123.817 29.412 123.809 29.4168 123.802 29.4232C123.796 29.4295 123.791 29.4373 123.788 29.4458C123.786 29.4544 123.785 29.4634 123.786 29.4723V31.1953C123.787 31.2042 123.787 31.2133 123.784 31.2218C123.781 31.2304 123.776 31.2381 123.77 31.2445C123.763 31.2509 123.756 31.2557 123.747 31.2585C123.738 31.2613 123.729 31.2622 123.72 31.2609H123.055C123.001 31.2609 122.99 31.239 122.99 31.1953V26.9534C122.988 26.9445 122.989 26.9354 122.992 26.9269C122.995 26.9184 123 26.9106 123.006 26.9043C123.012 26.8979 123.02 26.8931 123.029 26.8903C123.037 26.8874 123.046 26.8866 123.055 26.8879H124.626C124.799 26.8744 124.974 26.8988 125.138 26.9593C125.301 27.0197 125.45 27.1149 125.573 27.2381C125.696 27.3614 125.791 27.5099 125.852 27.6734C125.912 27.8369 125.937 28.0116 125.923 28.1854V28.251C125.917 28.5275 125.809 28.7919 125.618 28.9926C125.498 29.1125 125.335 29.1999 125.335 29.2543V29.265L126 31.1735C125.996 31.1777 125.993 31.1829 125.991 31.1885C125.989 31.1941 125.988 31.2001 125.989 31.206L125.986 31.2065ZM125.125 28.1087C125.123 27.9762 125.07 27.8496 124.976 27.7559C124.882 27.6622 124.756 27.6088 124.623 27.6071H123.861C123.852 27.6058 123.843 27.6066 123.834 27.6094C123.826 27.6123 123.818 27.6171 123.812 27.6234C123.805 27.6298 123.8 27.6376 123.798 27.6461C123.795 27.6546 123.794 27.6637 123.795 27.6726V28.5997C123.795 28.654 123.817 28.6652 123.861 28.6652H124.623C124.689 28.6654 124.754 28.6526 124.815 28.6275C124.876 28.6023 124.932 28.5654 124.978 28.5188C125.025 28.4721 125.062 28.4168 125.087 28.3558C125.112 28.2948 125.125 28.2295 125.125 28.1636V28.1087Z" fill="#232323"/>
<path d="M50.7402 16.8644H48.3849C48.2106 16.8644 48.1343 16.7881 48.1343 16.6138V10.4197C48.1343 10.2454 48.0581 10.1691 47.8833 10.1691H43.216C43.0416 10.1691 42.9654 10.2454 42.9654 10.4197V16.6153C42.9654 16.7897 42.8892 16.8659 42.7148 16.8659H40.326C40.1517 16.8659 40.075 16.7897 40.075 16.6153V1.31331C40.075 1.13898 40.1512 1.06274 40.326 1.06274H42.7148C42.7487 1.05854 42.7832 1.06213 42.8155 1.07323C42.8478 1.08434 42.8771 1.10267 42.9013 1.12683C42.9255 1.15099 42.9438 1.18035 42.9549 1.21266C42.966 1.24498 42.9696 1.2794 42.9654 1.31331V7.28988C42.9654 7.46421 43.0416 7.54044 43.216 7.54044H47.8833C48.0576 7.54044 48.1343 7.46421 48.1343 7.28988V1.31331C48.1343 1.13898 48.2106 1.06274 48.3849 1.06274H50.7407C50.915 1.06274 50.9912 1.13898 50.9912 1.31331V16.6153C50.9912 16.7897 50.915 16.8659 50.7407 16.8659" fill="#232323"/>
<path d="M58.767 9.66674V16.6151C58.767 16.7894 58.6908 16.8657 58.5164 16.8657H56.1276C55.9533 16.8657 55.8771 16.7894 55.8771 16.6151V9.66674L51.4934 1.43302C51.4699 1.37672 51.4517 1.31835 51.439 1.25869C51.439 1.12806 51.5371 1.0625 51.7114 1.0625H54.4921L54.7213 1.21498L57.1101 6.13336C57.1262 6.18219 57.1567 6.225 57.1976 6.25613C57.2385 6.28725 57.2879 6.30523 57.3393 6.30769C57.39 6.30318 57.4385 6.28442 57.479 6.25358C57.5196 6.22273 57.5506 6.18106 57.5685 6.13336L59.9573 1.21498L60.1865 1.0625H62.9453C63.1197 1.0625 63.2178 1.13874 63.2178 1.25869C63.2118 1.31991 63.1933 1.37925 63.1634 1.43302L58.7685 9.66674" fill="#232323"/>
<path d="M73.7159 5.7298C73.7159 8.31428 71.8399 10.1684 69.0486 10.1684H66.7914C66.6171 10.1684 66.5404 10.2446 66.5404 10.419V16.6151C66.5404 16.7894 66.4641 16.8657 66.2898 16.8657H63.901C63.7267 16.8657 63.6499 16.7894 63.6499 16.6151V1.31307C63.6499 1.13874 63.7261 1.0625 63.901 1.0625H69.0481C71.8836 1.0625 73.7154 2.89222 73.7154 5.7298H73.7159ZM70.858 5.50058C70.8554 5.02121 70.6639 4.5622 70.3249 4.22323C69.9859 3.88427 69.5269 3.69271 69.0476 3.69018H66.7904C66.6161 3.69018 66.5393 3.76641 66.5393 3.94075V7.27845C66.5393 7.45278 66.6156 7.52902 66.7904 7.52902H69.0476C69.2855 7.52963 69.5212 7.48321 69.7411 7.39244C69.961 7.30168 70.1608 7.16835 70.3291 7.00011C70.4973 6.83188 70.6306 6.63207 70.7214 6.41214C70.8122 6.19222 70.8586 5.95654 70.858 5.71862V5.50058Z" fill="#232323"/>
<path d="M83.8815 16.8644H75.0267C74.8524 16.8644 74.7756 16.7882 74.7756 16.6139V1.31337C74.7756 1.13904 74.8519 1.0628 75.0267 1.0628H83.8815C83.9155 1.05852 83.9499 1.06204 83.9823 1.07311C84.0147 1.08418 84.0441 1.1025 84.0683 1.12667C84.0926 1.15084 84.1109 1.18023 84.1221 1.21259C84.1332 1.24494 84.1368 1.27942 84.1326 1.31337V3.4516C84.1326 3.62593 84.0564 3.70217 83.8815 3.70217H77.9054C77.7311 3.70217 77.6549 3.77841 77.6549 3.95274V7.28994C77.6549 7.46427 77.7311 7.54051 77.9054 7.54051H82.802C82.9763 7.54051 83.0531 7.61675 83.0531 7.79108V9.92829C83.0531 10.1026 82.9768 10.1789 82.802 10.1789H77.9054C77.7311 10.1789 77.6549 10.2551 77.6549 10.4294V13.9953C77.6549 14.1697 77.7311 14.2459 77.9054 14.2459H83.8815C83.9155 14.2416 83.9499 14.2452 83.9823 14.2562C84.0147 14.2673 84.0441 14.2856 84.0683 14.3098C84.0926 14.334 84.1109 14.3633 84.1221 14.3957C84.1332 14.4281 84.1368 14.4625 84.1326 14.4965V16.623C84.1326 16.7867 84.0564 16.8629 83.8815 16.8629" fill="#232323"/>
<path d="M96.5974 16.6659C96.5974 16.7965 96.5212 16.8621 96.3468 16.8621H93.7624C93.6861 16.8621 93.6099 16.8077 93.5331 16.6878L91.3304 10.3193L91.1342 10.1669H88.8979C88.7235 10.1669 88.6468 10.2431 88.6468 10.4174V16.6151C88.6468 16.7894 88.5705 16.8657 88.3962 16.8657H86.0074C85.8331 16.8657 85.7563 16.7894 85.7563 16.6151V1.31307C85.7563 1.13874 85.8326 1.0625 86.0074 1.0625H91.6562C94.5131 1.0625 96.3235 2.8729 96.3235 5.7298V5.98037C96.2978 6.97939 95.9058 7.93411 95.2221 8.66294C94.7748 9.08835 94.1969 9.39381 94.1969 9.61185V9.64438L96.5857 16.5475C96.5942 16.5869 96.5978 16.6272 96.5964 16.6674L96.5974 16.6659ZM93.4676 5.50109C93.4614 5.02286 93.2687 4.56597 92.9305 4.22778C92.5923 3.8896 92.1354 3.69687 91.6572 3.69068H88.8979C88.7235 3.69068 88.6468 3.76692 88.6468 3.94125V7.27845C88.6468 7.45278 88.723 7.52902 88.8979 7.52902H91.6572C92.1365 7.52649 92.5955 7.33493 92.9345 6.99597C93.2735 6.657 93.465 6.19799 93.4676 5.71862V5.50109Z" fill="#232323"/>
<path d="M100.61 16.8644H98.233C98.0587 16.8644 97.9819 16.7882 97.9819 16.6139V1.31337C97.9819 1.13904 98.0582 1.0628 98.233 1.0628H100.61C100.644 1.05852 100.679 1.06204 100.711 1.07311C100.743 1.08418 100.773 1.1025 100.797 1.12667C100.821 1.15084 100.84 1.18023 100.851 1.21259C100.862 1.24494 100.865 1.27942 100.861 1.31337V16.6154C100.861 16.7897 100.785 16.866 100.61 16.866" fill="#232323"/>
<path d="M108.768 17.1153H107.535C104.699 17.1153 102.868 15.3364 102.868 12.6767V5.2506C102.868 2.5909 104.722 0.812012 107.535 0.812012H108.768C111.581 0.812012 113.435 2.5909 113.435 5.2506V12.6767C113.435 15.3374 111.581 17.1153 108.768 17.1153ZM110.546 5.2506C110.552 5.01386 110.511 4.77831 110.424 4.55799C110.337 4.33767 110.207 4.13707 110.041 3.96815C109.875 3.79923 109.677 3.66543 109.458 3.57473C109.239 3.48403 109.004 3.43828 108.768 3.4402H107.535C107.297 3.43959 107.061 3.48601 106.841 3.57678C106.622 3.66754 106.422 3.80087 106.253 3.96911C106.085 4.13734 105.952 4.33715 105.861 4.55707C105.77 4.777 105.724 5.01268 105.725 5.2506V12.6767C105.724 12.9146 105.77 13.1503 105.861 13.3702C105.952 13.5902 106.085 13.79 106.253 13.9582C106.422 14.1264 106.622 14.2598 106.841 14.3505C107.061 14.4413 107.297 14.4877 107.535 14.4871H108.768C109.005 14.49 109.24 14.4448 109.459 14.3545C109.678 14.2641 109.877 14.1303 110.043 13.9612C110.209 13.7921 110.339 13.5911 110.426 13.3704C110.512 13.1496 110.553 12.9137 110.546 12.6767V5.2506Z" fill="#232323"/>
<path d="M125.606 16.8648H123.523L123.294 16.7342L118.158 6.64683L118.277 16.6035C118.277 16.7779 118.201 16.8541 118.026 16.8541H115.692C115.518 16.8541 115.442 16.7779 115.442 16.6035V1.31371C115.442 1.13938 115.518 1.06314 115.692 1.06314H117.797L118.026 1.18309L123.141 11.3685L123.043 1.30507C123.043 1.13074 123.119 1.0545 123.294 1.0545H125.606C125.64 1.05022 125.674 1.05374 125.707 1.06481C125.739 1.07588 125.769 1.0942 125.793 1.11837C125.817 1.14254 125.835 1.17193 125.847 1.20429C125.858 1.23664 125.861 1.27112 125.857 1.30507V16.6046C125.857 16.7901 125.781 16.8663 125.606 16.8663" fill="#232323"/>
<path d="M47.8721 25.2724H47.436C47.2194 25.2923 47.001 25.2657 46.7954 25.1945C46.5898 25.1233 46.4018 25.009 46.2439 24.8594C46.086 24.7097 45.9618 24.5281 45.8797 24.3267C45.7975 24.1252 45.7592 23.9086 45.7674 23.6912V21.0411C45.7601 20.824 45.799 20.6077 45.8815 20.4067C45.964 20.2057 46.0882 20.0245 46.2459 19.875C46.4036 19.7256 46.5912 19.6113 46.7964 19.5397C47.0016 19.4682 47.2196 19.441 47.436 19.46H47.8721C48.0886 19.441 48.3066 19.4682 48.5118 19.5397C48.7169 19.6113 48.9046 19.7256 49.0623 19.875C49.22 20.0245 49.3442 20.2057 49.4267 20.4067C49.5092 20.6077 49.548 20.824 49.5407 21.0411V23.6912C49.548 23.9083 49.5092 24.1246 49.4267 24.3256C49.3442 24.5266 49.22 24.7079 49.0623 24.8573C48.9046 25.0068 48.7169 25.121 48.5118 25.1926C48.3066 25.2641 48.0886 25.2913 47.8721 25.2724ZM48.5049 21.0411C48.5078 20.9568 48.4935 20.8727 48.4629 20.794C48.4322 20.7153 48.3859 20.6437 48.3267 20.5835C48.2675 20.5233 48.1967 20.4758 48.1185 20.4438C48.0404 20.4119 47.9565 20.3962 47.8721 20.3977H47.436C47.3513 20.3969 47.2673 20.4131 47.1889 20.4452C47.1105 20.4772 47.0393 20.5246 46.9794 20.5845C46.9195 20.6444 46.8721 20.7156 46.8401 20.794C46.808 20.8724 46.7919 20.9564 46.7926 21.0411V23.6912C46.7919 23.7759 46.808 23.8599 46.8401 23.9383C46.8721 24.0167 46.9195 24.0879 46.9794 24.1478C47.0393 24.2077 47.1105 24.2551 47.1889 24.2872C47.2673 24.3192 47.3513 24.3354 47.436 24.3346H47.8721C47.9565 24.3361 48.0404 24.3204 48.1185 24.2885C48.1967 24.2565 48.2675 24.209 48.3267 24.1488C48.3859 24.0886 48.4322 24.017 48.4629 23.9383C48.4935 23.8597 48.5078 23.7756 48.5049 23.6912V21.0411Z" fill="#232323"/>
<path d="M55.375 25.1199C55.375 25.1636 55.3532 25.1961 55.2876 25.1961H54.3728C54.3555 25.1927 54.3393 25.1849 54.326 25.1734C54.3126 25.1619 54.3024 25.1471 54.2965 25.1305L53.5077 22.8617L53.4315 22.8073H52.6355C52.57 22.8073 52.5481 22.8292 52.5481 22.8947V25.1087C52.5481 25.1742 52.5263 25.1961 52.4607 25.1961H51.6099C51.5443 25.1961 51.5225 25.1742 51.5225 25.1087V19.6449C51.5225 19.5794 51.5443 19.5575 51.6099 19.5575H53.6272C53.8505 19.5409 54.0749 19.5726 54.2849 19.6506C54.4948 19.7286 54.6855 19.8509 54.8439 20.0093C55.0023 20.1677 55.1247 20.3584 55.2027 20.5684C55.2806 20.7784 55.3124 21.0027 55.2957 21.2261V21.3135C55.2831 21.6699 55.144 22.01 54.9034 22.2731C54.7397 22.4256 54.5329 22.5349 54.5329 22.6111V22.6218L55.3837 25.0863C55.373 25.0863 55.373 25.1082 55.373 25.1188L55.375 25.1199ZM54.2498 21.1382C54.2476 20.9682 54.1792 20.8058 54.059 20.6855C53.9388 20.5653 53.7763 20.4968 53.6063 20.4947H52.6249C52.5593 20.4947 52.5375 20.5166 52.5375 20.5822V21.771C52.5375 21.8365 52.5593 21.8584 52.6249 21.8584H53.6094C53.7799 21.8581 53.9434 21.7902 54.064 21.6696C54.1847 21.549 54.2525 21.3855 54.2528 21.2149L54.2498 21.1382Z" fill="#232323"/>
<path d="M57.8416 21.0411C57.8416 21.4665 58.2558 21.5865 58.8774 21.8701C59.837 22.3062 60.2843 22.7972 60.2843 23.6912C60.2925 23.9086 60.2542 24.1252 60.172 24.3267C60.0899 24.5281 59.9657 24.7097 59.8078 24.8594C59.6499 25.009 59.4619 25.1233 59.2563 25.1945C59.0507 25.2657 58.8323 25.2923 58.6157 25.2724H58.2558C58.0421 25.2871 57.8276 25.2569 57.6262 25.1836C57.4249 25.1103 57.2411 24.9956 57.0868 24.847C56.8891 24.6729 56.7454 24.446 56.6726 24.1928C56.6726 24.171 56.6945 24.1491 56.727 24.1273L57.5011 23.7456C57.5139 23.737 57.5294 23.7332 57.5448 23.7349C57.6103 23.7349 57.621 23.8223 57.7084 24.0073C57.7614 24.1012 57.8371 24.1804 57.9285 24.2376C58.02 24.2947 58.1243 24.3281 58.2319 24.3346H58.5918C58.7623 24.3344 58.9258 24.2665 59.0465 24.1459C59.1671 24.0253 59.235 23.8618 59.2352 23.6912C59.2352 23.2439 58.8647 23.0813 58.2756 22.8078C57.2942 22.3387 56.7925 21.9352 56.7925 21.0411C56.7852 20.824 56.8241 20.6077 56.9066 20.4067C56.9891 20.2057 57.1133 20.0245 57.271 19.875C57.4287 19.7256 57.6164 19.6113 57.8215 19.5397C58.0267 19.4682 58.2447 19.441 58.4611 19.46H58.5923C58.9569 19.4436 59.317 19.5469 59.6174 19.7542C59.8869 19.9398 60.0894 20.2071 60.1953 20.5166C60.1953 20.5491 60.1735 20.571 60.1409 20.5929L59.3668 20.9746C59.3536 20.9821 59.3384 20.9858 59.3231 20.9852C59.2794 20.9852 59.2576 20.9309 59.2032 20.8546C59.0289 20.571 58.8759 20.4073 58.6035 20.4073H58.4728C58.3051 20.4078 58.1444 20.4747 58.026 20.5936C57.9076 20.7124 57.8413 20.8734 57.8416 21.0411Z" fill="#232323"/>
<path d="M66.119 25.12C66.116 25.143 66.104 25.1639 66.0856 25.1782C66.0673 25.1925 66.044 25.1989 66.0209 25.1962H64.9739L64.8977 25.1525L63.4909 22.906C63.4828 22.892 63.4718 22.8799 63.4586 22.8705C63.4455 22.8611 63.4305 22.8547 63.4146 22.8516C63.4002 22.8501 63.3856 22.8522 63.3722 22.8579C63.3589 22.8636 63.3472 22.8727 63.3384 22.8841L62.9785 23.3639V25.1088C62.9785 25.1743 62.9567 25.1962 62.8911 25.1962H62.0403C61.9747 25.1962 61.9529 25.1743 61.9529 25.1088V19.645C61.9529 19.5795 61.9747 19.5576 62.0403 19.5576H62.8911C62.9455 19.5576 62.9785 19.5795 62.9785 19.645V21.6298C62.9785 21.6953 63.0111 21.739 63.0548 21.739C63.0706 21.736 63.0856 21.7295 63.0988 21.7201C63.1119 21.7108 63.1229 21.6987 63.131 21.6847L64.7234 19.5907L64.7996 19.5581H65.8248C65.8903 19.5581 65.9228 19.58 65.9228 19.6344C65.9193 19.6607 65.9119 19.6864 65.901 19.7106L64.1668 21.859C64.1561 21.8808 64.145 21.8915 64.145 21.9027C64.145 21.9246 64.1556 21.9352 64.1668 21.9571L66.086 25.0762C66.1078 25.0762 66.1185 25.0981 66.1185 25.12" fill="#232323"/>
<path d="M73.2381 20.4855H71.1004C71.0348 20.4855 71.013 20.5074 71.013 20.573V21.7618C71.013 21.8273 71.0348 21.8492 71.1004 21.8492H72.8452C72.9108 21.8492 72.9327 21.871 72.9327 21.9366V22.699C72.9327 22.7645 72.9108 22.7864 72.8452 22.7864H71.1004C71.0348 22.7864 71.013 22.8083 71.013 22.8738V25.0878C71.013 25.1533 70.9911 25.1752 70.9255 25.1752H70.0747C70.0092 25.1752 69.9873 25.1533 69.9873 25.0878V19.624C69.9873 19.5585 70.0092 19.5366 70.0747 19.5366H73.2371C73.2915 19.5366 73.3245 19.5585 73.3245 19.624V20.3864C73.3245 20.4627 73.3027 20.4845 73.2371 20.4845" fill="#232323"/>
<path d="M76.9239 25.2724H76.4878C76.2712 25.2923 76.0528 25.2657 75.8472 25.1945C75.6416 25.1233 75.4536 25.009 75.2957 24.8594C75.1378 24.7097 75.0136 24.5281 74.9314 24.3267C74.8492 24.1252 74.811 23.9086 74.8192 23.6912V21.0411C74.8119 20.824 74.8508 20.6077 74.9333 20.4067C75.0157 20.2057 75.1399 20.0245 75.2976 19.875C75.4554 19.7256 75.643 19.6113 75.8482 19.5397C76.0534 19.4682 76.2714 19.441 76.4878 19.46H76.9239C77.1404 19.441 77.3584 19.4682 77.5635 19.5397C77.7687 19.6113 77.9563 19.7256 78.1141 19.875C78.2718 20.0245 78.396 20.2057 78.4785 20.4067C78.5609 20.6077 78.5998 20.824 78.5925 21.0411V23.6912C78.5989 23.9081 78.5594 24.1239 78.4766 24.3245C78.3938 24.5251 78.2696 24.706 78.1121 24.8553C77.9546 25.0045 77.7673 25.1188 77.5626 25.1907C77.3578 25.2626 77.1402 25.2904 76.9239 25.2724ZM77.5562 21.0411C77.5591 20.9568 77.5448 20.8728 77.5142 20.7941C77.4836 20.7155 77.4373 20.6439 77.3782 20.5837C77.319 20.5235 77.2483 20.476 77.1702 20.444C77.0921 20.412 77.0083 20.3963 76.9239 20.3977H76.4878C76.4031 20.3969 76.3191 20.4131 76.2407 20.4452C76.1623 20.4772 76.0911 20.5246 76.0312 20.5845C75.9713 20.6444 75.9239 20.7156 75.8918 20.794C75.8598 20.8724 75.8436 20.9564 75.8444 21.0411V23.6912C75.8436 23.7759 75.8598 23.8599 75.8918 23.9383C75.9239 24.0167 75.9713 24.0879 76.0312 24.1478C76.0911 24.2077 76.1623 24.2551 76.2407 24.2872C76.3191 24.3192 76.4031 24.3354 76.4878 24.3346H76.9239C77.0083 24.3361 77.0921 24.3203 77.1702 24.2883C77.2483 24.2564 77.319 24.2088 77.3782 24.1486C77.4373 24.0884 77.4836 24.0169 77.5142 23.9382C77.5448 23.8596 77.5591 23.7755 77.5562 23.6912V21.0411Z" fill="#232323"/>
<path d="M84.4288 25.1198C84.4288 25.1635 84.407 25.196 84.3414 25.196H83.4265C83.394 25.196 83.3721 25.1742 83.3503 25.1305L82.565 22.8621L82.4888 22.8077H81.6817C81.6161 22.8077 81.5943 22.8296 81.5943 22.8952V25.1091C81.5943 25.1747 81.5724 25.1965 81.5068 25.1965H80.656C80.5905 25.1965 80.5686 25.1747 80.5686 25.1091V19.6454C80.5686 19.5798 80.5905 19.558 80.656 19.558H82.6626C82.8862 19.5405 83.1109 19.5716 83.3213 19.6493C83.5317 19.7269 83.7227 19.8493 83.8813 20.0079C84.0399 20.1664 84.1622 20.3575 84.2399 20.5679C84.3176 20.7783 84.3487 21.003 84.3312 21.2266V21.314C84.3186 21.6703 84.1794 22.0105 83.9388 22.2736C83.7752 22.426 83.5683 22.5353 83.5683 22.6116V22.6222L84.4191 25.0868C84.4298 25.0868 84.4298 25.1086 84.4298 25.1193L84.4288 25.1198ZM83.3066 21.1386C83.3045 20.9686 83.236 20.8062 83.1158 20.686C82.9956 20.5658 82.8331 20.4973 82.6631 20.4952H81.6817C81.6161 20.4952 81.5943 20.517 81.5943 20.5826V21.7714C81.5943 21.837 81.6161 21.8588 81.6817 21.8588H82.6631C82.8337 21.8586 82.9972 21.7907 83.1178 21.6701C83.2384 21.5495 83.3063 21.3859 83.3066 21.2154V21.1386Z" fill="#232323"/>
<path d="M88.2656 25.1853H86.259C86.1935 25.1853 86.1716 25.1634 86.1716 25.0979V19.6341C86.1716 19.5686 86.1935 19.5467 86.259 19.5467H88.2763C88.4999 19.5292 88.7246 19.5604 88.935 19.6381C89.1454 19.7157 89.3364 19.8381 89.495 19.9966C89.6536 20.1552 89.7759 20.3463 89.8536 20.5566C89.9313 20.767 89.9624 20.9917 89.9449 21.2153V21.3027C89.9399 21.5207 89.8717 21.7326 89.7487 21.9126C89.6362 22.0451 89.5307 22.1834 89.4326 22.3269C89.4326 22.3594 89.5637 22.4905 89.7269 22.7304C89.859 22.9281 89.9344 23.1582 89.9449 23.3957V23.5264C89.9609 23.7498 89.9283 23.9741 89.8493 24.1838C89.7704 24.3934 89.647 24.5835 89.4877 24.741C89.3283 24.8985 89.1368 25.0196 88.9262 25.096C88.7156 25.1725 88.4909 25.2024 88.2677 25.1838L88.2656 25.1853ZM88.9218 21.1381C88.9197 20.9681 88.8512 20.8056 88.731 20.6854C88.6108 20.5652 88.4483 20.4967 88.2783 20.4946H87.2949C87.2293 20.4946 87.2074 20.5165 87.2074 20.582V21.7709C87.2074 21.8364 87.2293 21.8583 87.2949 21.8583H88.2763C88.4469 21.858 88.6104 21.7901 88.731 21.6695C88.8516 21.5489 88.9195 21.3854 88.9198 21.2148V21.1386L88.9218 21.1381ZM88.9198 23.4288C88.9212 23.3444 88.9054 23.2606 88.8735 23.1825C88.8415 23.1044 88.7939 23.0337 88.7338 22.9745C88.6736 22.9154 88.602 22.8691 88.5233 22.8385C88.4447 22.8079 88.3606 22.7936 88.2763 22.7965H87.2949C87.2293 22.7965 87.2074 22.8184 87.2074 22.8839V24.149C87.2074 24.2145 87.2293 24.2364 87.2949 24.2364H88.2763C88.361 24.2371 88.445 24.221 88.5234 24.1889C88.6018 24.1569 88.673 24.1095 88.7329 24.0496C88.7928 23.9897 88.8402 23.9185 88.8723 23.8401C88.9044 23.7617 88.9205 23.6776 88.9198 23.5929V23.4288Z" fill="#232323"/>
<path d="M93.8382 25.2729H93.4021C93.1854 25.2927 92.9671 25.2662 92.7615 25.195C92.5559 25.1238 92.3679 25.0095 92.21 24.8599C92.0521 24.7102 91.9279 24.5286 91.8457 24.3272C91.7636 24.1257 91.7253 23.9091 91.7335 23.6917V19.6348C91.7335 19.5692 91.7554 19.5474 91.8209 19.5474H92.6606C92.7149 19.5474 92.748 19.5692 92.748 19.6348V23.6917C92.7472 23.7764 92.7634 23.8604 92.7954 23.9388C92.8275 24.0172 92.8749 24.0884 92.9348 24.1483C92.9947 24.2082 93.0659 24.2556 93.1443 24.2877C93.2227 24.3197 93.3067 24.3359 93.3914 24.3351H93.8275C93.9119 24.3366 93.9958 24.3209 94.0739 24.289C94.1521 24.257 94.2229 24.2095 94.2821 24.1493C94.3413 24.0891 94.3876 24.0175 94.4183 23.9388C94.4489 23.8601 94.4632 23.776 94.4603 23.6917V19.6348C94.4603 19.5692 94.4821 19.5474 94.5477 19.5474H95.3985C95.4641 19.5474 95.486 19.5692 95.486 19.6348V23.6917C95.4976 23.908 95.4624 24.1244 95.3828 24.3259C95.3033 24.5275 95.1812 24.7095 95.0249 24.8596C94.8686 25.0097 94.6818 25.1243 94.4771 25.1956C94.2725 25.2669 94.0549 25.2933 93.8392 25.2729" fill="#232323"/>
<path d="M101.089 25.1855H100.347L100.271 25.1417L98.4413 21.5428L98.485 25.098C98.485 25.1636 98.4632 25.1855 98.3976 25.1855H97.5686C97.5031 25.1855 97.4812 25.1636 97.4812 25.098V19.6343C97.4812 19.5687 97.5031 19.5469 97.5686 19.5469H98.3209L98.3971 19.5906L100.218 23.2221L100.186 19.6343C100.186 19.5687 100.208 19.5469 100.273 19.5469H101.102C101.156 19.5469 101.189 19.5687 101.189 19.6343V25.098C101.189 25.1636 101.157 25.1855 101.091 25.1855" fill="#232323"/>
<path d="M105.387 25.1853H103.38C103.315 25.1853 103.293 25.1634 103.293 25.0979V19.6341C103.293 19.5686 103.315 19.5467 103.38 19.5467H105.397C105.621 19.5292 105.846 19.5604 106.056 19.6381C106.266 19.7157 106.458 19.8381 106.616 19.9966C106.775 20.1552 106.897 20.3463 106.975 20.5566C107.052 20.767 107.084 20.9917 107.066 21.2153V23.5274C107.08 23.7504 107.046 23.9739 106.967 24.1827C106.887 24.3916 106.764 24.5809 106.605 24.738C106.446 24.8951 106.255 25.0163 106.045 25.0933C105.835 25.1704 105.612 25.2016 105.389 25.1848L105.387 25.1853ZM106.032 21.1391C106.03 20.9691 105.962 20.8067 105.841 20.6864C105.721 20.5662 105.559 20.4977 105.389 20.4956H104.407C104.342 20.4956 104.32 20.5175 104.32 20.5831V24.1602C104.32 24.2257 104.352 24.2476 104.407 24.2476H105.389C105.473 24.2483 105.557 24.2322 105.636 24.2001C105.714 24.168 105.786 24.1207 105.845 24.0608C105.905 24.0009 105.953 23.9296 105.985 23.8512C106.017 23.7728 106.033 23.6888 106.032 23.6041V21.1391Z" fill="#232323"/>
<path d="M114.755 20.4855H112.628C112.563 20.4855 112.541 20.5074 112.541 20.573V21.7618C112.541 21.8273 112.573 21.8492 112.628 21.8492H114.373C114.439 21.8492 114.46 21.871 114.46 21.9366V22.699C114.46 22.7645 114.428 22.7864 114.373 22.7864H112.628C112.563 22.7864 112.541 22.8083 112.541 22.8738V25.0878C112.541 25.1533 112.519 25.1752 112.453 25.1752H111.603C111.537 25.1752 111.515 25.1533 111.515 25.0878V19.624C111.515 19.5585 111.537 19.5366 111.603 19.5366H114.765C114.819 19.5366 114.852 19.5585 114.852 19.624V20.3864C114.842 20.4627 114.809 20.4845 114.754 20.4845" fill="#232323"/>
<path d="M118.441 25.2724H118.005C117.788 25.292 117.571 25.2652 117.366 25.1937C117.161 25.1223 116.974 25.0078 116.817 24.8581C116.66 24.7083 116.537 24.5267 116.456 24.3255C116.375 24.1242 116.338 23.9079 116.347 23.6912V21.0411C116.34 20.8249 116.378 20.6094 116.459 20.409C116.541 20.2086 116.664 20.0278 116.821 19.8784C116.977 19.729 117.164 19.6145 117.368 19.5424C117.572 19.4703 117.789 19.4422 118.005 19.46H118.441C118.657 19.441 118.875 19.4682 119.08 19.5397C119.285 19.6113 119.473 19.7256 119.631 19.875C119.789 20.0245 119.913 20.2057 119.995 20.4067C120.078 20.6077 120.117 20.824 120.109 21.0411V23.6912C120.115 23.9078 120.075 24.1232 119.991 24.3234C119.908 24.5235 119.784 24.704 119.627 24.8531C119.469 25.0021 119.283 25.1165 119.078 25.1887C118.874 25.2609 118.657 25.2894 118.441 25.2724ZM119.073 21.0411C119.076 20.9568 119.062 20.8727 119.031 20.794C119.001 20.7153 118.954 20.6437 118.895 20.5835C118.836 20.5233 118.765 20.4758 118.687 20.4438C118.609 20.4119 118.525 20.3962 118.441 20.3977H118.005C117.92 20.3969 117.836 20.4131 117.757 20.4452C117.679 20.4772 117.608 20.5246 117.548 20.5845C117.488 20.6444 117.441 20.7156 117.409 20.794C117.377 20.8724 117.36 20.9564 117.361 21.0411V23.6912C117.36 23.7759 117.377 23.8599 117.409 23.9383C117.441 24.0167 117.488 24.0879 117.548 24.1478C117.608 24.2077 117.679 24.2551 117.757 24.2872C117.836 24.3192 117.92 24.3354 118.005 24.3346H118.441C118.525 24.3361 118.609 24.3204 118.687 24.2885C118.765 24.2565 118.836 24.209 118.895 24.1488C118.954 24.0886 119.001 24.017 119.031 23.9383C119.062 23.8597 119.076 23.7756 119.073 23.6912V21.0411Z" fill="#232323"/>
<path d="M49.192 31.2574H48.6146L48.549 31.2249L47.1203 28.433L47.1529 31.1918C47.1541 31.2008 47.1533 31.2098 47.1505 31.2184C47.1476 31.2269 47.1428 31.2347 47.1365 31.241C47.1301 31.2474 47.1224 31.2522 47.1138 31.255C47.1053 31.2579 47.0962 31.2587 47.0873 31.2574H46.4438C46.3894 31.2574 46.3783 31.2356 46.3783 31.1918V26.95C46.377 26.9411 46.3778 26.932 46.3807 26.9234C46.3835 26.9149 46.3883 26.9071 46.3947 26.9008C46.401 26.8944 46.4088 26.8896 46.4173 26.8868C46.4258 26.8839 46.4349 26.8831 46.4438 26.8844H47.0329L47.0985 26.9169L48.516 29.7413L48.4835 26.9494C48.4822 26.9405 48.483 26.9315 48.4858 26.9229C48.4887 26.9144 48.4935 26.9066 48.4999 26.9003C48.5062 26.8939 48.514 26.8891 48.5225 26.8863C48.531 26.8834 48.5401 26.8826 48.549 26.8839H49.1925C49.2014 26.8826 49.2105 26.8834 49.219 26.8863C49.2275 26.8891 49.2353 26.8939 49.2417 26.9003C49.248 26.9066 49.2528 26.9144 49.2557 26.9229C49.2585 26.9315 49.2593 26.9405 49.258 26.9494V31.1913C49.2593 31.2003 49.2585 31.2093 49.2557 31.2179C49.2528 31.2264 49.248 31.2342 49.2417 31.2405C49.2353 31.2469 49.2275 31.2517 49.219 31.2545C49.2105 31.2574 49.2014 31.2582 49.1925 31.2569" fill="#232323"/>
<path d="M52.3538 27.606H51.5914C51.5825 27.6048 51.5735 27.6056 51.5649 27.6084C51.5564 27.6113 51.5486 27.6161 51.5423 27.6224C51.5359 27.6288 51.5311 27.6365 51.5283 27.6451C51.5254 27.6536 51.5246 27.6627 51.5259 27.6716V31.1831C51.5272 31.192 51.5263 31.2011 51.5235 31.2097C51.5207 31.2182 51.5159 31.2259 51.5095 31.2323C51.5031 31.2387 51.4954 31.2435 51.4868 31.2463C51.4783 31.2492 51.4692 31.25 51.4603 31.2487H50.8062C50.7518 31.2487 50.7406 31.2268 50.7406 31.1831V27.6716C50.7406 27.6172 50.7188 27.606 50.6751 27.606H49.9228C49.9139 27.6073 49.9048 27.6065 49.8963 27.6036C49.8878 27.6008 49.88 27.596 49.8737 27.5897C49.8673 27.5833 49.8625 27.5755 49.8597 27.567C49.8568 27.5585 49.856 27.5494 49.8573 27.5405V26.9514C49.856 26.9425 49.8568 26.9334 49.8597 26.9249C49.8625 26.9163 49.8673 26.9086 49.8737 26.9022C49.88 26.8959 49.8878 26.8911 49.8963 26.8882C49.9048 26.8854 49.9139 26.8846 49.9228 26.8858H52.3767C52.3856 26.8846 52.3947 26.8854 52.4032 26.8882C52.4118 26.8911 52.4195 26.8959 52.4259 26.9022C52.4322 26.9086 52.437 26.9163 52.4399 26.9249C52.4427 26.9334 52.4435 26.9425 52.4423 26.9514V27.5405C52.4204 27.5842 52.3985 27.606 52.3548 27.606" fill="#232323"/>
<path d="M55.7134 31.1961C55.7134 31.2399 55.6808 31.2617 55.6371 31.2617H54.9393C54.8956 31.2617 54.8737 31.251 54.8737 31.218L54.6664 30.4871C54.6625 30.4732 54.6538 30.461 54.6418 30.453C54.6297 30.445 54.6151 30.4416 54.6008 30.4434H53.6082C53.5645 30.4434 53.5426 30.4541 53.5426 30.4871L53.3352 31.218C53.3314 31.232 53.3227 31.2441 53.3106 31.2521C53.2986 31.2602 53.284 31.2636 53.2697 31.2617H52.5723C52.5286 31.2617 52.4961 31.2399 52.4961 31.1961C52.4961 31.1855 52.5068 31.1855 52.5068 31.1636L53.8043 26.9212C53.8078 26.9073 53.8162 26.895 53.828 26.8867C53.8397 26.8784 53.8541 26.8746 53.8684 26.876H54.37C54.3844 26.8741 54.3989 26.8775 54.411 26.8856C54.423 26.8936 54.4318 26.9057 54.4356 26.9197L55.7332 31.1621C55.7006 31.1839 55.7113 31.1946 55.7113 31.1946L55.7134 31.1961ZM54.1866 28.6971C54.1759 28.6533 54.154 28.5334 54.1103 28.3154H54.0885C54.0447 28.5334 54.0122 28.6533 54.001 28.6971L53.7611 29.6119C53.7611 29.6226 53.7505 29.6338 53.7505 29.6445C53.7505 29.6882 53.783 29.71 53.8267 29.71H54.339C54.3827 29.71 54.4153 29.6882 54.4153 29.6445C54.4153 29.6338 54.4046 29.6226 54.4046 29.6119L54.1866 28.6971Z" fill="#232323"/>
<path d="M56.6836 28.0423C56.6836 28.3696 56.9997 28.4677 57.4907 28.6857C58.2322 29.0237 58.5814 29.4054 58.5814 30.0926C58.5879 30.2618 58.5582 30.4304 58.4944 30.5872C58.4305 30.7441 58.334 30.8855 58.2112 31.0021C58.0885 31.1188 57.9422 31.2079 57.7823 31.2636C57.6224 31.3192 57.4525 31.3402 57.2838 31.3251H56.9982C56.8329 31.3362 56.667 31.3129 56.5112 31.2565C56.3554 31.2002 56.213 31.1121 56.093 30.9978C55.9417 30.8643 55.832 30.6902 55.7769 30.4961C55.7769 30.4854 55.7875 30.4636 55.8206 30.4417L56.4203 30.1368C56.4246 30.1327 56.4298 30.1296 56.4354 30.1278C56.441 30.1259 56.447 30.1254 56.4528 30.1261C56.4966 30.1261 56.5184 30.1917 56.584 30.3335C56.6244 30.4083 56.6842 30.4711 56.757 30.5151C56.8298 30.5592 56.9131 30.583 56.9982 30.584H57.2818C57.3477 30.5842 57.4131 30.5714 57.474 30.5463C57.535 30.5211 57.5903 30.4842 57.637 30.4376C57.6836 30.3909 57.7205 30.3355 57.7457 30.2746C57.7708 30.2136 57.7836 30.1483 57.7834 30.0824C57.7834 29.7332 57.4892 29.6133 57.0419 29.3952C56.2795 29.0242 55.8861 28.7081 55.8861 28.0229C55.8797 27.8537 55.9093 27.6851 55.9732 27.5282C56.037 27.3714 56.1335 27.23 56.2563 27.1134C56.3791 26.9967 56.5253 26.9076 56.6852 26.8519C56.8451 26.7962 57.0151 26.7753 57.1837 26.7904H57.293C57.5762 26.7776 57.8559 26.8581 58.0889 27.0196C58.2961 27.1642 58.4526 27.3703 58.5362 27.6087C58.5362 27.6412 58.525 27.6524 58.4925 27.6631L57.8927 27.9574C57.8833 27.9644 57.8719 27.9681 57.8602 27.968C57.8277 27.968 57.8058 27.9243 57.7728 27.8588C57.6416 27.6407 57.5217 27.5096 57.3036 27.5096H57.1949C57.0586 27.5198 56.931 27.58 56.8364 27.6786C56.7419 27.7772 56.6871 27.9072 56.6826 28.0438" fill="#232323"/>
<path d="M61.3404 27.606H60.5877C60.5333 27.606 60.5221 27.6279 60.5221 27.6716V31.1831C60.5234 31.192 60.5226 31.2011 60.5197 31.2097C60.5169 31.2182 60.5121 31.2259 60.5057 31.2323C60.4994 31.2387 60.4916 31.2435 60.4831 31.2463C60.4746 31.2492 60.4655 31.25 60.4566 31.2487H59.8024C59.7935 31.25 59.7844 31.2492 59.7759 31.2463C59.7674 31.2435 59.7596 31.2387 59.7532 31.2323C59.7469 31.2259 59.7421 31.2182 59.7393 31.2097C59.7364 31.2011 59.7356 31.192 59.7369 31.1831V27.6716C59.7369 27.6172 59.715 27.606 59.6713 27.606H58.9089C58.9 27.6073 58.8909 27.6065 58.8824 27.6036C58.8738 27.6008 58.8661 27.596 58.8597 27.5897C58.8534 27.5833 58.8486 27.5755 58.8457 27.567C58.8429 27.5585 58.8421 27.5494 58.8434 27.5405V26.9514C58.8421 26.9425 58.8429 26.9334 58.8457 26.9249C58.8486 26.9163 58.8534 26.9086 58.8597 26.9022C58.8661 26.8959 58.8738 26.8911 58.8824 26.8882C58.8909 26.8854 58.9 26.8846 58.9089 26.8858H61.3628C61.3717 26.8846 61.3807 26.8854 61.3893 26.8882C61.3978 26.8911 61.4056 26.8959 61.412 26.9022C61.4183 26.9086 61.4231 26.9163 61.426 26.9249C61.4288 26.9334 61.4296 26.9425 61.4283 26.9514V27.5405C61.427 27.5506 61.4237 27.5603 61.4186 27.5691C61.4135 27.5779 61.4066 27.5856 61.3985 27.5917C61.3903 27.5978 61.381 27.6022 61.3711 27.6047C61.3613 27.6072 61.351 27.6076 61.3409 27.606" fill="#232323"/>
<path d="M62.7141 31.2574H62.0488C62.0399 31.2587 62.0308 31.2579 62.0223 31.255C62.0138 31.2522 62.006 31.2474 61.9996 31.241C61.9933 31.2346 61.9885 31.2269 61.9856 31.2184C61.9828 31.2098 61.982 31.2007 61.9832 31.1918V26.9499C61.982 26.941 61.9828 26.932 61.9856 26.9234C61.9885 26.9149 61.9933 26.9071 61.9996 26.9008C62.006 26.8944 62.0138 26.8896 62.0223 26.8868C62.0308 26.8839 62.0399 26.8831 62.0488 26.8844H62.7141C62.723 26.8831 62.7321 26.8839 62.7406 26.8868C62.7492 26.8896 62.757 26.8944 62.7633 26.9008C62.7697 26.9071 62.7745 26.9149 62.7773 26.9234C62.7801 26.932 62.781 26.941 62.7797 26.9499V31.1918C62.781 31.2007 62.7801 31.2098 62.7773 31.2184C62.7745 31.2269 62.7697 31.2346 62.7633 31.241C62.757 31.2474 62.7492 31.2522 62.7406 31.255C62.7321 31.2579 62.723 31.2587 62.7141 31.2574Z" fill="#232323"/>
<path d="M64.2739 28.0423C64.2739 28.3696 64.5901 28.4677 65.081 28.6857C65.8226 29.0237 66.1717 29.4054 66.1717 30.0926C66.1782 30.2618 66.1485 30.4304 66.0847 30.5872C66.0209 30.7441 65.9244 30.8855 65.8016 31.0021C65.6788 31.1188 65.5326 31.2079 65.3727 31.2636C65.2128 31.3192 65.0428 31.3402 64.8742 31.3251H64.5885C64.4232 31.3362 64.2574 31.3129 64.1015 31.2565C63.9457 31.2002 63.8033 31.1121 63.6833 30.9978C63.5321 30.8643 63.4223 30.6902 63.3672 30.4961C63.3672 30.4854 63.3779 30.4636 63.4109 30.4417L64.0208 30.1368C64.0251 30.1327 64.0303 30.1296 64.0359 30.1278C64.0415 30.1259 64.0475 30.1254 64.0533 30.1261C64.0971 30.1261 64.1189 30.1917 64.1845 30.3335C64.2249 30.4083 64.2847 30.4711 64.3575 30.5151C64.4303 30.5592 64.5136 30.583 64.5987 30.584H64.8823C64.9482 30.5842 65.0136 30.5714 65.0745 30.5463C65.1355 30.5211 65.1908 30.4842 65.2375 30.4376C65.2841 30.3909 65.321 30.3355 65.3462 30.2746C65.3713 30.2136 65.3842 30.1483 65.384 30.0824C65.384 29.7332 65.0897 29.6133 64.6424 29.3952C63.88 29.0242 63.4866 28.7081 63.4866 28.0229C63.4802 27.8537 63.5099 27.6851 63.5737 27.5282C63.6375 27.3714 63.734 27.23 63.8568 27.1134C63.9796 26.9967 64.1258 26.9076 64.2857 26.8519C64.4456 26.7962 64.6156 26.7753 64.7842 26.7904H64.8935C65.1767 26.7776 65.4564 26.8581 65.6894 27.0196C65.8966 27.1642 66.0531 27.3703 66.1367 27.6087C66.1367 27.6412 66.126 27.6524 66.093 27.6631L65.4932 27.9574C65.4838 27.9644 65.4724 27.9681 65.4607 27.968C65.4282 27.968 65.417 27.9243 65.3733 27.8588C65.2421 27.6407 65.1222 27.5096 64.9041 27.5096H64.7954C64.6573 27.5175 64.5271 27.5766 64.4303 27.6754C64.3335 27.7742 64.277 27.9055 64.2719 28.0438" fill="#232323"/>
<path d="M70.0102 31.2068C70.0102 31.2394 69.9777 31.2612 69.934 31.2612H69.1162L69.0618 31.2287L67.9711 29.4839C67.9493 29.4513 67.9274 29.4401 67.9167 29.4401C67.904 29.4398 67.8913 29.4425 67.8799 29.4482C67.8685 29.4539 67.8586 29.4623 67.8512 29.4727L67.5676 29.8437V31.1962C67.5688 31.2051 67.568 31.2142 67.5652 31.2227C67.5623 31.2312 67.5575 31.239 67.5512 31.2453C67.5448 31.2517 67.537 31.2565 67.5285 31.2593C67.52 31.2622 67.5109 31.263 67.502 31.2617H66.8479C66.839 31.263 66.8299 31.2622 66.8213 31.2593C66.8128 31.2565 66.8051 31.2517 66.7987 31.2453C66.7923 31.239 66.7876 31.2312 66.7847 31.2227C66.7819 31.2142 66.781 31.2051 66.7823 31.1962V26.9543C66.781 26.9454 66.7819 26.9363 66.7847 26.9278C66.7876 26.9192 66.7923 26.9115 66.7987 26.9051C66.8051 26.8987 66.8128 26.8939 66.8213 26.8911C66.8299 26.8882 66.839 26.8874 66.8479 26.8887H67.5132C67.5221 26.8874 67.5312 26.8882 67.5397 26.8911C67.5482 26.8939 67.556 26.8987 67.5624 26.9051C67.5687 26.9115 67.5735 26.9192 67.5763 26.9278C67.5792 26.9363 67.58 26.9454 67.5787 26.9543V28.5029C67.5787 28.5573 67.6113 28.5903 67.6443 28.5903C67.6581 28.5895 67.6714 28.5849 67.6829 28.5773C67.6944 28.5696 67.7037 28.559 67.7099 28.5466L68.9531 26.9202L69.0075 26.8877H69.8034C69.8578 26.8877 69.8796 26.9095 69.8796 26.9421C69.8753 26.9612 69.8679 26.9796 69.8578 26.9965L68.5053 28.6656C68.4983 28.675 68.4945 28.6864 68.4946 28.6981C68.4946 28.7088 68.5053 28.72 68.5053 28.7418L69.9996 31.1626C69.9996 31.1733 70.0102 31.1951 70.0102 31.2063" fill="#232323"/>
<path d="M72.9214 31.2574H70.4675C70.4131 31.2574 70.402 31.2355 70.402 31.1918V26.9499C70.4007 26.941 70.4015 26.932 70.4043 26.9234C70.4072 26.9149 70.412 26.9071 70.4183 26.9008C70.4247 26.8944 70.4325 26.8896 70.441 26.8868C70.4495 26.8839 70.4586 26.8831 70.4675 26.8844H72.9214C72.9303 26.8831 72.9394 26.8839 72.9479 26.8868C72.9564 26.8896 72.9642 26.8944 72.9706 26.9008C72.9769 26.9071 72.9817 26.9149 72.9845 26.9234C72.9874 26.932 72.9882 26.941 72.9869 26.9499V27.539C72.9882 27.5479 72.9874 27.557 72.9845 27.5655C72.9817 27.5741 72.9769 27.5818 72.9706 27.5882C72.9642 27.5945 72.9564 27.5993 72.9479 27.6022C72.9394 27.605 72.9303 27.6058 72.9214 27.6046H71.2665C71.2121 27.6046 71.2009 27.6264 71.2009 27.6808V28.6079C71.2009 28.6623 71.2228 28.6734 71.2665 28.6734H72.6296C72.6385 28.6722 72.6476 28.673 72.6562 28.6758C72.6647 28.6787 72.6724 28.6835 72.6788 28.6898C72.6852 28.6962 72.69 28.7039 72.6928 28.7125C72.6957 28.721 72.6965 28.7301 72.6952 28.739V29.3281C72.6965 29.337 72.6957 29.3461 72.6928 29.3546C72.69 29.3631 72.6852 29.3709 72.6788 29.3772C72.6724 29.3836 72.6647 29.3884 72.6562 29.3912C72.6476 29.3941 72.6385 29.3949 72.6296 29.3936H71.2772C71.2228 29.3936 71.2116 29.4155 71.2116 29.4592V30.4406C71.2103 30.4495 71.2112 30.4586 71.214 30.4672C71.2168 30.4757 71.2216 30.4834 71.228 30.4898C71.2344 30.4962 71.2421 30.501 71.2506 30.5038C71.2592 30.5067 71.2683 30.5075 71.2772 30.5062H72.9346C72.9435 30.5049 72.9526 30.5057 72.9611 30.5086C72.9697 30.5114 72.9774 30.5162 72.9838 30.5226C72.9901 30.5289 72.9949 30.5367 72.9978 30.5452C73.0006 30.5538 73.0014 30.5629 73.0001 30.5718V31.1608C73.0001 31.2371 72.9783 31.2589 72.9239 31.2589" fill="#232323"/>
<path d="M77.4799 27.6064H75.825C75.7706 27.6064 75.7594 27.6283 75.7594 27.672V28.5991C75.7594 28.6428 75.7813 28.6753 75.825 28.6753H77.1774C77.1864 28.674 77.1954 28.6748 77.204 28.6777C77.2125 28.6805 77.2203 28.6853 77.2266 28.6917C77.233 28.698 77.2378 28.7058 77.2406 28.7143C77.2435 28.7229 77.2443 28.7319 77.243 28.7409V29.3299C77.2443 29.3388 77.2435 29.3479 77.2406 29.3564C77.2378 29.365 77.233 29.3727 77.2266 29.3791C77.2203 29.3855 77.2125 29.3903 77.204 29.3931C77.1954 29.3959 77.1864 29.3968 77.1774 29.3955H75.825C75.7706 29.3955 75.7594 29.4173 75.7594 29.4611V31.184C75.7607 31.1929 75.7599 31.202 75.757 31.2106C75.7542 31.2191 75.7494 31.2269 75.7431 31.2332C75.7367 31.2396 75.7289 31.2444 75.7204 31.2472C75.7118 31.2501 75.7028 31.2509 75.6939 31.2496H75.0286C75.0197 31.2509 75.0106 31.2501 75.002 31.2472C74.9935 31.2444 74.9857 31.2396 74.9794 31.2332C74.973 31.2269 74.9682 31.2191 74.9654 31.2106C74.9625 31.202 74.9617 31.1929 74.963 31.184V26.9416C74.9617 26.9327 74.9625 26.9237 74.9654 26.9151C74.9682 26.9066 74.973 26.8988 74.9794 26.8925C74.9857 26.8861 74.9935 26.8813 75.002 26.8785C75.0106 26.8756 75.0197 26.8748 75.0286 26.8761H77.4824C77.4913 26.8748 77.5004 26.8756 77.5089 26.8785C77.5175 26.8813 77.5252 26.8861 77.5316 26.8925C77.538 26.8988 77.5427 26.9066 77.5456 26.9151C77.5484 26.9237 77.5492 26.9327 77.548 26.9416V27.5307C77.5586 27.5851 77.5373 27.6069 77.4824 27.6069" fill="#232323"/>
<path d="M81.122 31.2065C81.122 31.239 81.1002 31.2609 81.0565 31.2609H80.3368C80.323 31.26 80.3096 31.2555 80.2981 31.2478C80.2866 31.2401 80.2773 31.2296 80.2712 31.2172L79.6613 29.4505L79.6069 29.4068H78.9873C78.9784 29.4055 78.9693 29.4063 78.9608 29.4092C78.9523 29.412 78.9445 29.4168 78.9382 29.4232C78.9318 29.4295 78.927 29.4373 78.9242 29.4458C78.9213 29.4544 78.9205 29.4634 78.9218 29.4723V31.1953C78.9231 31.2042 78.9222 31.2133 78.9194 31.2218C78.9166 31.2304 78.9118 31.2381 78.9054 31.2445C78.899 31.2509 78.8913 31.2557 78.8827 31.2585C78.8742 31.2613 78.8651 31.2622 78.8562 31.2609H78.1909C78.1365 31.2609 78.1253 31.239 78.1253 31.1953V26.9534C78.1241 26.9445 78.1249 26.9354 78.1277 26.9269C78.1306 26.9184 78.1354 26.9106 78.1417 26.9043C78.1481 26.8979 78.1559 26.8931 78.1644 26.8903C78.1729 26.8874 78.182 26.8866 78.1909 26.8879H79.7614C79.9352 26.8744 80.1099 26.8988 80.2734 26.9593C80.4369 27.0197 80.5855 27.1149 80.7087 27.2381C80.832 27.3614 80.9271 27.5099 80.9876 27.6734C81.0481 27.8369 81.0724 28.0116 81.059 28.1854V28.251C81.0531 28.5275 80.9444 28.7919 80.754 28.9926C80.6229 29.1125 80.4704 29.1999 80.4704 29.2543V29.265L81.1357 31.1735C81.1317 31.1778 81.1286 31.1829 81.1268 31.1885C81.1249 31.1942 81.1243 31.2001 81.1251 31.206L81.122 31.2065ZM80.2529 28.1087C80.2512 27.9762 80.1978 27.8496 80.1041 27.7559C80.0104 27.6622 79.8838 27.6088 79.7513 27.6071H78.9889C78.98 27.6058 78.9709 27.6066 78.9624 27.6094C78.9538 27.6123 78.946 27.6171 78.9397 27.6234C78.9333 27.6298 78.9285 27.6376 78.9257 27.6461C78.9228 27.6546 78.922 27.6637 78.9233 27.6726V28.5997C78.9233 28.654 78.9452 28.6652 78.9889 28.6652H79.7513C79.8172 28.6654 79.8825 28.6526 79.9435 28.6275C80.0044 28.6023 80.0598 28.5654 80.1064 28.5188C80.1531 28.4721 80.19 28.4168 80.2151 28.3558C80.2403 28.2948 80.2531 28.2295 80.2529 28.1636V28.1087Z" fill="#232323"/>
<path d="M82.5076 31.2574H81.8423C81.7879 31.2574 81.7767 31.2355 81.7767 31.1918V26.9499C81.7754 26.941 81.7763 26.932 81.7791 26.9234C81.7819 26.9149 81.7867 26.9071 81.7931 26.9008C81.7994 26.8944 81.8072 26.8896 81.8157 26.8868C81.8243 26.8839 81.8333 26.8831 81.8423 26.8844H82.5076C82.5165 26.8831 82.5256 26.8839 82.5341 26.8868C82.5426 26.8896 82.5504 26.8944 82.5567 26.9008C82.5631 26.9071 82.5679 26.9149 82.5707 26.9234C82.5736 26.932 82.5744 26.941 82.5731 26.9499V31.1918C82.584 31.2355 82.5621 31.2574 82.5076 31.2574Z" fill="#232323"/>
<path d="M85.6699 27.606H84.9075C84.8986 27.6048 84.8895 27.6056 84.881 27.6084C84.8724 27.6113 84.8647 27.6161 84.8583 27.6224C84.852 27.6288 84.8472 27.6365 84.8443 27.6451C84.8415 27.6536 84.8407 27.6627 84.8419 27.6716V31.1831C84.8432 31.192 84.8424 31.2011 84.8396 31.2097C84.8367 31.2182 84.8319 31.2259 84.8256 31.2323C84.8192 31.2387 84.8114 31.2435 84.8029 31.2463C84.7944 31.2492 84.7853 31.25 84.7764 31.2487H84.1222C84.0679 31.2487 84.0567 31.2268 84.0567 31.1831V27.6716C84.0567 27.6172 84.0348 27.606 83.9911 27.606H83.2287C83.2198 27.6073 83.2107 27.6065 83.2022 27.6036C83.1937 27.6008 83.1859 27.596 83.1796 27.5897C83.1732 27.5833 83.1684 27.5755 83.1655 27.567C83.1627 27.5585 83.1619 27.5494 83.1632 27.5405V26.9514C83.1619 26.9425 83.1627 26.9334 83.1655 26.9249C83.1684 26.9163 83.1732 26.9086 83.1796 26.9022C83.1859 26.8959 83.1937 26.8911 83.2022 26.8882C83.2107 26.8854 83.2198 26.8846 83.2287 26.8858H85.6826C85.6915 26.8846 85.7006 26.8854 85.7091 26.8882C85.7177 26.8911 85.7254 26.8959 85.7318 26.9022C85.7381 26.9086 85.7429 26.9163 85.7458 26.9249C85.7486 26.9334 85.7494 26.9425 85.7482 26.9514V27.5405C85.7465 27.5592 85.7376 27.5765 85.7233 27.5887C85.7091 27.601 85.6907 27.6072 85.6719 27.606" fill="#232323"/>
<path d="M87.0438 31.2574H86.3785C86.3241 31.2574 86.3022 31.2355 86.3022 31.1918V26.9499C86.3022 26.9062 86.3241 26.8844 86.3785 26.8844H87.0438C87.0527 26.8831 87.0618 26.8839 87.0703 26.8868C87.0788 26.8896 87.0866 26.8944 87.093 26.9008C87.0993 26.9071 87.1041 26.9149 87.1069 26.9234C87.1098 26.932 87.1106 26.941 87.1093 26.9499V31.1918C87.1106 31.2007 87.1098 31.2098 87.1069 31.2184C87.1041 31.2269 87.0993 31.2346 87.093 31.241C87.0866 31.2474 87.0788 31.2522 87.0703 31.255C87.0618 31.2579 87.0527 31.2587 87.0438 31.2574Z" fill="#232323"/>
<path d="M89.683 31.2575H88.1125C88.1036 31.2587 88.0945 31.2579 88.086 31.2551C88.0775 31.2522 88.0697 31.2474 88.0633 31.2411C88.057 31.2347 88.0522 31.227 88.0494 31.2184C88.0465 31.2099 88.0457 31.2008 88.047 31.1919V26.95C88.0457 26.9411 88.0465 26.932 88.0494 26.9235C88.0522 26.915 88.057 26.9072 88.0633 26.9008C88.0697 26.8945 88.0775 26.8897 88.086 26.8868C88.0945 26.884 88.1036 26.8832 88.1125 26.8844H89.683C89.8569 26.871 90.0315 26.8954 90.195 26.9558C90.3586 27.0163 90.5071 27.1114 90.6303 27.2347C90.7536 27.358 90.8488 27.5065 90.9092 27.67C90.9697 27.8335 90.994 28.0082 90.9806 28.182V29.9812C90.9898 30.1531 90.9624 30.3249 90.9002 30.4853C90.8379 30.6458 90.7423 30.7911 90.6195 30.9118C90.4968 31.0324 90.3499 31.1256 90.1884 31.1851C90.0269 31.2446 89.8547 31.2691 89.683 31.257V31.2575ZM90.174 28.1058C90.1723 27.9733 90.1189 27.8467 90.0252 27.753C89.9315 27.6593 89.8049 27.6058 89.6724 27.6041H88.91C88.9011 27.6029 88.892 27.6037 88.8835 27.6065C88.8749 27.6094 88.8671 27.6142 88.8608 27.6205C88.8544 27.6269 88.8496 27.6346 88.8468 27.6432C88.844 27.6517 88.8431 27.6608 88.8444 27.6697V30.4504C88.8431 30.4593 88.844 30.4684 88.8468 30.4769C88.8496 30.4854 88.8544 30.4932 88.8608 30.4995C88.8671 30.5059 88.8749 30.5107 88.8835 30.5135C88.892 30.5164 88.9011 30.5172 88.91 30.5159H89.6724C89.7385 30.517 89.8043 30.5048 89.8656 30.48C89.927 30.4552 89.9827 30.4183 90.0295 30.3715C90.0763 30.3247 90.1132 30.2689 90.1381 30.2075C90.1629 30.1462 90.1751 30.0805 90.174 30.0143V28.1058Z" fill="#232323"/>
<path d="M92.3658 28.0423C92.3658 28.3696 92.6819 28.4677 93.1729 28.6857C93.9144 29.0237 94.2636 29.4054 94.2636 30.0926C94.2701 30.2618 94.2403 30.4304 94.1765 30.5872C94.1127 30.7441 94.0162 30.8855 93.8934 31.0021C93.7706 31.1188 93.6244 31.2079 93.4645 31.2636C93.3046 31.3192 93.1347 31.3402 92.966 31.3251H92.6916C92.5262 31.3362 92.3604 31.3129 92.2046 31.2565C92.0487 31.2002 91.9063 31.1121 91.7864 30.9978C91.6351 30.8643 91.5253 30.6902 91.4702 30.4961C91.4702 30.4854 91.4809 30.4636 91.5139 30.4417L92.1238 30.1368C92.1281 30.1327 92.1333 30.1296 92.1389 30.1278C92.1445 30.1259 92.1505 30.1254 92.1563 30.1261C92.2001 30.1261 92.2219 30.1917 92.287 30.3335C92.3274 30.4083 92.3872 30.4711 92.46 30.5151C92.5328 30.5592 92.6161 30.583 92.7012 30.584H92.9736C93.0396 30.5842 93.1049 30.5714 93.1658 30.5463C93.2268 30.5211 93.2822 30.4842 93.3288 30.4376C93.3754 30.3909 93.4124 30.3355 93.4375 30.2746C93.4626 30.2136 93.4755 30.1483 93.4753 30.0824C93.4753 29.7332 93.181 29.6133 92.7337 29.3952C91.9714 29.0242 91.578 28.7081 91.578 28.0229C91.5715 27.8537 91.6012 27.6851 91.665 27.5282C91.7288 27.3714 91.8254 27.23 91.9481 27.1134C92.0709 26.9967 92.2171 26.9076 92.377 26.8519C92.5369 26.7962 92.7069 26.7753 92.8755 26.7904H92.9848C93.2681 26.7776 93.5477 26.8581 93.7808 27.0196C93.988 27.1642 94.1445 27.3703 94.228 27.6087C94.228 27.6412 94.2168 27.6524 94.1843 27.6631L93.5845 27.9574C93.5751 27.9644 93.5637 27.9681 93.552 27.968C93.5195 27.968 93.5083 27.9243 93.4646 27.8588C93.334 27.6407 93.214 27.5096 92.9955 27.5096H92.8862C92.7481 27.5175 92.6179 27.5766 92.5211 27.6754C92.4243 27.7742 92.3678 27.9055 92.3627 28.0438" fill="#232323"/>
<path d="M95.5942 31.2574H94.9289C94.8745 31.2574 94.8634 31.2355 94.8634 31.1918V26.9499C94.8621 26.941 94.8629 26.932 94.8658 26.9234C94.8686 26.9149 94.8734 26.9071 94.8798 26.9008C94.8861 26.8944 94.8939 26.8896 94.9024 26.8868C94.9109 26.8839 94.92 26.8831 94.9289 26.8844H95.5942C95.6031 26.8831 95.6122 26.8839 95.6208 26.8868C95.6293 26.8896 95.637 26.8944 95.6434 26.9008C95.6498 26.9071 95.6546 26.9149 95.6574 26.9234C95.6602 26.932 95.6611 26.941 95.6598 26.9499V31.1918C95.6706 31.2355 95.6488 31.2574 95.5942 31.2574Z" fill="#232323"/>
<path d="M99.4217 31.2574H98.8443L98.7788 31.2249L97.35 28.433L97.3826 31.1918C97.3839 31.2008 97.383 31.2098 97.3802 31.2184C97.3773 31.2269 97.3726 31.2347 97.3662 31.241C97.3598 31.2474 97.3521 31.2522 97.3435 31.255C97.335 31.2579 97.3259 31.2587 97.317 31.2574H96.6736C96.6646 31.2587 96.6556 31.2579 96.647 31.255C96.6385 31.2522 96.6307 31.2474 96.6244 31.241C96.618 31.2347 96.6132 31.2269 96.6104 31.2184C96.6076 31.2098 96.6067 31.2008 96.608 31.1918V26.95C96.6067 26.9411 96.6076 26.932 96.6104 26.9234C96.6132 26.9149 96.618 26.9071 96.6244 26.9008C96.6307 26.8944 96.6385 26.8896 96.647 26.8868C96.6556 26.8839 96.6646 26.8831 96.6736 26.8844H97.2626L97.3282 26.9169L98.7457 29.7413L98.7132 26.9494C98.7119 26.9405 98.7127 26.9315 98.7156 26.9229C98.7184 26.9144 98.7232 26.9066 98.7296 26.9003C98.7359 26.8939 98.7437 26.8891 98.7522 26.8863C98.7608 26.8834 98.7699 26.8826 98.7788 26.8839H99.4222C99.4311 26.8826 99.4402 26.8834 99.4487 26.8863C99.4573 26.8891 99.465 26.8939 99.4714 26.9003C99.4777 26.9066 99.4825 26.9144 99.4854 26.9229C99.4882 26.9315 99.489 26.9405 99.4878 26.9494V31.1913C99.489 31.2003 99.4882 31.2093 99.4854 31.2179C99.4825 31.2264 99.4777 31.2342 99.4714 31.2405C99.465 31.2469 99.4573 31.2517 99.4487 31.2545C99.4402 31.2574 99.4311 31.2582 99.4222 31.2569" fill="#232323"/>
<path d="M102.584 27.606H101.822C101.767 27.606 101.756 27.6279 101.756 27.6716V31.1831C101.758 31.192 101.757 31.2011 101.754 31.2097C101.751 31.2182 101.746 31.2259 101.74 31.2323C101.734 31.2387 101.726 31.2435 101.717 31.2463C101.709 31.2492 101.7 31.25 101.691 31.2487H101.037C100.982 31.2487 100.971 31.2268 100.971 31.1831V27.6716C100.971 27.6172 100.949 27.606 100.905 27.606H100.143C100.089 27.606 100.077 27.5842 100.077 27.5405V26.9514C100.076 26.9425 100.077 26.9334 100.08 26.9249C100.083 26.9163 100.088 26.9086 100.094 26.9022C100.1 26.8959 100.108 26.8911 100.117 26.8882C100.125 26.8854 100.134 26.8846 100.143 26.8858H102.597C102.606 26.8846 102.615 26.8854 102.623 26.8882C102.632 26.8911 102.64 26.8959 102.646 26.9022C102.652 26.9086 102.657 26.9163 102.66 26.9249C102.663 26.9334 102.664 26.9425 102.662 26.9514V27.5405C102.661 27.5592 102.652 27.5765 102.638 27.5887C102.623 27.601 102.605 27.6072 102.586 27.606" fill="#232323"/>
<path d="M105.747 31.2574H103.293C103.239 31.2574 103.228 31.2355 103.228 31.1918V26.9499C103.226 26.941 103.227 26.932 103.23 26.9234C103.233 26.9149 103.238 26.9071 103.244 26.9008C103.25 26.8944 103.258 26.8896 103.267 26.8868C103.275 26.8839 103.284 26.8831 103.293 26.8844H105.747C105.756 26.8831 105.765 26.8839 105.774 26.8868C105.782 26.8896 105.79 26.8944 105.796 26.9008C105.803 26.9071 105.807 26.9149 105.81 26.9234C105.813 26.932 105.814 26.941 105.813 26.9499V27.539C105.814 27.5479 105.813 27.557 105.81 27.5655C105.807 27.5741 105.803 27.5818 105.796 27.5882C105.79 27.5945 105.782 27.5993 105.774 27.6022C105.765 27.605 105.756 27.6058 105.747 27.6046H104.092C104.037 27.6046 104.026 27.6264 104.026 27.6808V28.6079C104.026 28.6623 104.048 28.6734 104.092 28.6734H105.455C105.464 28.6722 105.473 28.673 105.481 28.6758C105.49 28.6787 105.498 28.6835 105.504 28.6898C105.51 28.6962 105.515 28.7039 105.518 28.7125C105.521 28.721 105.522 28.7301 105.52 28.739V29.3281C105.522 29.337 105.521 29.3461 105.518 29.3546C105.515 29.3631 105.51 29.3709 105.504 29.3772C105.498 29.3836 105.49 29.3884 105.481 29.3912C105.473 29.3941 105.464 29.3949 105.455 29.3936H104.102C104.048 29.3936 104.037 29.4155 104.037 29.4592V30.4406C104.036 30.4495 104.036 30.4586 104.039 30.4672C104.042 30.4757 104.047 30.4834 104.053 30.4898C104.06 30.4962 104.067 30.501 104.076 30.5038C104.084 30.5067 104.093 30.5075 104.102 30.5062H105.76C105.769 30.5049 105.778 30.5057 105.786 30.5086C105.795 30.5114 105.803 30.5162 105.809 30.5226C105.815 30.5289 105.82 30.5367 105.823 30.5452C105.826 30.5538 105.827 30.5629 105.825 30.5718V31.1608C105.814 31.2371 105.803 31.2589 105.749 31.2589" fill="#232323"/>
<path d="M109.552 31.2065C109.552 31.239 109.531 31.2609 109.487 31.2609H108.767C108.753 31.26 108.74 31.2555 108.729 31.2478C108.717 31.2401 108.708 31.2296 108.702 31.2172L108.092 29.4505L108.037 29.4068H107.418C107.409 29.4055 107.4 29.4063 107.391 29.4092C107.383 29.412 107.375 29.4168 107.369 29.4232C107.362 29.4295 107.357 29.4373 107.355 29.4458C107.352 29.4544 107.351 29.4634 107.352 29.4723V31.1953C107.353 31.2042 107.353 31.2133 107.35 31.2218C107.347 31.2304 107.342 31.2381 107.336 31.2445C107.329 31.2509 107.322 31.2557 107.313 31.2585C107.305 31.2613 107.296 31.2622 107.287 31.2609H106.621C106.612 31.2622 106.603 31.2613 106.595 31.2585C106.586 31.2557 106.579 31.2509 106.572 31.2445C106.566 31.2381 106.561 31.2304 106.558 31.2218C106.555 31.2133 106.554 31.2042 106.556 31.1953V26.9534C106.554 26.9445 106.555 26.9354 106.558 26.9269C106.561 26.9184 106.566 26.9106 106.572 26.9043C106.579 26.8979 106.586 26.8931 106.595 26.8903C106.603 26.8874 106.612 26.8866 106.621 26.8879H108.18C108.354 26.8744 108.529 26.8988 108.692 26.9593C108.856 27.0197 109.004 27.1149 109.127 27.2381C109.251 27.3614 109.346 27.5099 109.406 27.6734C109.467 27.8369 109.491 28.0116 109.478 28.1854V28.251C109.472 28.5275 109.363 28.7919 109.173 28.9926C109.042 29.1125 108.889 29.1999 108.889 29.2543V29.265L109.552 31.1719V31.2045V31.2065ZM108.68 28.1072C108.678 27.9747 108.625 27.8481 108.531 27.7543C108.437 27.6606 108.311 27.6072 108.178 27.6055H107.416C107.407 27.6042 107.398 27.6051 107.389 27.6079C107.381 27.6108 107.373 27.6155 107.367 27.6219C107.36 27.6283 107.355 27.636 107.353 27.6446C107.35 27.6531 107.349 27.6622 107.35 27.6711V28.5981C107.35 28.6525 107.372 28.6637 107.416 28.6637H108.178C108.244 28.6639 108.309 28.6511 108.37 28.6259C108.431 28.6008 108.487 28.5638 108.533 28.5172C108.58 28.4706 108.617 28.4152 108.642 28.3543C108.667 28.2933 108.68 28.228 108.68 28.1621V28.1072Z" fill="#232323"/>
<path d="M112.737 31.2574H110.283C110.274 31.2587 110.265 31.2579 110.256 31.255C110.248 31.2522 110.24 31.2474 110.234 31.241C110.227 31.2346 110.222 31.2269 110.22 31.2184C110.217 31.2098 110.216 31.2007 110.217 31.1918V26.9499C110.216 26.941 110.217 26.932 110.22 26.9234C110.222 26.9149 110.227 26.9071 110.234 26.9008C110.24 26.8944 110.248 26.8896 110.256 26.8868C110.265 26.8839 110.274 26.8831 110.283 26.8844H112.737C112.745 26.8831 112.755 26.8839 112.763 26.8868C112.772 26.8896 112.779 26.8944 112.786 26.9008C112.792 26.9071 112.797 26.9149 112.8 26.9234C112.803 26.932 112.803 26.941 112.802 26.9499V27.539C112.803 27.5479 112.803 27.557 112.8 27.5655C112.797 27.5741 112.792 27.5818 112.786 27.5882C112.779 27.5945 112.772 27.5993 112.763 27.6022C112.755 27.605 112.745 27.6058 112.737 27.6046H111.082C111.038 27.6046 111.016 27.6264 111.016 27.6808V28.6079C111.016 28.6623 111.038 28.6734 111.082 28.6734H112.434C112.489 28.6734 112.5 28.6953 112.5 28.739V29.3281C112.501 29.337 112.5 29.3461 112.497 29.3546C112.494 29.3631 112.49 29.3709 112.483 29.3772C112.477 29.3836 112.469 29.3884 112.461 29.3912C112.452 29.3941 112.443 29.3949 112.434 29.3936H111.082C111.073 29.3924 111.064 29.3932 111.055 29.396C111.047 29.3989 111.039 29.4037 111.033 29.41C111.026 29.4164 111.021 29.4241 111.019 29.4327C111.016 29.4412 111.015 29.4503 111.016 29.4592V30.4406C111.015 30.4495 111.016 30.4586 111.019 30.4672C111.021 30.4757 111.026 30.4834 111.033 30.4898C111.039 30.4962 111.047 30.501 111.055 30.5038C111.064 30.5067 111.073 30.5075 111.082 30.5062H112.739C112.748 30.5049 112.757 30.5057 112.766 30.5086C112.774 30.5114 112.782 30.5162 112.788 30.5226C112.795 30.5289 112.799 30.5367 112.802 30.5452C112.805 30.5538 112.806 30.5629 112.805 30.5718V31.1608C112.816 31.2371 112.794 31.2589 112.739 31.2589" fill="#232323"/>
<path d="M114.1 28.0423C114.1 28.3696 114.416 28.4677 114.907 28.6857C115.649 29.0237 115.998 29.4054 115.998 30.0926C116.005 30.2618 115.975 30.4304 115.911 30.5872C115.847 30.7441 115.751 30.8855 115.628 31.0021C115.505 31.1188 115.359 31.2079 115.199 31.2636C115.039 31.3192 114.869 31.3402 114.701 31.3251H114.417C114.252 31.3362 114.086 31.3129 113.93 31.2565C113.774 31.2002 113.632 31.1121 113.512 30.9978C113.36 30.8643 113.251 30.6902 113.196 30.4961C113.196 30.4854 113.206 30.4636 113.239 30.4417L113.839 30.1368C113.843 30.1327 113.848 30.1296 113.854 30.1278C113.86 30.1259 113.866 30.1254 113.872 30.1261C113.926 30.1261 113.937 30.1917 114.003 30.3335C114.043 30.4083 114.103 30.4711 114.176 30.5151C114.249 30.5592 114.332 30.583 114.417 30.584H114.701C114.766 30.5842 114.832 30.5714 114.893 30.5463C114.954 30.5211 115.009 30.4842 115.056 30.4376C115.102 30.3909 115.139 30.3355 115.164 30.2746C115.189 30.2136 115.202 30.1483 115.202 30.0824C115.202 29.7332 114.908 29.6133 114.461 29.3952C113.698 29.0242 113.305 28.7081 113.305 28.0229C113.298 27.8537 113.328 27.6851 113.392 27.5282C113.456 27.3714 113.552 27.23 113.675 27.1134C113.798 26.9967 113.944 26.9076 114.104 26.8519C114.264 26.7962 114.434 26.7753 114.602 26.7904H114.712C114.995 26.7776 115.275 26.8581 115.508 27.0196C115.715 27.1642 115.871 27.3703 115.955 27.6087C115.955 27.6412 115.944 27.6524 115.911 27.6631L115.311 27.9574C115.307 27.9614 115.302 27.9645 115.296 27.9664C115.291 27.9682 115.285 27.9688 115.279 27.968C115.246 27.968 115.235 27.9243 115.191 27.8588C115.061 27.6407 114.941 27.5096 114.723 27.5096H114.614C114.477 27.5197 114.349 27.5798 114.255 27.6784C114.16 27.777 114.105 27.9072 114.101 28.0438" fill="#232323"/>
<path d="M117.164 28.0423C117.164 28.3696 117.481 28.4677 117.972 28.6857C118.713 29.0237 119.062 29.4054 119.062 30.0926C119.069 30.2618 119.039 30.4304 118.975 30.5872C118.911 30.7441 118.815 30.8855 118.692 31.0021C118.569 31.1188 118.423 31.2079 118.263 31.2636C118.103 31.3192 117.933 31.3402 117.765 31.3251H117.481C117.316 31.3362 117.15 31.3129 116.994 31.2565C116.838 31.2002 116.696 31.1121 116.576 30.9978C116.425 30.8643 116.315 30.6901 116.26 30.4961C116.26 30.4854 116.27 30.4636 116.304 30.4417L116.903 30.1368C116.908 30.1327 116.913 30.1296 116.918 30.1278C116.924 30.1259 116.93 30.1254 116.936 30.1261C116.99 30.1261 117.001 30.1917 117.066 30.3335C117.107 30.4083 117.167 30.4711 117.239 30.5151C117.312 30.5592 117.396 30.583 117.481 30.584H117.764C117.83 30.5842 117.895 30.5714 117.956 30.5463C118.017 30.5211 118.073 30.4842 118.119 30.4376C118.166 30.3909 118.203 30.3355 118.228 30.2746C118.253 30.2136 118.266 30.1483 118.266 30.0824C118.266 29.7332 117.972 29.6133 117.524 29.3952C116.762 29.0242 116.369 28.7081 116.369 28.0229C116.362 27.8537 116.392 27.6851 116.456 27.5282C116.519 27.3714 116.616 27.23 116.739 27.1134C116.862 26.9967 117.008 26.9076 117.168 26.8519C117.328 26.7962 117.497 26.7753 117.666 26.7904H117.775C118.059 26.7775 118.338 26.8581 118.571 27.0196C118.779 27.1642 118.935 27.3703 119.019 27.6087C119.019 27.6412 119.008 27.6524 118.975 27.6631L118.375 27.9574C118.366 27.9644 118.354 27.9681 118.343 27.968C118.31 27.968 118.288 27.9243 118.255 27.8588C118.124 27.6407 118.005 27.5096 117.786 27.5096H117.677C117.541 27.5197 117.413 27.5798 117.319 27.6784C117.224 27.777 117.169 27.9072 117.164 28.0438" fill="#232323"/>
<path d="M122.18 31.2574H119.727C119.718 31.2587 119.709 31.2579 119.7 31.255C119.692 31.2522 119.684 31.2474 119.677 31.241C119.671 31.2346 119.666 31.2269 119.663 31.2184C119.661 31.2098 119.66 31.2007 119.661 31.1918V26.9499C119.66 26.941 119.661 26.932 119.663 26.9234C119.666 26.9149 119.671 26.9071 119.677 26.9008C119.684 26.8944 119.692 26.8896 119.7 26.8868C119.709 26.8839 119.718 26.8831 119.727 26.8844H122.18C122.189 26.8831 122.198 26.8839 122.207 26.8868C122.216 26.8896 122.223 26.8944 122.23 26.9008C122.236 26.9071 122.241 26.9149 122.244 26.9234C122.246 26.932 122.247 26.941 122.246 26.9499V27.539C122.247 27.5479 122.246 27.557 122.244 27.5655C122.241 27.5741 122.236 27.5818 122.23 27.5882C122.223 27.5945 122.216 27.5993 122.207 27.6022C122.198 27.605 122.189 27.6058 122.18 27.6046H120.526C120.482 27.6046 120.46 27.6264 120.46 27.6808V28.6079C120.46 28.6623 120.482 28.6734 120.526 28.6734H121.878C121.887 28.6722 121.896 28.673 121.905 28.6758C121.913 28.6787 121.921 28.6835 121.927 28.6898C121.934 28.6962 121.938 28.7039 121.941 28.7125C121.944 28.721 121.945 28.7301 121.944 28.739V29.3281C121.945 29.337 121.944 29.3461 121.941 29.3546C121.938 29.3631 121.934 29.3709 121.927 29.3772C121.921 29.3836 121.913 29.3884 121.905 29.3912C121.896 29.3941 121.887 29.3949 121.878 29.3936H120.526C120.517 29.3924 120.508 29.3932 120.499 29.396C120.49 29.3989 120.483 29.4037 120.476 29.41C120.47 29.4164 120.465 29.4241 120.462 29.4327C120.46 29.4412 120.459 29.4503 120.46 29.4592V30.4406C120.459 30.4495 120.46 30.4586 120.462 30.4672C120.465 30.4757 120.47 30.4834 120.476 30.4898C120.483 30.4962 120.49 30.501 120.499 30.5038C120.508 30.5067 120.517 30.5075 120.526 30.5062H122.183C122.192 30.5049 122.201 30.5057 122.21 30.5086C122.218 30.5114 122.226 30.5162 122.232 30.5226C122.239 30.5289 122.243 30.5367 122.246 30.5452C122.249 30.5538 122.25 30.5629 122.249 30.5718V31.1608C122.259 31.2371 122.238 31.2589 122.183 31.2589" fill="#232323"/>
</svg>
