<svg width="110" height="38" viewBox="0 0 110 38" fill="none" xmlns="http://www.w3.org/2000/svg">
<path fill-rule="evenodd" clip-rule="evenodd" d="M75.1866 32.0598C70.2476 32.5511 66.2449 28.6003 66.2449 23.2356C66.2449 17.8704 70.0199 13.5874 74.6768 13.6701C79.3329 13.7516 83.3368 17.7024 83.6185 22.4943C83.9002 27.2854 80.1252 31.568 75.1866 32.0598ZM47.9685 22.0039C48.2506 17.2123 52.2537 13.262 56.9101 13.1797C61.5666 13.0978 65.3416 17.3808 65.3416 22.7456C65.3416 28.1107 61.339 32.0615 56.3999 31.5702C51.4614 31.0788 47.6868 26.7958 47.9685 22.0039ZM0.54248 6.13088L6.31323 4.65089L6.29908 16.3849L16.0429 6.98663L21.0548 8.9125L13.9725 16.769L18.6697 33.881H13.5738L9.81512 20.7708L6.26521 24.247L6.31323 33.881L0.54248 33.6748V6.13088ZM47.7477 32.0221H42.6805L42.3487 24.2226L41.8779 18.6756C41.76 14.7866 38.253 15.7739 37.1914 16.2434L37.4718 32.0221L32.6297 31.8544L31.8426 1.3175L36.7743 0L36.8857 12.3539C42.2488 10.6412 45.1204 10.6596 45.8415 18.5367L47.7477 32.0221ZM102.334 35.5501L103.766 32.1807H107.09L108.348 35.8781L105.363 37.6633L102.334 35.5501ZM83.5383 16.9435L82.7087 11.2122L87.0145 11.3623L87.0196 3.31411L90.8692 4.90985L90.8019 12.0543L96.3351 12.4191V15.888L90.9292 16.1902L91.3824 26.7482C91.3824 26.7482 91.3936 27.574 93.0858 27.574C94.7775 27.574 96.3351 26.6436 96.3351 26.6436V32.0281C96.4089 33.6645 94.0967 34.3574 94.0967 34.3574C86.7054 35.4798 87.2481 30.5755 87.2481 30.5755L87.0076 16.9435H83.5383ZM109.92 4.97802L105.983 30.2685L99.72 3.01313L109.92 4.97802ZM21.1808 16.1028L19.8295 12.5366C19.8295 12.5362 29.6937 8.12706 30.868 16.0393L30.7257 33.0403L23.2375 33.0394C23.2375 33.0394 19.9508 33.1659 18.9398 29.4994C18.9398 29.4994 16.4125 20.1573 26.3998 18.3866L26.4259 16.1105C26.4259 16.1105 24.5322 14.0667 21.1808 16.1028ZM71.3396 23.5816C71.5505 26.0635 73.0879 27.4166 74.098 27.5358C76.6589 27.8381 78.8385 25.4959 78.6928 22.5145C78.5466 19.5326 77.3551 17.6689 74.9392 17.6179C72.525 17.5669 71.0639 20.3395 71.3396 23.5816ZM26.3891 29.7875L26.5254 22.1758C22.4443 21.5828 22.368 27.1062 22.368 27.1062C22.7667 30.675 26.3891 29.7875 26.3891 29.7875ZM57.4889 27.0462C58.499 26.927 60.0365 25.5739 60.247 23.092C60.5231 19.8499 59.0624 17.0773 56.6478 17.1283C54.2318 17.1789 53.04 19.043 52.8946 22.0249C52.748 25.0058 54.9277 27.3484 57.4889 27.0462Z" fill="#232323"/>
</svg>
