<svg width="86" height="71" viewBox="0 0 86 71" fill="none" xmlns="http://www.w3.org/2000/svg">
<path d="M5.61661 26.2195C4.53315 26.939 0 29.9124 0 35.9025C0 41.9014 4.72383 44.9788 5.61661 45.5943L43 70.812L80.3833 45.5856C81.4582 44.8661 86 41.8927 86 35.9025C86 29.9037 81.2672 26.8263 80.3833 26.2108L43 0.993164L5.61661 26.2195Z" fill="#232323"/>
<path d="M44.6206 50.197C43.4505 49.7204 42.9998 47.3103 43.0084 46.3741C43.0345 44.3629 42.2371 42.6551 40.3562 42.4818C35.1816 42.005 32.954 51.48 38.6053 51.48C40.1308 51.48 41.2923 50.6566 42.029 49.5123C42.3151 50.3704 42.7397 51.1073 43.6758 51.48C44.5946 51.8614 45.5221 50.5697 44.6206 50.197ZM38.874 50.0583C35.5457 50.0583 36.7071 43.3313 40.1828 43.5914C42.8784 43.8341 41.8383 50.0583 38.874 50.0583Z" fill="white"/>
<path d="M78.5719 26.6008L42.9913 2.64014L7.42815 26.6788C6.70005 27.1556 1.55151 30.233 1.55151 35.9024C1.55151 41.5718 6.70005 44.6233 7.42815 45.1261L42.9913 69.156L78.5719 45.2041C79.2737 44.7013 84.4397 41.5805 84.4397 35.8938C84.4397 30.2157 79.2737 27.0602 78.5719 26.6008ZM77.8438 44.1205L70.2423 49.2522C67.6852 50.9688 68.6302 46.9725 68.8207 45.9409C69.1587 44.1552 68.5174 42.4734 66.8184 42.4474C65.5877 42.4301 64.4347 43.3056 63.6113 44.1725C63.7763 43.375 63.8887 42.7681 63.8975 42.6988C63.9063 42.2827 62.9442 42.4214 62.7796 42.5341C62.4934 42.7421 60.8291 50.1279 56.1661 50.0326C55.1171 50.0151 54.5193 49.2698 54.2937 48.3336C55.646 47.666 56.9895 46.8078 57.9604 46.175C59.4773 45.1867 59.9539 43.4009 58.6622 42.7075C55.7325 41.1211 52.5083 45.1174 52.5258 47.8999C51.91 48.1861 51.4768 48.3771 51.3987 48.3942C51.052 48.507 51.113 49.5643 51.4768 49.5472C51.8407 49.5296 52.0404 49.4085 52.6904 49.1052C53.0889 50.4922 54.0598 51.4455 55.9058 51.4455C58.6104 51.4455 60.3871 48.9836 61.5225 47.4926L60.812 51.0382C60.7685 51.4889 62.2072 51.6188 62.2595 51.1681C62.45 50.2495 62.6233 49.3909 62.7967 48.5934C63.646 44.9093 64.7814 43.9644 65.9345 43.8171C66.9571 43.6784 67.7458 44.6493 67.5466 45.8542C67.2867 47.458 66.1166 50.8907 67.2521 51.2638L55.984 58.8661C54.0598 60.1232 52.101 60.6345 49.3969 60.3747C46.7792 60.1232 43.7714 57.2624 47.88 53.1621C50.2808 50.7608 48.9891 48.0909 48.0099 47.1892C50.2115 47.2324 52.9072 45.1521 51.3381 41.8666C51.0436 41.2424 50.2979 41.6845 50.4542 42.0573C51.5721 44.7793 49.3099 45.7589 47.9318 45.6722C45.7562 45.5335 45.4355 43.0022 46.3714 41.5979C47.4205 40.0115 49.0238 40.0374 50.5235 40.2629C52.0834 40.4969 53.0025 39.9074 53.3145 39.422C53.4962 39.1359 53.193 38.8238 52.8379 39.0492C52.4218 39.3093 51.0607 39.3179 50.2549 39.0839C49.414 38.8498 48.2004 38.8585 47.3599 39.1706C45.6262 39.8034 44.2655 41.3378 44.2741 43.2536C44.2741 44.9007 45.1495 45.8456 45.8516 46.3744C45.0368 47.3364 46.0249 47.9693 46.8832 48.5329C47.7413 49.0876 48.2092 50.1801 46.9438 51.697C45.1409 53.8643 41.7692 57.4445 44.7248 60.7561C46.9873 63.2961 51.1823 62.1343 51.1823 62.1343L43.0173 67.5956L8.13888 44.0251C6.70005 42.9589 3.19836 40.8957 3.19836 35.9024C3.19836 31.4466 6.70005 28.7853 7.98289 27.8924C9.24835 27.0082 12.0567 25.1358 12.0567 25.1358C13.9635 23.8701 14.7696 23.4887 14.3189 25.4738L13.3394 29.8949C13.1574 29.999 12.5854 30.3631 12.4554 30.4237C10.7738 31.2039 12.6027 32.0968 12.7761 32.1402L10.6005 41.4331C10.5571 41.8839 12.4467 42.0139 12.4987 41.5632C13.0794 38.7978 13.9028 34.7148 14.3449 32.7383C17.4132 34.9402 18.4533 40.5316 21.9464 42.9328C23.2725 43.8518 25.2314 43.2709 26.7569 42.3607L24.9714 51.0294C24.928 51.4801 26.4882 51.6105 26.5402 51.1598C26.7222 50.2929 26.9216 49.3133 27.1209 48.3077C28.005 44.9267 29.1838 43.9471 30.3539 43.791C31.4114 43.6524 32.2348 44.7273 32.0268 45.9236C31.7494 47.5273 31.03 49.7464 31.5674 50.856C31.9921 51.7404 33.457 51.4284 34.4277 51.2721C35.2164 51.151 34.9998 50.206 34.211 50.3447C31.8361 50.7608 33.1449 47.0419 33.3529 46.0103C33.6996 44.2245 33.2142 42.4214 31.2727 42.4214C29.9899 42.4214 28.7938 43.3836 27.9357 44.2592C28.0744 43.5917 28.5771 41.2598 28.6031 41.1124C30.0072 39.9421 32.5815 37.8096 32.0181 34.7148C31.8881 34.0126 31.0994 33.3538 30.2846 33.7525C29.3485 34.212 28.7764 35.3736 28.3604 36.2665C27.771 37.5322 27.0863 41.0691 27.0863 41.0691C22.7524 43.4096 20.6982 39.5954 18.618 36.0151C17.7166 34.4634 16.3384 32.3655 14.9689 31.1432C18.2973 28.4299 25.6907 23.2546 23.8966 21.9976C23.2031 21.5122 22.6051 21.9196 22.1977 22.5524C21.5823 23.4974 17.9072 27.0255 15.1683 28.9154C15.3243 28.1785 16.2518 23.3413 16.7285 22.4311C17.1098 21.7029 17.6646 21.3908 18.2887 20.9227L42.9913 4.21786L77.8438 27.6844C79.2737 28.69 82.8017 30.9092 82.8017 35.9024C82.8017 40.8697 79.2737 43.0715 77.8438 44.1205ZM54.2073 47.0939C54.3543 45.2474 55.5679 43.2622 57.5355 43.4616C58.3589 43.5483 58.4541 44.4499 57.7348 45.048C57.2322 45.4641 55.6807 46.3744 54.2073 47.0939ZM28.8024 39.9421C29.2705 37.6969 29.7732 35.9198 30.2846 35.0789C30.4926 34.7322 30.9173 34.6455 31.0213 35.0529C31.472 36.7953 29.8512 39.1706 28.8024 39.9421Z" fill="white"/>
<path d="M69.1328 33.5619C68.6732 34.0733 66.9747 35.521 64.6168 35.4343C63.0653 35.3737 61.3145 34.7235 61.8605 31.8454L62.7273 27.7711C62.7796 27.3203 61.2798 27.1902 61.228 27.6411C61.0288 28.56 60.8207 29.4095 60.6645 30.2157C59.9539 33.8306 58.5845 35.0615 57.3533 35.2783C54.9784 35.7031 56.1314 31.9148 56.3307 30.8745C56.6862 29.0801 56.0186 27.407 54.2503 27.381C52.9766 27.3637 51.7718 28.2392 50.922 29.1147C51.0866 28.3172 51.2082 27.7104 51.2082 27.6411C51.2253 27.2249 50.2202 27.3637 50.0552 27.4763C49.2318 28.0485 46.4325 34.9315 40.157 34.9315C35.8752 34.9315 34.159 29.5308 33.8903 26.1326C33.8903 26.1326 37.0886 23.1159 38.4234 17.9406C38.8655 16.2242 39.1342 14.2911 38.0767 12.6613C36.6119 10.4074 34.4624 14.2911 34.029 15.3313C31.6974 21.0614 32.1134 25.8293 32.1395 26.1673C31.03 27.0082 29.5565 27.7104 27.693 27.7451C26.3062 27.7711 25.8814 27.4157 25.1707 27.3637C19.7535 26.9215 17.4392 36.0411 23.3332 36.3446C27.589 36.5613 29.1058 30.8398 27.2423 28.4299C29.0625 28.924 31.342 28.0051 32.2695 27.4503C32.5555 29.7822 33.4569 32.4089 34.6964 33.8999C38.1547 38.0697 44.0401 36.8647 47.7325 32.1748C48.3737 31.36 48.8767 30.7011 49.1971 30.2677L48.0011 35.9804C47.9493 36.4312 49.4486 36.5613 49.5009 36.1105C49.6913 35.1916 49.8818 34.342 50.0552 33.5358C50.9396 29.8516 52.118 28.9067 53.3229 28.7593C54.389 28.6206 55.204 29.5915 55.0048 30.7965C54.7274 32.4002 54.1638 34.3594 54.7098 35.4603C55.1606 36.3705 56.3483 36.5179 57.3533 36.3359C59.2345 35.9891 60.2743 33.7526 60.3265 33.6832C60.3177 34.2294 60.6991 35.9978 62.9876 36.3532C64.9982 36.6653 67.7634 36.2839 69.6441 34.16C70.1642 33.5792 69.5835 33.0504 69.1328 33.5619ZM23.6192 34.9142C20.1435 34.7841 21.357 28.2219 24.9887 28.4819C27.823 28.7246 26.6962 35.0269 23.6192 34.9142ZM37.1147 13.5022C38.8482 15.5394 35.0864 23.324 33.8383 24.5376C33.925 17.3165 36.2739 12.5139 37.1147 13.5022Z" fill="white"/>
<path d="M66.541 21.5991C66.4717 21.2437 66.2724 21.209 65.891 21.4604C65.579 21.6685 65.3797 21.9112 64.7556 21.9718C64.3829 22.0152 63.5508 21.7725 62.996 21.7725C61.904 21.7725 61.2364 22.596 61.2452 23.2895C61.2627 24.4251 62.8402 24.3905 62.9442 23.6363C63.0829 22.57 64.0797 22.336 64.7209 23.0468C65.5096 23.9224 63.8023 25.3614 61.5138 25.1533C59.659 24.98 57.7436 23.6883 55.7066 22.3273C53.3229 20.7235 50.8527 19.0678 48.2092 18.9984C45.3229 18.9205 43.8494 20.8016 43.338 21.8072C43.1907 21.7811 42.9913 21.7552 42.9913 21.7552C37.5741 21.287 35.2511 30.3633 41.1538 30.6667C45.9383 30.9094 47.2559 23.4542 43.9187 21.9892C43.9187 21.9892 43.9101 21.9892 43.9014 21.9805C44.5255 21.027 46.0683 20.1601 47.5416 20.2208C49.7348 20.3075 51.9188 21.5644 54.242 22.9861C56.7468 24.5205 59.3386 26.0462 62.1467 26.0462C63.9063 26.0462 64.9895 25.3527 65.6224 24.5465C66.498 23.4629 66.6538 22.1973 66.541 21.5991ZM41.4485 29.271C37.9728 29.1497 39.1863 22.6134 42.818 22.8734C45.6523 23.1075 44.5255 29.3837 41.4485 29.271Z" fill="white"/>
</svg>
