<svg width="122" height="33" viewBox="0 0 122 33" fill="none" xmlns="http://www.w3.org/2000/svg">
<path d="M0.903076 7.07144V26.4C5.73431 25.7161 9.35372 21.7384 9.35372 16.7673C9.35372 11.7962 5.73431 7.75544 0.903076 7.07144ZM12.1706 33.0001V0C15.7848 4.57042 17.3349 10.5041 17.3349 16.7673C17.3349 23.0306 15.7848 28.4296 12.1706 33.0001ZM32.3583 32.0572V0.942859C25.26 2.55065 20.1518 9.21635 20.1518 16.7673C20.1518 24.3183 25.26 30.4494 32.3583 32.0572Z" fill="#232323"/>
<path d="M59.5881 24.5139V21.6854H49.7403V6.59961H46.9121V24.5139H59.5881ZM62.1289 20.7334C62.1289 22.9991 63.8881 24.8801 66.7974 24.8801C69.3505 24.8801 70.8673 23.5879 71.4908 22.5743C71.4908 23.6177 71.5857 24.1618 71.6453 24.5195H74.518C74.4584 24.1618 74.1589 23.4278 74.1589 22.1757V14.964C74.1589 12.1617 72.5091 9.73546 68.2336 9.73546C65.1463 9.73546 62.7031 11.6334 62.4059 14.3761L65.0777 15.0022C65.2561 13.3327 66.3547 12.1104 68.3138 12.1104C70.4814 12.1104 71.4016 13.2731 71.4016 14.6743C71.4016 15.181 71.1641 15.6282 70.303 15.7475L66.4434 16.3139C63.9796 16.6716 62.1289 18.1696 62.1289 20.7334ZM67.2749 22.6042C65.85 22.6042 64.9594 21.5905 64.9594 20.5173C64.9594 19.2354 65.85 18.5498 67.0373 18.3709L71.4016 17.715V18.3709C71.4016 21.5011 69.5608 22.6042 67.2749 22.6042ZM81.6537 30.6495L91.0433 10.3672H88.2264L83.7663 19.7996L79.3133 10.3672H76.4894L82.317 22.9321L78.8368 30.6495H81.6537ZM95.0071 15.8655C95.1259 14.0171 96.6118 12.2596 98.9573 12.2596C101.481 12.2596 102.848 13.8084 102.908 15.8655H95.0071ZM103.266 19.4713C102.732 21.0812 101.632 22.356 99.3165 22.356C96.9118 22.356 95.0667 20.5928 95.0071 18.029H105.7C105.73 17.8501 105.759 17.5958 105.759 17.238C105.759 12.7663 103.351 9.73546 98.9573 9.73546C95.3648 9.73546 92.0728 12.7961 92.0728 17.2977C92.0728 22.157 95.4864 24.8801 99.3165 24.8801C102.641 24.8801 104.869 22.9619 105.67 20.4279L103.266 19.4713ZM117.334 10.0961C117.186 10.0662 116.865 9.91574 116.173 9.91574C114.718 9.91574 112.739 10.4132 111.7 12.6193V9.91489L108.884 9.89962V24.496H111.7V17.2917C111.7 13.8661 113.665 12.9153 116.011 12.9153C116.397 12.9153 116.919 12.9211 117.334 12.9807V10.0961ZM117.334 22.3925C117.334 23.5551 118.289 24.496 119.447 24.496C120.605 24.496 121.56 23.5551 121.56 22.3925C121.56 21.2299 120.605 20.2711 119.447 20.2711C118.289 20.2711 117.334 21.2299 117.334 22.3925Z" fill="#232323"/>
</svg>
