<svg width="128" height="23" viewBox="0 0 128 23" fill="none" xmlns="http://www.w3.org/2000/svg">
<path fill-rule="evenodd" clip-rule="evenodd" d="M14.6721 12.2939C14.5851 12.1174 14.4635 11.8628 14.2738 11.6238C14.2155 11.5441 14.1396 11.479 14.052 11.4334C13.9644 11.3878 13.8675 11.3631 13.7688 11.361C13.4403 11.361 13.2178 11.5992 13.2178 11.9301C13.2178 12.0443 13.2556 12.1469 13.3048 12.2422L13.4083 12.4516C13.4256 12.4861 13.4247 12.5214 13.3952 12.537C13.3607 12.5567 13.327 12.5394 13.3089 12.5091L13.1923 12.321C13.1399 12.235 13.0667 12.1636 12.9795 12.1134C12.8922 12.0632 12.7937 12.0357 12.6931 12.0336C12.6138 12.0345 12.5356 12.0509 12.4627 12.0821C12.3898 12.1132 12.3238 12.1584 12.2685 12.2151C12.2131 12.2717 12.1694 12.3388 12.14 12.4123C12.1106 12.4859 12.0959 12.5645 12.0969 12.6437C12.0969 12.739 12.1207 12.8285 12.1593 12.909L12.2209 13.0387C12.2381 13.074 12.2389 13.1085 12.2086 13.1274C12.1774 13.1463 12.1429 13.1274 12.1248 13.0995C12.0944 13.0527 12.0632 13.0064 12.0312 12.9607C11.981 12.8905 11.9146 12.8334 11.8378 12.7943C11.7609 12.7551 11.6757 12.735 11.5894 12.7357C11.2905 12.7357 11.0441 12.9599 11.0441 13.3023C11.0441 13.4099 11.0901 13.5438 11.1386 13.6521C11.3808 14.1892 11.4999 14.7131 11.4999 15.5187C11.4999 17.4181 10.0135 18.9586 8.2176 18.9586C7.46691 18.9804 6.7289 18.7618 6.11125 18.3346C5.4936 17.9073 5.02865 17.2939 4.78423 16.5838C4.77946 16.5681 4.77162 16.5535 4.76117 16.5409C4.75072 16.5282 4.73787 16.5178 4.72336 16.5102C4.70885 16.5025 4.69296 16.4978 4.67663 16.4964C4.6603 16.4949 4.64384 16.4967 4.62821 16.5017L1.09136 17.5922C1.07566 17.597 1.06106 17.6048 1.04839 17.6152C1.03572 17.6257 1.02524 17.6385 1.01753 17.653C1.00983 17.6675 1.00506 17.6834 1.0035 17.6997C1.00193 17.716 1.00361 17.7325 1.00842 17.7482C1.49169 19.2636 2.4497 20.5834 3.74084 21.5124C5.03198 22.4413 6.58774 22.9303 8.17819 22.9069C11.4079 22.9069 14.0924 20.7431 15.0761 17.8221C15.6912 15.9991 15.5023 13.9716 14.6729 12.2947L14.6721 12.2939ZM8.10346 11.7987C8.01242 11.7987 7.92511 11.7626 7.86074 11.6982C7.79637 11.6338 7.7602 11.5465 7.7602 11.4555C7.7602 11.3644 7.79637 11.2771 7.86074 11.2128C7.92511 11.1484 8.01242 11.1122 8.10346 11.1122C8.19449 11.1122 8.2818 11.1484 8.34618 11.2128C8.41055 11.2771 8.44671 11.3644 8.44671 11.4555C8.44671 11.5465 8.41055 11.6338 8.34618 11.6982C8.2818 11.7626 8.19449 11.7987 8.10346 11.7987ZM8.10346 8.85643C8.01242 8.85643 7.92511 8.82027 7.86074 8.75589C7.79637 8.69152 7.7602 8.60421 7.7602 8.51318C7.7602 8.42214 7.79637 8.33483 7.86074 8.27046C7.92511 8.20609 8.01242 8.16992 8.10346 8.16992C8.19449 8.16992 8.2818 8.20609 8.34618 8.27046C8.41055 8.33483 8.44671 8.42214 8.44671 8.51318C8.44671 8.60421 8.41055 8.69152 8.34618 8.75589C8.2818 8.82027 8.19449 8.85643 8.10346 8.85643ZM8.10346 10.328C8.01242 10.328 7.92511 10.2918 7.86074 10.2275C7.79637 10.1631 7.7602 10.0758 7.7602 9.98474C7.7602 9.8937 7.79637 9.80639 7.86074 9.74202C7.92511 9.67765 8.01242 9.64148 8.10346 9.64148C8.19449 9.64148 8.2818 9.67765 8.34618 9.74202C8.41055 9.80639 8.44671 9.8937 8.44671 9.98474C8.44671 10.0758 8.41055 10.1631 8.34618 10.2275C8.2818 10.2918 8.19449 10.328 8.10346 10.328ZM10.8093 11.9876C10.7299 11.9075 10.6433 11.8349 10.5506 11.7708C10.3584 11.6333 10.1542 11.5135 9.94045 11.4128C9.79838 11.3471 9.73105 11.3126 9.55531 11.2633C9.42474 11.2264 9.30074 11.2099 9.18249 11.2592C9.09084 11.2968 9.01666 11.3675 8.97468 11.4573C8.9327 11.547 8.92598 11.6493 8.95585 11.7437C9.00101 11.9063 9.1324 11.9712 9.27365 12.0393C9.49947 12.1477 9.61115 12.2052 9.80331 12.3235C9.95277 12.4154 10.08 12.5008 10.232 12.6092C10.4126 12.7382 10.6401 12.7587 10.801 12.6166C10.9834 12.4549 10.9866 12.1724 10.8093 11.9876ZM12.0378 11.1286C11.8209 10.9016 11.5699 10.7099 11.2938 10.5604C11.2132 10.5151 11.1267 10.4814 11.0367 10.4602C10.9579 10.4402 10.875 10.4426 10.7975 10.4673C10.72 10.492 10.651 10.5379 10.5982 10.5998C10.5425 10.6673 10.5091 10.7504 10.5028 10.8377C10.4965 10.9249 10.5175 11.012 10.5629 11.0868C10.6393 11.2182 10.7403 11.283 10.8585 11.3693C11.0367 11.4982 11.1599 11.5959 11.3266 11.7363C11.4342 11.8275 11.5262 11.926 11.6748 11.9465C11.7696 11.959 11.8659 11.9418 11.9506 11.8974C12.0352 11.853 12.1041 11.7836 12.1478 11.6986C12.243 11.5105 12.1839 11.2789 12.0369 11.1286H12.0378ZM9.88625 9.87716C9.77742 9.82795 9.66449 9.78839 9.54874 9.75891C9.43341 9.72582 9.31198 9.71992 9.19399 9.74167C9.1339 9.75676 9.07828 9.78597 9.03176 9.82689C8.98524 9.8678 8.94915 9.91923 8.9265 9.97689C8.90385 10.0346 8.8953 10.0968 8.90154 10.1584C8.90779 10.2201 8.92866 10.2793 8.96242 10.3313C9.02154 10.42 9.10038 10.4594 9.20877 10.4972L9.46498 10.59C9.54217 10.6179 9.63086 10.6532 9.70148 10.6671C9.82877 10.6918 9.96262 10.6507 10.0546 10.5604C10.2738 10.3502 10.2008 10.011 9.88625 9.87634V9.87716ZM9.52985 8.31117C9.46487 8.29284 9.39836 8.28047 9.33113 8.27421C9.23726 8.26314 9.14239 8.28397 9.06178 8.33334C8.98493 8.38574 8.93012 8.46466 8.90784 8.55497C8.88557 8.64528 8.8974 8.74063 8.94107 8.82276C8.98564 8.90434 9.05874 8.96662 9.14636 8.99768C9.22684 9.0256 9.31881 9.05516 9.40339 9.06501C9.49461 9.07476 9.58631 9.05156 9.66191 8.9996C9.73751 8.94764 9.79204 8.87036 9.81563 8.7817C9.82788 8.73204 9.8302 8.68045 9.82245 8.62988C9.81471 8.57932 9.79705 8.53079 9.7705 8.48706C9.74394 8.44334 9.70902 8.4053 9.66772 8.37511C9.62642 8.34493 9.57957 8.3232 9.52985 8.31117ZM11.366 8.92788C11.2719 8.86733 11.1717 8.81669 11.0671 8.77678C10.954 8.73062 10.8348 8.7013 10.7132 8.68973C10.6486 8.68639 10.5842 8.69758 10.5245 8.72247C10.4649 8.74736 10.4116 8.78531 10.3685 8.83354C10.3255 8.88177 10.2939 8.93904 10.2759 9.00113C10.2579 9.06322 10.2542 9.12855 10.2648 9.1923C10.2886 9.32369 10.3749 9.43865 10.4947 9.49778L10.7616 9.63245C10.8602 9.68254 10.9636 9.74495 11.0712 9.7737C11.2026 9.80901 11.3455 9.77944 11.4531 9.6965C11.7085 9.4986 11.6551 9.10771 11.366 8.92788ZM13.3147 10.36C13.2189 10.2417 13.1131 10.1318 12.9985 10.0315C12.8945 9.93633 12.7818 9.8511 12.6619 9.77698C12.5425 9.69772 12.3976 9.66662 12.2562 9.68993C12.1831 9.7042 12.1147 9.73665 12.0575 9.7843C12.0002 9.83195 11.9559 9.89326 11.9285 9.96257C11.899 10.0399 11.8918 10.124 11.9076 10.2053C11.9234 10.2866 11.9617 10.3618 12.018 10.4224C12.1018 10.5119 12.179 10.5702 12.2718 10.6524C12.3876 10.755 12.4993 10.856 12.6085 10.9669C12.7054 11.0671 12.8121 11.1434 12.9591 11.1492C13.0455 11.1517 13.1307 11.1297 13.205 11.0856C13.2793 11.0416 13.3396 10.9773 13.3787 10.9004C13.4226 10.814 13.44 10.7167 13.4286 10.6205C13.4172 10.5243 13.3775 10.4337 13.3147 10.36Z" fill="#232323"/>
<path fill-rule="evenodd" clip-rule="evenodd" d="M1.53634 10.6659C1.62356 10.8433 1.74533 11.0992 1.93458 11.3394C1.99309 11.4195 2.06929 11.4849 2.15722 11.5306C2.24515 11.5763 2.34242 11.6009 2.44143 11.6026C2.76973 11.6026 2.99353 11.3633 2.99353 11.0307C2.98985 10.9206 2.95994 10.8131 2.90631 10.717L2.80181 10.5074C2.78536 10.4719 2.78536 10.4373 2.81498 10.4207C2.85036 10.4009 2.88327 10.4183 2.9022 10.4496C2.93017 10.4967 3.01904 10.6386 3.01904 10.6386C3.126 10.8054 3.30702 10.9275 3.5193 10.9275C3.59868 10.9266 3.67712 10.9101 3.75011 10.8788C3.82311 10.8475 3.88924 10.8021 3.94473 10.7451C4.00021 10.6882 4.04395 10.6208 4.07345 10.5469C4.10295 10.4729 4.11763 10.3939 4.11666 10.3143C4.11615 10.2215 4.09448 10.13 4.0533 10.0469C4.03767 10.0147 4.00805 9.94948 3.99159 9.91729C3.97513 9.8818 3.97431 9.84631 4.00475 9.82815C4.03602 9.80917 4.07058 9.82733 4.08868 9.85621C4.11172 9.89088 4.1578 9.96103 4.18248 9.9957C4.28286 10.136 4.44413 10.2218 4.62515 10.2218C4.92383 10.2218 5.17149 9.9957 5.17149 9.65236C5.17149 9.54341 5.12541 9.40971 5.07605 9.30076C4.83332 8.76099 4.71483 8.23442 4.71483 7.42476C4.71483 5.51492 6.20411 3.96741 8.00358 3.96741C8.75562 3.94567 9.4949 4.16553 10.1136 4.5949C10.7323 5.02428 11.198 5.64072 11.4429 6.35429C11.4635 6.42032 11.5334 6.45581 11.5992 6.436L15.1439 5.3416C15.1597 5.33688 15.1744 5.32907 15.1872 5.31862C15.2 5.30817 15.2106 5.29528 15.2184 5.28071C15.2262 5.26613 15.231 5.25015 15.2326 5.23369C15.2343 5.21723 15.2326 5.20061 15.2278 5.18479C14.7434 3.66171 13.7833 2.33538 12.4895 1.40184C11.1956 0.468303 9.63669 -0.0229064 8.04308 0.000820874C4.80699 0.000820874 2.11806 2.17477 1.13152 5.10968C0.516065 6.94194 0.70531 8.98053 1.53634 10.6659ZM8.11795 14.1208C8.16312 14.1208 8.20784 14.1297 8.24957 14.147C8.2913 14.1643 8.32921 14.1898 8.36115 14.2218C8.39309 14.2538 8.41842 14.2919 8.4357 14.3337C8.45299 14.3756 8.46188 14.4204 8.46188 14.4657C8.46188 14.511 8.45299 14.5559 8.4357 14.5978C8.41842 14.6396 8.39309 14.6777 8.36115 14.7097C8.32921 14.7417 8.2913 14.7671 8.24957 14.7845C8.20784 14.8018 8.16312 14.8107 8.11795 14.8107C8.02674 14.8107 7.93926 14.7744 7.87476 14.7097C7.81026 14.645 7.77402 14.5572 7.77402 14.4657C7.77402 14.3742 7.81026 14.2865 7.87476 14.2218C7.93926 14.1571 8.02674 14.1208 8.11795 14.1208ZM8.11795 12.6417C8.20917 12.6417 8.29665 12.6781 8.36115 12.7428C8.42565 12.8075 8.46188 12.8952 8.46188 12.9867C8.46188 13.0782 8.42565 13.166 8.36115 13.2307C8.29665 13.2954 8.20917 13.3317 8.11795 13.3317C8.02674 13.3317 7.93926 13.2954 7.87476 13.2307C7.81026 13.166 7.77402 13.0782 7.77402 12.9867C7.77402 12.8952 7.81026 12.8075 7.87476 12.7428C7.93926 12.6781 8.02674 12.6417 8.11795 12.6417ZM5.40681 10.9737C5.48004 11.0497 5.5796 11.1314 5.66517 11.1916C5.86758 11.3319 6.05354 11.4475 6.27734 11.5515C6.41969 11.6175 6.48715 11.6513 6.66324 11.7017C6.79406 11.7388 6.9183 11.7553 7.03679 11.7058C7.12863 11.668 7.20295 11.597 7.24501 11.5068C7.28708 11.4166 7.29381 11.3138 7.26388 11.2189C7.21863 11.0546 7.08616 10.9902 6.94546 10.9217C6.76287 10.8376 6.58563 10.7422 6.41475 10.6362C6.26824 10.5455 6.12498 10.4497 5.98524 10.3489C5.80423 10.2194 5.57549 10.1979 5.41422 10.3407C5.23238 10.5033 5.22909 10.788 5.40681 10.9737ZM4.1759 11.8362C4.40711 12.0739 4.66958 12.2778 4.92136 12.4082C5.00528 12.4511 5.06782 12.4824 5.1789 12.508C5.25788 12.5283 5.34095 12.5258 5.41863 12.501C5.49631 12.4762 5.56548 12.43 5.61827 12.3677C5.67411 12.2999 5.70752 12.2164 5.71386 12.1287C5.7202 12.041 5.69916 11.9535 5.65365 11.8783C5.57631 11.7471 5.47593 11.6819 5.35745 11.5952C5.19625 11.4786 5.03979 11.3555 4.88845 11.2263C4.77984 11.1347 4.68851 11.0348 4.53958 11.015C4.44461 11.0025 4.3481 11.0197 4.26327 11.0644C4.17844 11.109 4.10942 11.1788 4.06564 11.2642C3.9702 11.4524 4.02862 11.6852 4.1759 11.837V11.8362ZM6.33165 13.0949C6.43532 13.1394 6.52089 13.1749 6.66982 13.2137C6.78511 13.2468 6.90649 13.2528 7.02445 13.231C7.08472 13.216 7.14054 13.1867 7.18725 13.1456C7.23397 13.1045 7.27022 13.0529 7.293 12.9949C7.31578 12.9369 7.32442 12.8743 7.31821 12.8123C7.312 12.7503 7.29112 12.6907 7.2573 12.6384C7.19724 12.5485 7.11907 12.5097 7.01046 12.4709C6.92471 12.4406 6.83914 12.4098 6.75374 12.3785C6.6764 12.3496 6.58754 12.3141 6.51678 12.3009C6.45348 12.2891 6.3883 12.2926 6.32662 12.3111C6.26494 12.3296 6.20856 12.3626 6.16215 12.4073C5.94246 12.6195 6.01651 12.9603 6.33165 13.0949ZM6.68874 14.668C6.74552 14.6845 6.81792 14.7001 6.88786 14.7059C6.98192 14.717 7.07697 14.6961 7.15774 14.6465C7.23446 14.5936 7.2891 14.5142 7.31125 14.4235C7.3334 14.3328 7.32152 14.2371 7.27787 14.1546C7.23336 14.0723 7.1601 14.0094 7.07217 13.978C6.98919 13.9466 6.90314 13.9242 6.81545 13.9111C6.72406 13.9013 6.63218 13.9246 6.55643 13.9769C6.48067 14.0291 6.42604 14.1068 6.40241 14.1959C6.34728 14.408 6.4781 14.6094 6.68874 14.668ZM4.84895 14.0481C5.0465 14.1753 5.26955 14.2573 5.50226 14.2883C5.56708 14.2918 5.63186 14.2806 5.6918 14.2556C5.75174 14.2306 5.80531 14.1924 5.84853 14.1438C5.89175 14.0953 5.92352 14.0375 5.94149 13.975C5.95946 13.9124 5.96316 13.8466 5.95233 13.7824C5.94006 13.7169 5.91289 13.6551 5.87293 13.6018C5.83297 13.5486 5.7813 13.5053 5.72195 13.4753C5.62815 13.4283 5.55656 13.3928 5.45454 13.34C5.3558 13.2905 5.25213 13.2277 5.14352 13.1988C5.07821 13.1816 5.00982 13.1796 4.94362 13.1931C4.87743 13.2065 4.8152 13.235 4.76173 13.2764C4.50584 13.4753 4.55932 13.8674 4.84895 14.0489V14.0481ZM2.89561 12.6096C3.0813 12.8387 3.30242 13.0366 3.55057 13.1955C3.66993 13.275 3.81483 13.3062 3.95621 13.283C4.02971 13.2687 4.09842 13.2361 4.15596 13.188C4.2135 13.14 4.258 13.0781 4.28533 13.0082C4.31462 12.9305 4.32166 12.8461 4.30567 12.7646C4.28968 12.683 4.25128 12.6076 4.19482 12.5468C4.1109 12.4569 4.03438 12.3974 3.9414 12.3157C3.8252 12.2145 3.71268 12.109 3.60405 11.9996C3.50614 11.8989 3.39917 11.8222 3.25271 11.8164C3.16607 11.8137 3.08045 11.8357 3.00585 11.88C2.93125 11.9243 2.87075 11.989 2.83144 12.0665C2.78736 12.1532 2.76993 12.2511 2.78135 12.3478C2.79278 12.4445 2.83254 12.5356 2.89561 12.6096ZM41.4794 7.90098C40.1193 7.90098 38.5568 8.36565 37.6311 9.4683V1.66801C37.6311 1.63517 37.6181 1.60369 37.595 1.58047C37.5718 1.55725 37.5404 1.54421 37.5077 1.54421H33.9055C33.8727 1.54421 33.8413 1.55725 33.8182 1.58047C33.795 1.60369 33.782 1.63517 33.782 1.66801V22.4336C33.782 22.5021 33.8372 22.5574 33.9055 22.5574H37.5069C37.5396 22.5574 37.571 22.5443 37.5941 22.5211C37.6173 22.4979 37.6303 22.4664 37.6303 22.4336V14.1703C37.6155 12.5765 38.5329 11.3228 40.2921 11.3237C42.1434 11.3253 42.925 12.6318 42.925 14.228V22.4336C42.925 22.5021 42.9802 22.5574 43.0485 22.5574H46.6499C46.6826 22.5574 46.714 22.5443 46.7371 22.5211C46.7603 22.4979 46.7733 22.4664 46.7733 22.4336V13.5603C46.7733 10.4257 45.0948 7.90098 41.4786 7.90098H41.4794ZM52.0154 1.19756C50.7047 1.18684 49.6243 2.26391 49.6243 3.60591C49.6243 4.88271 50.694 5.95648 51.9965 5.95648C53.4314 5.95648 54.5299 4.70856 54.3497 3.30301C54.1991 2.12607 53.1978 1.20664 52.0146 1.19674L52.0154 1.19756ZM53.8116 8.27816H50.2102C50.1774 8.27816 50.146 8.29121 50.1229 8.31442C50.0997 8.33764 50.0867 8.36913 50.0867 8.40196V22.4328C50.0866 22.4491 50.0897 22.4653 50.0959 22.4804C50.102 22.4955 50.1111 22.5092 50.1226 22.5208C50.1341 22.5324 50.1477 22.5416 50.1627 22.5479C50.1778 22.5542 50.1939 22.5574 50.2102 22.5574H53.8116C53.8443 22.5574 53.8757 22.5443 53.8988 22.5211C53.922 22.4979 53.935 22.4664 53.935 22.4336V8.40196C53.935 8.36913 53.922 8.33764 53.8988 8.31442C53.8757 8.29121 53.8443 8.27816 53.8116 8.27816ZM64.5401 19.4822C62.6016 19.4822 60.9502 17.9718 60.9502 15.3885C60.9502 12.7771 62.6016 11.3253 64.5401 11.3253C66.5074 11.3253 68.0699 12.7771 68.0699 15.3885C68.0699 18.0007 66.5074 19.4822 64.5401 19.4822ZM65.3506 7.90098C63.2384 7.90098 61.6759 8.82949 61.0391 9.84549V1.66801C61.0391 1.63517 61.0261 1.60369 61.0029 1.58047C60.9798 1.55725 60.9484 1.54421 60.9157 1.54421H57.3727C57.3565 1.54421 57.3404 1.54741 57.3254 1.55363C57.3105 1.55985 57.2968 1.56897 57.2854 1.58047C57.2739 1.59196 57.2648 1.60561 57.2586 1.62063C57.2524 1.63565 57.2492 1.65175 57.2492 1.66801V22.4336C57.2492 22.5021 57.3044 22.5574 57.3727 22.5574H60.8581C60.8743 22.5574 60.8903 22.5542 60.9053 22.548C60.9203 22.5417 60.9339 22.5326 60.9453 22.5211C60.9568 22.5096 60.9659 22.496 60.9721 22.481C60.9783 22.4659 60.9815 22.4498 60.9815 22.4336V20.8159C61.7335 22.0349 63.2384 22.9057 65.2058 22.9057C69.2564 22.9057 71.9182 19.6844 71.9182 15.3596C71.9182 11.1223 69.5164 7.90098 65.3506 7.90098ZM94.9625 19.2519C94.6183 19.3077 94.2702 19.3359 93.9216 19.3361C92.8224 19.3361 92.2431 18.93 92.2431 17.6813V11.7025H94.9839C95.0166 11.7025 95.048 11.6895 95.0711 11.6662C95.0943 11.643 95.1073 11.6115 95.1073 11.5787V8.40279C95.1073 8.36996 95.0943 8.33847 95.0711 8.31525C95.048 8.29203 95.0166 8.27899 94.9839 8.27899H92.2439V4.13578C92.2439 4.10294 92.2309 4.07145 92.2078 4.04824C92.1846 4.02502 92.1532 4.01198 92.1205 4.01198H88.5611C88.5283 4.01198 88.4969 4.02502 88.4738 4.04824C88.4506 4.07145 88.4376 4.10294 88.4376 4.13578L88.4327 8.27899H85.9725C85.9398 8.27899 85.9084 8.29203 85.8852 8.31525C85.8621 8.33847 85.8491 8.36996 85.8491 8.40279V11.5804C85.8491 11.648 85.9042 11.7042 85.9725 11.7042H88.4245V18.3498C88.4245 21.1064 90.1606 22.7612 92.9375 22.7612C93.9842 22.7612 94.6572 22.5871 95.0266 22.446C95.0507 22.4369 95.0714 22.4206 95.086 22.3994C95.1005 22.3781 95.1082 22.3529 95.1081 22.3271V19.3757C95.1083 19.3574 95.1044 19.3394 95.0968 19.3228C95.0892 19.3062 95.0781 19.2915 95.0642 19.2798C95.0503 19.268 95.0339 19.2595 95.0163 19.2548C94.9988 19.2502 94.9804 19.2494 94.9625 19.2527V19.2519ZM119.958 19.4822C117.934 19.4822 116.429 17.9429 116.429 15.3885C116.429 12.8349 117.992 11.3542 119.958 11.3542C121.927 11.3542 123.505 12.806 123.505 15.3596C123.505 17.9429 121.927 19.4822 119.958 19.4822ZM127.108 1.54503H123.525C123.509 1.54503 123.493 1.54824 123.478 1.55446C123.463 1.56068 123.449 1.5698 123.438 1.58129C123.427 1.59279 123.417 1.60644 123.411 1.62146C123.405 1.63648 123.402 1.65258 123.402 1.66883V9.70022C122.997 8.94586 121.839 7.92987 119.38 7.92987C115.358 7.92987 112.552 11.2098 112.552 15.3885C112.552 19.7133 115.445 22.9057 119.496 22.9057C121.405 22.9057 122.852 22.0349 123.489 20.9034L123.496 22.4344C123.497 22.4671 123.51 22.4984 123.533 22.5214C123.556 22.5445 123.587 22.5574 123.62 22.5574H127.108C127.141 22.5574 127.172 22.5443 127.195 22.5211C127.218 22.4979 127.231 22.4664 127.231 22.4336V1.66801C127.231 1.63517 127.218 1.60369 127.195 1.58047C127.172 1.55725 127.141 1.54421 127.108 1.54421V1.54503ZM100.595 13.7923C100.683 12.4866 101.782 10.9779 103.778 10.9779C105.977 10.9779 106.903 12.3702 106.961 13.7923H100.595ZM103.72 7.84321C100.075 7.84321 96.7183 10.8029 96.7183 15.3596C96.7183 20.1779 100.162 22.9923 104.068 22.9923C106.983 22.9923 109.035 21.5645 110.058 19.6613C110.066 19.6461 110.07 19.6295 110.072 19.6124C110.073 19.5953 110.07 19.5782 110.065 19.562C110.059 19.5459 110.05 19.5311 110.038 19.5187C110.027 19.5062 110.012 19.4963 109.997 19.4896L107.112 18.2318C107.085 18.2202 107.055 18.2186 107.027 18.2274C106.999 18.2362 106.975 18.2547 106.959 18.2796C106.409 19.1322 105.502 19.6844 104.096 19.6844C102.188 19.6844 100.595 18.3201 100.509 16.4334H110.578C110.609 16.4335 110.638 16.4219 110.661 16.401C110.684 16.38 110.698 16.3512 110.701 16.3203C110.718 16.1139 110.751 15.6699 110.751 15.244C110.751 10.6584 108.118 7.84321 103.72 7.84321ZM80.7271 13.8682L78.7022 13.4324C77.9206 13.2872 77.4005 12.8926 77.4005 12.1961C77.4005 11.3839 78.2102 10.774 79.223 10.774C80.6111 10.774 81.2554 11.5622 81.4833 12.3174C81.4884 12.3334 81.4968 12.3483 81.5079 12.3609C81.5189 12.3736 81.5325 12.3839 81.5477 12.3911C81.5629 12.3983 81.5794 12.4023 81.5962 12.4028C81.613 12.4033 81.6298 12.4004 81.6454 12.3941L84.512 11.2799C84.5417 11.2686 84.5658 11.2462 84.5795 11.2175C84.5931 11.1887 84.5952 11.1558 84.5853 11.1256C84.0768 9.6375 82.571 7.84321 79.1943 7.84321C76.1268 7.84321 73.8707 9.96186 73.8707 12.5155C73.8707 14.5177 75.1148 16.2278 77.863 16.8378L79.7439 17.2727C80.8432 17.5055 81.2776 17.9718 81.2776 18.6098C81.2776 19.365 80.6695 20.0327 79.3967 20.0327C77.784 20.0327 76.9464 19.067 76.8065 17.9883C76.8044 17.9714 76.7988 17.955 76.79 17.9404C76.7812 17.9258 76.7694 17.9132 76.7554 17.9035C76.7414 17.8938 76.7256 17.8871 76.7088 17.8839C76.6921 17.8808 76.6749 17.8812 76.6584 17.8851L73.6041 18.557C73.574 18.5635 73.5475 18.5811 73.5297 18.6063C73.5118 18.6315 73.5041 18.6625 73.5079 18.6931C73.7358 20.3314 75.2399 22.9932 79.4255 22.9932C83.1577 22.9932 84.9514 20.6129 84.9514 18.2912C84.9514 16.2014 83.5337 14.4484 80.7271 13.8674V13.8682ZM31.5144 18.1377L28.3631 17.0837C28.3472 17.0786 28.3305 17.0767 28.314 17.0781C28.2974 17.0794 28.2813 17.0841 28.2665 17.0918C28.2517 17.0995 28.2386 17.11 28.2279 17.1228C28.2173 17.1356 28.2092 17.1503 28.2042 17.1663C27.8496 18.24 26.8672 19.4525 24.9723 19.4525C23.0049 19.4525 21.3273 18.0007 21.3273 15.4182C21.3273 12.8349 22.9753 11.4128 24.9435 11.4128C26.5809 11.4128 27.4728 12.31 27.913 13.316C27.9251 13.3448 27.9475 13.368 27.9759 13.3808C28.0043 13.3937 28.0365 13.3953 28.066 13.3854L31.2947 12.2679C31.3102 12.2627 31.3246 12.2544 31.3369 12.2436C31.3492 12.2328 31.3593 12.2196 31.3665 12.2049C31.3737 12.1901 31.3779 12.1741 31.3788 12.1577C31.3798 12.1413 31.3775 12.1249 31.372 12.1094C30.5854 9.89748 28.4371 7.84238 24.8563 7.84238C20.7192 7.84238 17.4782 11.0067 17.4782 15.4182C17.4782 19.8007 20.7768 22.9923 24.9723 22.9923C28.702 22.9923 30.9187 20.6319 31.5958 18.2887C31.6044 18.2579 31.6007 18.2249 31.5855 18.1967C31.5703 18.1686 31.5448 18.1474 31.5144 18.1377Z" fill="#232323"/>
</svg>
